<?xml version="1.0" encoding="UTF-8"?>
<svg id="Equestrian_Kings" xmlns="http://www.w3.org/2000/svg" version="1.1" viewBox="0 0 640.919 849.332">
  <!-- Generator: Adobe Illustrator 30.3.0, SVG Export Plug-In . SVG Version: 2.1.3 Build 182)  -->
  <defs>
    <style>
      .st0, .st1 {
        fill: none;
      }

      .st2 {
        fill: #c19558;
      }

      .st1 {
        stroke: #c19558;
        stroke-miterlimit: 10;
        stroke-width: 17px;
      }

      .st3 {
        fill: #11281a;
      }
    </style>
  </defs>
  <path class="st3" d="M255.958,156.921c3.499-12.537,40.999-24.465,40.999-24.465,0,0,29.788-2.796,41.296-1.079s40.057-3.434,43.277,7.942,12.45,23.612-6.225,24.256-70.439,1.717-79.867,1.503-42.055,1.073-39.479-8.157Z"/>
  <path class="st3" d="M577.602,258.433l27.756,11.347s3.303,170.599-12.972,219.717-39.498,129.161-67.692,164.793-79.525,91.04-133.472,126.454-68.363,42.535-68.363,42.535c0,0-58.158-27.934-123.255-88.932s-112.535-115.519-130.602-185.975-16.747-135.113-21.145-179.098-3.579-101.316-3.579-101.316c0,0,79.233-35.036,127.176-47.792s113.736-25.504,200.918-14.512,164.495,39.143,205.231,52.778Z"/>
  <path class="st1" d="M328.219,203.413c86.73,0,192.432,28.729,272.658,65.048,0,88.356.951,221.078-34.103,307.251-35.054,86.174-94.207,162.123-243.915,247.567-82.522-43.817-184.762-123.418-230.77-213.243-37.52-73.253-47.469-186.223-50.39-341.043,96.398-38.705,167.001-65.579,286.52-65.579Z"/>
  <path class="st2" d="M327.404,233.781c76.529,0,169.798,25.35,240.587,57.397,0,77.964.839,201.162-30.091,277.199-30.931,76.038-83.126,143.054-215.226,218.448-72.816-38.663-163.03-108.902-203.627-188.161-33.107-64.637-41.885-170.406-44.463-307.017,85.059-34.153,147.359-57.866,252.819-57.866Z"/>
  <path class="st3" d="M344.153,608.444c-4.139-9.061-10.068-18.122-28.302-32.105-18.234-13.983-31.882-24.163-42.509-34.902-10.627-10.739-22.261-29.197-21.478-53.136,1.678,8.614,6.264,23.604,18.346,37.475,12.081,13.871,19.688,21.143,38.034,36.021,18.346,14.878,33,28.078,35.909,46.648Z"/>
  <path class="st3" d="M347.621,588.644c-9.397-13.648-12.976-17.004-35.35-36.133-22.373-19.129-37.028-30.539-45.417-48.326-8.39-17.787-10.739-32.217-5.817-51.458,4.922-19.241,12.193-31.211,27.071-47.879,14.878-16.668,45.641-30.763,73.831-25.17-12.305,0-21.814.447-34.566,6.488-12.753,6.041-21.926,14.766-29.756,26.288-7.831,11.522-11.858,25.953-12.417,40.607s3.356,31.211,10.068,46.089c6.712,14.878,15.326,29.98,30.427,50.451s18.57,24.051,21.926,39.041Z"/>
  <path class="st3" d="M368.987,601.508c1.007-7.719,3.244-18.234-3.915-33.448-7.159-15.214-10.068-19.465-17.115-29.644-7.048-10.18-17.563-24.387-24.163-41.39-6.6-17.004-7.719-36.692-2.237-54.702,5.481-18.01,13.983-32.329,29.868-44.187-7.048,8.614-11.522,14.766-15.437,27.071-3.915,12.305-1.902,27.519,8.166,33.336,10.068,5.817,16.556,8.726,35.238,7.048-2.461,2.461-5.244,3.529-2.939,8.331,2.305,4.802,11.333,23.147,15.079,29.582,5.571,3.073,6.531,5.955,7.395,11.717.864,5.763,2.785,9.316,6.915,10.085,4.13.768,5.667.672,8.74-3.073,3.073-3.746,6.339-4.994,10.373-8.836,4.034-3.842,3.458-6.531.96-12.966-2.497-6.435-4.706-13.35-7.299-30.446-2.593-17.096-5.859-24.683-6.435-29.582s.096-14.695-.384-16.808c-.48-2.113-11.045-24.875-13.254-32.079,2.401-7.011,4.802-11.141,5.955-16.712,7.203-2.401,14.695-5.282,25.452-14.887-.384,7.491-1.153,22.378-15.079,31.406,6.339,11.045,12.006,29.87,12.006,29.87,0,0-11.141-11.621-18.056-12.774,6.531,5.282,13.734,12.678,11.429,21.322-2.305,8.644-3.073,10.085-.864,21.034,2.209,10.949,2.785,21.361,4.61,29.937,1.825,8.576,2.593,12.418,5.09,19.237,2.497,6.819,2.881,10.853-.864,14.311-3.746,3.458-8.356,7.587-12.678,12.102-4.322,4.514-9.893,6.627-13.638,3.938-3.746-2.689-3.554-2.497-7.876-3.458-4.322-.96-8.932-5.667-9.796-10.853-.864-5.186,1.345-11.045,1.345-11.045,0,0-13.35-14.311-20.553-20.938-7.203-6.627-14.887-12.39-25.644-14.407-4.898,4.514-7.203,7.802-7.491,13.938-.288,6.136,1.921,17.277,14.791,35.045,12.87,17.768,21.034,27.084,26.892,38.129,5.859,11.045,11.483,28.123-4.583,44.796Z"/>
  <path class="st3" d="M263.46,542.307c-17.139-9.738-25.449-19.736-31.292-29.085s-6.126-18.524-6.126-26.052,6.2-17.661,13.728-26.378c7.528-8.717,14.171-16.466,18.267-24.105-2.436,7.196-6.31,18.71-9.078,35.427-2.768,16.717-2.657,31.22.443,42.955,3.1,11.735,6.639,18.607,14.058,27.238Z"/>
  <path class="st3" d="M218.293,502.891c-4.539-7.085-8.967-22.806-8.303-40.519s2.989-41.737,36.645-54.69c-7.971,1.107-21.035,4.539-33.655,16.274,3.321-12.731,8.414-24.467,22.474-35.205,14.06-10.739,32.659-20.37,70.189-16.385-6.975-4.539-21.81-12.178-51.037-2.325,11.182-6.089,22.026-10.383,34.845-12.504,12.818-2.12,31.612-.675,45.201,3.47-5.686-4.915-20.528-15.517-49.731-8.867,9.349-5.204,20.97-9.541,35.495-9.445s36.595,4.722,49.895,23.805c-2.217-7.999-8.578-22.841-33.154-29.01,12.915.193,35.756,1.831,54.453,27.757,6.554-5.301,10.794-8.578,13.3-11.758-.096,12.24.289,39.515-24.48,42.599,4.144-2.602,7.517-5.012,9.831-11.951,2.313-6.939,8.096-22.841,8.096-22.841,0,0-17.926,13.589-20.721,14.649-2.795,1.06-3.084,1.446-10.023-1.06-6.939-2.506-21.01-6.843-36.816-3.566-15.806,3.277-21.878,6.361-37.105,16.673-15.228,10.312-27.613,20.047-35.202,25.444-7.589,5.397-13.468,8.867-23.106,14.746,11.854-2.602,24.865-8.963,36.816-17.059-10.505,12.529-12.24,17.059-18.023,26.889-5.783,9.831-8.674,12.915-19.083,23.805-10.409,10.891-18.373,21.622-16.8,41.074Z"/>
  <path class="st3" d="M407.45,518.955c-1.279-6.634-1.439-15.106,1.998-17.025,3.437-1.918,8.712-1.439,9.831,3.037,1.119,4.476-.679,6.714-6.334,11.43,1.698-6.154,2.098-9.112,1.538-11.829-3.037,5.035-4.316,6.954-7.034,14.387Z"/>
  <path class="st3" d="M399.762,453.356c-2.554-6.429-4.844-11.273-12.771-16.998-7.927-5.725-9.512-10.833-13.211-26.51,4.051,8.279,5.461,11.978,11.185,13.563,5.725,1.585,8.191,2.378,10.833,5.108,0-1.761-3.259-4.932-3.259-4.932,0,0,4.227,1.321,6.517,8.015,2.29,6.694,5.852,23.78,5.852,23.78l-5.148-10.481s.016,5.813,0,8.455Z"/>
  <path class="st2" d="M434.325,103.108c13.585,26.627-5.162,44.016-19.291,44.016s-28.996-14.401-28.8-30.431c.272-22.28,27.442-23.91,27.442-23.91l-5.706-52.71s-17.661,16.846-38.038,37.767c9.238,6.249,11.14,10.325,11.14,17.389,0,16.302-17.661,29.887-29.887,29.887s-22.008-10.325-22.551-29.344c-.543-19.019,17.117-23.095,17.117-23.095l-22.551-41.027s-9.781,15.759-25.268,41.57c13.042,5.162,16.574,5.977,16.574,25.54s-11.14,26.627-21.736,26.627c-17.117,0-27.714-16.846-27.714-27.985s10.325-19.834,10.325-19.834l-37.767-37.767s-1.902,18.747-5.977,52.71c16.03,1.087,27.442,13.313,27.442,27.442s-14.4,27.17-28.257,27.17-25.812-15.759-25.812-26.899,4.619-16.846,4.619-16.846l-40.755-19.563,45.918,94.009c110.311-19.563,215.731,0,215.731,0l47.276-93.465s-17.389,7.608-43.472,18.747ZM283.953,161.445c-6.343,0-11.484-4.443-11.484-9.923s5.142-9.923,11.484-9.923,11.484,4.443,11.484,9.923-5.142,9.923-11.484,9.923ZM322.866,161.222c-8.498,0-15.387-6.44-15.387-14.383s6.889-14.383,15.387-14.383,15.387,6.44,15.387,14.383-6.889,14.383-15.387,14.383ZM361.5,162.114c-6.004,0-10.871-4.867-10.871-10.871s4.867-10.871,10.871-10.871,10.871,4.867,10.871,10.871-4.867,10.871-10.871,10.871Z"/>
  <g>
    <path class="st0" d="M328.415,303.171c63.585,0,141.08,21.063,199.897,47.689,0,64.778.697,162.082-25.002,225.259-25.699,63.178-69.067,118.859-178.825,181.502-60.501-32.124-135.457-90.483-169.187-156.338-27.507-53.705-34.801-136.528-36.943-250.033,70.673-28.376,122.436-48.079,210.06-48.079Z"/>
    <path class="st3" d="M155.015,335.321c6.536-2.506,8.384-7.462,5.544-14.87l1.307-.501,4.762,12.419-30.719,11.778-.501-1.308,3.268-1.253-13.031-33.987-3.268,1.253-.501-1.308,30.066-11.527,4.26,11.111-1.307.501c-1.487-3.878-3.259-6.184-5.315-6.921-2.057-.735-4.807-.443-8.248.876l-5.883,2.255,6.015,15.687,2.614-1.002c3.138-1.203,4.969-2.355,5.497-3.457.526-1.102.339-2.829-.562-5.182l1.307-.502,5.012,13.072-1.308.501c-.936-2.439-1.959-3.87-3.071-4.295-1.112-.423-3.236-.033-6.374,1.17l-2.615,1.002,6.516,16.994,6.536-2.507Z"/>
    <path class="st3" d="M198.599,328.35c4.52-.345,7.98-.902,10.38-1.671s4.025-1.853,4.875-3.252c.85-1.399,1.026-2.877.528-4.432l1.333-.428c1.637,5.11,2.174,9.165,1.616,12.162-.56,2.996-2.662,5.079-6.306,6.245-3.066.982-6.516.617-10.347-1.096-1.601-.713-3.202-1.426-4.801-2.138-3.832-1.713-7.214-2.1-10.147-1.16-1.867.598-3.551,1.993-5.053,4.19l-1.118-.965c1.023-1.7,2.135-3.049,3.335-4.046,1.199-.997,2.06-1.677,2.581-2.039.7-.567,2.054-1.466,4.061-2.697,6.874-4.7,8.475-12.783,4.803-24.25-1.907-5.955-4.304-10.186-7.188-12.692-2.886-2.505-5.739-3.307-8.561-2.403-2.823.904-4.577,3.193-5.262,6.867-.686,3.674-.153,8.244,1.598,13.711,1.75,5.466,3.828,9.469,6.233,12.006,2.405,2.537,5.03,3.351,7.875,2.439l.427,1.333c-6,1.922-11.209,1.949-15.63.081-4.42-1.867-7.555-5.689-9.406-11.468-1.85-5.776-1.53-11.123.964-16.038,2.493-4.914,6.762-8.34,12.806-10.275,6.043-1.936,11.598-1.656,16.66.839s8.497,6.565,10.305,12.209c1.053,3.289,1.329,6.483.828,9.584-.502,3.101-1.684,5.954-3.543,8.559-3.692,5.151-9.05,9.537-16.073,13.159l.085.267c3.572-1.39,7.62-2.257,12.14-2.602Z"/>
    <path class="st3" d="M246.524,292.373c2.55,11.814-1.147,18.795-11.091,20.941-5.52,1.191-10.136.709-13.848-1.45-3.713-2.158-6.184-6.089-7.415-11.791l-4.52-20.938-3.421.738-.295-1.369,17.79-3.84.295,1.368-3.421.739,4.682,21.69c2.058,9.534,6.279,13.611,12.666,12.232,2.6-.562,4.683-2.359,6.248-5.395,1.565-3.034,1.87-6.765.915-11.19l-4.667-21.622-5.405,1.167-.296-1.368,10.538-2.274.295,1.368-3.421.738,4.372,20.254Z"/>
    <path class="st3" d="M276.729,304.316c6.953-.81,9.971-5.154,9.053-13.035l1.391-.161,1.539,13.21-32.679,3.806-.162-1.391,3.476-.404-4.21-36.156-3.477.405-.162-1.391,31.984-3.725,1.376,11.82-1.391.162c-.48-4.126-1.626-6.799-3.436-8.021-1.811-1.222-4.547-1.62-8.208-1.194l-6.258.729,1.943,16.687,2.781-.323c3.337-.389,5.397-1.052,6.182-1.988.783-.938,1.029-2.657.738-5.16l1.391-.162,1.62,13.906-1.391.162c-.302-2.596-.94-4.236-1.912-4.922-.973-.686-3.127-.834-6.465-.445l-2.781.323,2.105,18.078,6.953-.81Z"/>
    <path class="st3" d="M295.856,303.957l-1.399.048-.555-16.301,1.399-.048c.149,4.385,1.851,8.062,5.104,11.032,3.253,2.972,7.141,4.38,11.666,4.226,1.865-.063,3.35-.662,4.457-1.798,1.104-1.135,1.627-2.612,1.565-4.431-.07-2.052-1.459-3.756-4.167-5.111-1.472-.696-4.007-1.79-7.606-3.278-3.6-1.488-6.142-2.767-7.625-3.837-2.969-2.141-4.34-5.059-4.115-8.755.224-3.696,1.514-6.601,3.87-8.712,2.355-2.111,5.062-3.22,8.117-3.323,3.054-.104,5.821.211,8.297.942,2.477.733,3.877,1.094,4.205,1.083.932-.032,1.371-.863,1.315-2.496l1.399-.048.437,12.803-1.399.047c-.114-3.357-1.444-6.055-3.988-8.094-2.545-2.037-5.752-2.99-9.623-2.858-1.726.059-3.061.606-4.006,1.643s-1.397,2.16-1.356,3.373c.041,1.213.236,2.14.585,2.781.348.643.94,1.218,1.775,1.726.833.509,1.56.917,2.178,1.222.617.306,1.6.716,2.949,1.23,1.348.514,2.282.88,2.804,1.095,2.604,1.079,4.144,1.715,4.618,1.909.473.193,1.161.51,2.063.945.901.437,1.58.833,2.037,1.191.455.358,1.043.805,1.762,1.341.718.535,1.25,1.09,1.597,1.661.346.572.695,1.227,1.048,1.961.703,1.471.996,3.212.878,5.223-.245,3.791-1.557,6.719-3.938,8.784-2.381,2.065-5.647,3.169-9.798,3.311-3.732.127-7.472-.703-11.221-2.489-1.281-.609-2.226-.904-2.832-.884-1.726.059-2.557,1.021-2.493,2.887Z"/>
    <path class="st3" d="M366.939,277.62c.258-4.146-.257-6.971-1.541-8.478-1.286-1.506-3.815-2.376-7.588-2.611l-2.096-.131-2.262,36.33,4.891.305-.087,1.397-20.261-1.262.087-1.397,4.891.305,2.262-36.33-2.096-.13c-3.728-.232-6.321.319-7.783,1.654-1.463,1.336-2.323,4.076-2.581,8.221l-1.397-.087.74-11.877,36.958,2.301-.739,11.877-1.397-.087Z"/>
    <path class="st3" d="M409.891,312.645l-3.04-.498c-5.757-.941-9.561-2.841-11.409-5.697-1.479-2.228-2.282-4.983-2.407-8.267-.058-1.381-.158-2.65-.299-3.809-.33-2.607-1.624-4.096-3.88-4.465l-3.039-.497-2.736,16.717,3.455.565-.227,1.382-17.271-2.826.227-1.382,3.454.565,5.877-35.922-3.453-.565.226-1.382,18.169,2.973c11.743,1.922,17.054,6.314,15.931,13.176-.444,2.718-1.797,4.767-4.056,6.146-2.259,1.381-4.932,1.817-8.017,1.313l-.079.483c4.604.753,7.309,4.316,8.11,10.689.393,3.375.95,5.819,1.673,7.332.721,1.513,1.727,2.375,3.017,2.586l-.226,1.382ZM388.96,270.208l-2.917,17.823c4.604.753,7.8.591,9.585-.489,1.783-1.079,2.933-3.184,3.445-6.316.512-3.131.082-5.565-1.288-7.304-1.371-1.737-4.312-2.976-8.825-3.714Z"/>
    <path class="st3" d="M429.728,316.854l-17.053-3.93.314-1.364,3.41.786,8.175-35.471-3.411-.786.314-1.364,17.053,3.931-.314,1.363-3.41-.785-8.174,35.47,3.41.786-.314,1.364Z"/>
    <path class="st3" d="M474.851,328.123l-.393,1.344-17.67-5.167.393-1.344,3.964,1.159-1.771-10.655-13.571-3.969-6.628,8.199,5.308,1.552-.393,1.344-11.489-3.359.394-1.344,4.501,1.316,26.191-32.453,1.68.491,6.26,41.942,3.225.943ZM446.82,308.257l12.296,3.596-2.577-15.632-9.719,12.036Z"/>
    <path class="st3" d="M481.426,330.594l5.249,1.953-.488,1.312-10.497-3.906.488-1.312,3.937,1.465,11.619-31.229c-.684-2.444-1.638-3.896-2.861-4.351l.487-1.312,12.269,4.565,10.307,28.706,7.641-20.535-5.249-1.952.488-1.312,11.153,4.15-.488,1.312-4.593-1.709-13.426,36.083-1.312-.488-13.713-41.027-11.01,29.588Z"/>
  </g>
  <g>
    <path class="st3" d="M268.333,687.798v1.605h-20.866v-1.605h3.611l-10.674-19.502-3.371,4.254v15.248h4.013v1.605h-20.063v-1.605h4.013v-41.732h-4.013v-1.604h20.063v1.604h-4.013v23.676l18.619-23.676h-7.383v-1.604h16.372v1.604h-6.822l-9.47,12.039,16.532,29.693h3.451Z"/>
    <path class="st3" d="M292.409,689.404h-20.063v-1.605h4.013v-41.732h-4.013v-1.604h20.063v1.604h-4.013v41.732h4.013v1.605Z"/>
    <path class="st3" d="M303.643,687.798h6.421v1.605h-12.841v-1.605h4.814v-38.201c-1.713-2.354-3.317-3.531-4.814-3.531v-1.604h15.007l22.552,26.725v-25.12h-6.42v-1.604h13.643v1.604h-5.617v44.141h-1.605l-31.139-38.603v36.194Z"/>
    <path class="st3" d="M384.46,686.314c-.696-.829-1.593-1.244-2.688-1.244s-2.221.455-3.371,1.364c-1.15.911-2.487,1.834-4.013,2.77-1.524.935-3.357,1.404-5.497,1.404-7.277,0-12.908-1.872-16.894-5.618-3.986-3.744-5.979-9.496-5.979-17.255,0-16.211,7.57-24.317,22.713-24.317,2.729,0,5.523.67,8.386,2.007,2.862,1.338,4.615,2.006,5.257,2.006s1.177-.333,1.605-1.003c.428-.668.642-1.324.642-1.966h1.525v16.291h-1.605c0-4.065-1.593-7.704-4.775-10.914-3.184-3.21-6.861-4.815-11.034-4.815-3.211,0-5.646,1.726-7.304,5.177-1.659,3.45-2.487,9.148-2.487,17.094s.842,13.551,2.527,16.813c1.686,3.265,4.159,4.896,7.424,4.896,5.137,0,7.704-4.574,7.704-13.724v-5.938h-5.056v-1.605h19.261v1.605h-3.771v20.063h-1.525c0-1.23-.349-2.26-1.043-3.09Z"/>
    <path class="st3" d="M398.823,689.404h-1.604v-18.699h1.604c0,5.029,1.807,9.31,5.418,12.841s8.012,5.297,13.201,5.297c2.14,0,3.865-.629,5.177-1.887,1.311-1.256,1.966-2.929,1.966-5.016,0-2.354-1.524-4.36-4.574-6.019-1.659-.855-4.521-2.207-8.587-4.053-4.066-1.847-6.93-3.411-8.588-4.695-3.317-2.568-4.774-5.965-4.373-10.192.401-4.226,1.992-7.504,4.774-9.831,2.781-2.327,5.926-3.491,9.431-3.491s6.661.469,9.47,1.404c2.809.937,4.4,1.404,4.775,1.404,1.069,0,1.604-.936,1.604-2.809h1.605v14.687h-1.605c0-3.853-1.418-6.995-4.253-9.43-2.837-2.435-6.475-3.651-10.915-3.651-1.979,0-3.531.575-4.654,1.725-1.124,1.151-1.686,2.422-1.686,3.812s.187,2.462.562,3.21c.374.75,1.029,1.433,1.967,2.047.936.615,1.751,1.111,2.447,1.484.694.375,1.806.883,3.331,1.525,1.524.642,2.58,1.097,3.17,1.364,2.941,1.338,4.681,2.127,5.216,2.367.535.241,1.311.63,2.328,1.164,1.016.535,1.778,1.017,2.287,1.444.508.429,1.164.963,1.966,1.605.803.642,1.391,1.298,1.766,1.966.374.67.749,1.432,1.124,2.287.748,1.713,1.016,3.72.803,6.02-.43,4.333-2.047,7.638-4.855,9.911-2.81,2.273-6.595,3.411-11.356,3.411-4.281,0-8.534-1.098-12.761-3.291-1.444-.748-2.515-1.123-3.21-1.123-1.979,0-2.97,1.07-2.97,3.21Z"/>
  </g>
</svg>