<?xml version="1.0" encoding="UTF-8"?>
<svg id="Events_Kings_1" xmlns="http://www.w3.org/2000/svg" version="1.1" viewBox="0 0 640.919 849.332">
  <!-- Generator: Adobe Illustrator 30.3.0, SVG Export Plug-In . SVG Version: 2.1.3 Build 182)  -->
  <defs>
    <style>
      .st0, .st1, .st2 {
        fill: none;
      }

      .st3 {
        fill: #c19558;
      }

      .st1 {
        stroke-width: 8px;
      }

      .st1, .st2 {
        stroke: #c19558;
        stroke-miterlimit: 10;
      }

      .st2 {
        stroke-width: 18px;
      }

      .st4 {
        fill: #11281a;
      }
    </style>
  </defs>
  <path class="st4" d="M505.365,257.576c23.686,7.083,78.826,47.612,78.826,47.612,0,0,2.75,79.066-7.247,128.454s-26.822,113.922-77.765,172.272c-50.942,58.35-105.167,78.783-129.891,85.639-24.724,6.855-52.38,15.241-52.38,15.241,0,0-112.648-31.976-171.001-102.126-58.353-70.15-72.344-128.789-82.42-183.587-10.077-54.799,0-122.231,0-122.231,0,0,53.197-34.324,149.445-57.321,96.247-22.997,173.877-19.404,292.434,16.047Z"/>
  <path class="st2" d="M581.695,301.655c0,95.508,4.621,185.368-61.105,277.795-47.779,67.19-122.431,107.318-198.572,127.344-54.575-13.351-141.867-46.727-198.864-124.263-38.572-52.472-68.807-124.777-64.185-280.876,45.187-28.242,126.83-74.455,261.165-74.455,0,0,142.947-7.702,261.562,74.455Z"/>
  <path class="st3" d="M242.779,119.572c-4.454-24.365-12.051-45.586-23.317-60.781,19.911,6.026,17.333,5.316,23.317,7.515,5.984,2.199,5.584,5.198,2.585,11.396-2.999,6.198,0,14.595,10.796,14.195,10.796-.4,15.595-4.798,14.595-17.194-4.798-3.199-8.797-14.83-.6-15.912,8.197-1.082,11.396,7.515,6.998,14.313,3.999,5.998,9.797,10.196,19.593,9.197,9.797-1,14.395-7.197,14.195-16.594s-2.799-9.996-13.795-12.995c12.196-13.595,23.592-32.389,23.592-32.389,0,0,14.795,23.592,20.393,32.788-7.997,1.999-13.995,5.398-12.396,13.595,1.599,8.197,7.397,15.794,17.394,15.595,9.996-.2,14.195-2.799,16.594-8.797-3.799-7.997-2.799-16.994,6.198-15.595,8.997,1.4,9.197,15.395,0,16.794-1,6.598,4.199,18.194,14.195,17.794s17.594-5.598,13.395-14.195c-4.199-8.597-6.398-10.196,4.199-13.595s23.192-6.998,23.192-6.998c0,0-13.995,14.164-25.191,61.863-20.593-7.282-49.982-9.881-78.772-9.881s-51.754,3.168-77.159,9.881Z"/>
  <path class="st1" d="M245.292,129.738c34.188-8.597,89.55-15.551,151.128.643"/>
  <path class="st3" d="M320.133,830.464c-34.932,0-186.368-13.934-266.302-144.469,39.601,38.867,126.502,127.969,266.302,127.969,0,0,145.471,9.533,266.473-127.969-13.567,29.334-109.043,144.469-266.473,144.469Z"/>
  <g>
    <path class="st0" d="M53.831,668.893c39.601,38.867,126.502,127.969,266.302,127.969,0,0,145.471,9.533,266.473-127.969"/>
    <path class="st3" d="M212.811,777.592l-.855,1.812-23.545-11.113.855-1.812,4.075,1.924-1.657-27.69-6.069,3.004-8.121,17.206,4.528,2.138-.855,1.811-22.64-10.686.855-1.812,4.528,2.138,22.227-47.091-4.528-2.137.855-1.812,22.639,10.686-.855,1.812-4.528-2.137-12.61,26.714,33.619-16.798-8.332-3.933.855-1.811,18.474,8.72-.855,1.811-7.697-3.633-17.098,8.54,2.84,42.312,3.894,1.838Z"/>
    <path class="st3" d="M258.996,791.231l-24.354-5.798.464-1.948,4.871,1.159,12.06-50.656-4.871-1.16.464-1.948,24.354,5.798-.464,1.948-4.871-1.159-12.06,50.656,4.871,1.16-.464,1.948Z"/>
    <path class="st3" d="M290.932,794.158l8.008.229-.057,2.002-16.016-.458.057-2.002,6.006.172,1.363-47.647c-2.052-2.996-4.012-4.522-5.88-4.576l.057-2.002,18.718.536,27.174,34.137.896-31.33-8.008-.229.057-2.002,17.017.487-.057,2.002-7.007-.201-1.575,55.055-2.002-.058-37.461-49.259-1.292,45.145Z"/>
    <path class="st3" d="M410.017,780.476c-1.08-.811-2.287-1.062-3.619-.751-1.333.311-2.57,1.182-3.71,2.612-1.141,1.432-2.505,2.932-4.093,4.5-1.588,1.568-3.683,2.657-6.283,3.263-8.843,2.06-16.217,1.378-22.12-2.046-5.904-3.423-9.953-9.849-12.149-19.277-4.588-19.7,2.318-31.693,20.719-35.979,3.316-.772,6.902-.75,10.76.064,3.856.816,6.176,1.132,6.956.95s1.335-.738,1.667-1.673c.331-.934.406-1.791.224-2.571l1.853-.432,4.611,19.799-1.951.454c-1.15-4.94-4.116-8.912-8.892-11.913-4.778-3-9.702-3.909-14.773-2.729-3.901.908-6.372,3.694-7.41,8.357-1.04,4.663-.434,11.822,1.814,21.479,2.249,9.655,4.859,16.229,7.83,19.717,2.972,3.489,6.44,4.771,10.407,3.848,6.242-1.453,8.068-7.739,5.479-18.857l-1.681-7.218-6.144,1.432-.454-1.951,23.407-5.451.454,1.951-4.584,1.067,5.678,24.383-1.853.431c-.348-1.494-1.063-2.647-2.142-3.459Z"/>
    <path class="st3" d="M445.496,771.927l-1.806.865-10.083-21.041,1.806-.865c2.712,5.659,7.052,9.501,13.02,11.527,5.968,2.026,11.871,1.641,17.711-1.158,2.407-1.153,4.01-2.791,4.808-4.914.797-2.12.633-4.355-.492-6.704-1.269-2.648-4.067-4.084-8.393-4.306-2.328-.068-6.278-.046-11.848.069-5.571.116-9.637-.102-12.194-.652-5.118-1.101-8.59-4.138-10.418-9.11-1.827-4.972-1.804-9.518.072-13.637,1.875-4.119,4.785-7.124,8.729-9.014,3.942-1.889,7.748-3.064,11.413-3.526,3.666-.46,5.709-.792,6.131-.994,1.204-.577,1.302-1.918.292-4.026l1.806-.865,7.919,16.525-1.806.866c-2.077-4.335-5.367-7.106-9.871-8.317-4.504-1.21-9.254-.618-14.251,1.776-2.228,1.067-3.663,2.552-4.307,4.451-.644,1.901-.591,3.634.159,5.198.75,1.566,1.538,2.669,2.363,3.31.825.643,1.93,1.057,3.316,1.242,1.385.188,2.57.306,3.555.352.984.047,2.508.02,4.57-.08,2.062-.101,3.496-.157,4.303-.175,4.032-.08,6.414-.131,7.146-.148.731-.018,1.814.002,3.246.055,1.432.055,2.549.186,3.353.392.803.209,1.829.456,3.078.746s2.265.711,3.047,1.261c.781.552,1.615,1.207,2.498,1.968,1.766,1.523,3.148,3.637,4.149,6.34,1.854,5.107,1.816,9.698-.119,13.771-1.935,4.072-5.582,7.394-10.939,9.961-4.817,2.309-10.195,3.367-16.133,3.178-2.029-.062-3.437.093-4.218.467-2.228,1.068-2.764,2.807-1.61,5.214Z"/>
  </g>
  <g>
    <path class="st0" d="M58.968,278.853c45.187-28.242,126.83-74.455,261.165-74.455,0,0,142.947-7.702,261.562,74.455"/>
    <path class="st3" d="M196.389,216.922c9.371-2.471,12.657-9.015,9.858-19.636l1.874-.494,4.693,17.805-44.044,11.608-.494-1.874,4.686-1.234-12.844-48.729-4.686,1.234-.494-1.874,43.107-11.361,4.199,15.931-1.874.494c-1.465-5.56-3.559-9-6.278-10.322-2.72-1.319-6.549-1.33-11.483-.029l-8.434,2.223,5.928,22.49,3.748-.988c4.498-1.186,7.192-2.496,8.083-3.934.89-1.438.891-3.843.002-7.217l1.874-.494,4.94,18.742-1.874.494c-.922-3.498-2.117-5.621-3.584-6.372-1.467-.748-4.449-.53-8.948.655l-3.748.987,6.422,24.365,9.371-2.47Z"/>
    <path class="st3" d="M265.849,151.744l.273,1.919-6.524.929-13.056,54.72-2.494.355-31.461-48.379-4.605.656-.273-1.919,27.152-3.867.273,1.919-4.701.669,18.585,30.146,8.086-33.944-7.675,1.094-.273-1.919,16.694-2.378Z"/>
    <path class="st3" d="M305.808,202.598c9.685-.353,14.327-6.017,13.927-16.993l1.937-.07.67,18.4-45.518,1.658-.071-1.938,4.843-.176-1.834-50.36-4.842.176-.071-1.937,44.549-1.622.6,16.464-1.937.07c-.209-5.746-1.497-9.562-3.86-11.448-2.364-1.885-6.097-2.735-11.196-2.55l-8.716.317.846,23.243,3.874-.141c4.649-.17,7.565-.857,8.75-2.064,1.183-1.207,1.713-3.554,1.586-7.04l1.937-.07.705,19.369-1.937.07c-.132-3.615-.832-5.948-2.098-7.003-1.267-1.052-4.224-1.494-8.873-1.325l-3.874.141.917,25.181,9.685-.353Z"/>
    <path class="st3" d="M334.1,201.872l7.74.438-.11,1.936-15.481-.876.11-1.935,5.805.328,2.605-46.056c-1.905-2.955-3.76-4.483-5.565-4.586l.11-1.936,18.093,1.023,25.366,33.758,1.713-30.284-7.74-.438.11-1.936,16.448.931-.11,1.935-6.773-.383-3.01,53.216-1.935-.109-34.909-48.663-2.468,43.637Z"/>
    <path class="st3" d="M437.352,177.677c.951-5.671.648-9.635-.904-11.895-1.554-2.258-4.911-3.82-10.073-4.686l-2.867-.481-8.333,49.7,6.69,1.122-.321,1.911-27.717-4.647.321-1.911,6.69,1.121,8.333-49.699-2.867-.48c-5.099-.855-8.75-.468-10.955,1.16-2.206,1.629-3.784,5.278-4.735,10.948l-1.911-.32,2.724-16.248,50.56,8.478-2.724,16.248-1.912-.32Z"/>
    <path class="st3" d="M440.86,217.335l-1.866-.523,6.099-21.741,1.866.524c-1.64,5.848-.937,11.412,2.11,16.695,3.047,5.284,7.587,8.771,13.622,10.465,2.487.697,4.698.53,6.633-.505,1.933-1.033,3.241-2.765,3.922-5.19.768-2.736-.351-5.566-3.355-8.49-1.65-1.535-4.538-4.041-8.662-7.513-4.126-3.473-6.944-6.226-8.453-8.259-3.02-4.068-3.606-8.493-1.761-13.277,1.845-4.782,4.764-8.074,8.758-9.873,3.993-1.799,8.027-2.126,12.102-.983,4.073,1.144,7.592,2.718,10.552,4.722,2.96,2.006,4.658,3.068,5.094,3.19,1.244.349,2.171-.563,2.782-2.742l1.866.523-4.79,17.075-1.866-.523c1.256-4.479.632-8.595-1.87-12.351-2.504-3.755-6.336-6.357-11.499-7.806-2.302-.646-4.293-.482-5.975.488-1.682.972-2.749,2.266-3.203,3.883-.454,1.618-.586,2.923-.394,3.915.19.994.73,2.001,1.619,3.021.887,1.021,1.675,1.863,2.362,2.524.685.663,1.812,1.616,3.375,2.859,1.563,1.244,2.643,2.117,3.241,2.62,2.984,2.516,4.749,4,5.293,4.454.543.454,1.318,1.159,2.326,2.112,1.006.954,1.736,1.762,2.188,2.426.451.664,1.039,1.499,1.762,2.507.724,1.009,1.194,1.963,1.412,2.862.216.9.403,1.909.56,3.025.312,2.236-.032,4.656-1.03,7.26-1.912,4.899-4.871,8.213-8.878,9.94-4.007,1.728-8.78,1.814-14.315.262-4.978-1.396-9.565-4.06-13.763-7.987-1.436-1.342-2.558-2.127-3.366-2.354-2.302-.646-3.802.276-4.5,2.764Z"/>
  </g>
  <g>
    <path class="st3" d="M185.506,561.428c-2.444-5.261-3.555-9.529-4.303-13.246l-.006-.025c-.866-3.508-1.918-6.616-3.162-9.377l-.004-.008-.002-.008c-1.305-2.709-2.903-5.362-4.81-8.157l-.038-.058-.05-.045c-2.868-2.651-6.116-5.218-9.482-7.877-3.353-2.643-6.6-5.44-9.534-8.401-2.298-2.969-3.728-6.088-4.367-9.251-.025-.636-.038-1.274-.038-1.912,0-2.555.188-5.127.464-7.708.43-4.015,1.296-7.801,2.406-11.466,1.105-3.624,2.458-7.216,3.908-10.802,1.618-3.66,3.407-7.344,5.163-11.107,1.879-3.748,3.516-7.566,4.508-11.466l.005-.018.004-.018c.341-1.798.498-3.705.498-5.636,0-1.091-.05-2.191-.147-3.284v-.002c-.121-1.312-.298-2.61-.512-3.878-.407-.071-.883-.286-1.299-.522.267,1.458.479,2.977.62,4.51h0c.093,1.057.143,2.121.143,3.177,0,1.86-.153,3.686-.474,5.399-.963,3.771-2.563,7.513-4.421,11.218l-.004.007-.004.01c-1.749,3.748-3.542,7.443-5.173,11.128l-.004.01-.004.008c-1.46,3.612-2.827,7.239-3.951,10.918-1.126,3.718-2.01,7.582-2.45,11.685-.279,2.608-.472,5.223-.472,7.836,0,.668.013,1.339.04,2.01v.045s.011.045.011.045c.673,3.382,2.201,6.701,4.624,9.824l.023.028.025.025c2.986,3.019,6.28,5.854,9.67,8.525,3.346,2.641,6.554,5.183,9.362,7.773,1.864,2.737,3.415,5.319,4.677,7.937,1.207,2.684,2.236,5.715,3.087,9.16.76,3.778,1.907,8.179,4.416,13.561l.029.063.044.053c2.656,3.367,6.447,7.117,11.539,9.498l.504-1.082c-4.832-2.257-8.483-5.844-11.062-9.102ZM545.793,478.349c-1.127.002-2.095.456-3.037.885-.944.436-1.869.86-2.89.971-.391.043-.789.063-1.193.063-2.661.003-5.556-.923-8.124-2.411-2.569-1.488-4.805-3.538-6.172-5.715-1.644-2.618-2.655-6.023-2.994-10.048.325-3.067.987-6.424,1.971-10.134.956-3.609,2.047-7.415,3.305-11.516v-.004c1.227-4.091,2.599-8.259,3.778-11.889,1.161-3.581,2.067-6.56,2.812-9.202,1.289-3.625,2.511-7.025,3.586-10.361v-.002c.792-2.487,1.552-5.017,2.173-7.573.885-3.648,1.49-7.353,1.49-11.073,0-2.803-.356-5.615-1.182-8.407-.396.012-.905-.139-1.341-.317.936,2.885,1.325,5.796,1.327,8.723,0,3.59-.585,7.202-1.458,10.791-.609,2.515-1.362,5.017-2.149,7.493v-.003c-1.068,3.319-2.289,6.718-3.584,10.355l-.006.019-.006.019c-.74,2.626-1.642,5.594-2.799,9.167-1.177,3.627-2.554,7.802-3.783,11.912h0s-.004.008-.004.008l.002-.004c-1.264,4.112-2.357,7.933-3.318,11.558-1.001,3.776-1.681,7.208-2.011,10.371l-.005.053.005.058c.344,4.189,1.393,7.801,3.178,10.641,1.501,2.383,3.868,4.537,6.583,6.114,2.719,1.574,5.789,2.57,8.724,2.573.445,0,.888-.023,1.324-.071,1.267-.141,2.32-.646,3.257-1.072.939-.436,1.758-.782,2.538-.779.42.003.844.093,1.33.338l.541-1.064c-.638-.328-1.271-.469-1.871-.467ZM497.34,424.298c.412,2.194.644,4.594.643,6.857,0,.992-.043,1.957-.134,2.864v-.007s.001.004.001.004c-.269,2.599-.943,5.104-1.865,7.561v-.002c-.928,2.445-2.212,4.9-3.73,7.465-1.71,2.656-3.619,5.468-5.554,8.484-1.955,3.047-3.813,6.26-5.281,9.594l-.005.013-.005.013c-.995,2.593-1.708,5.092-2.117,7.47l-.004.023-.003.02c-.082.878-.126,1.74-.126,2.585,0,1.369.111,2.694.337,3.965l.005.028.008.03c1.121,4.04,2.97,7.856,5.256,11.675,2.073,4.03,4.027,8.086,4.465,13.408-.895,3.501-2.96,7.877-6.885,13.39-2.314,2.827-4.758,5.599-7.173,8.197-2.421,2.605-4.771,5.014-6.916,7.122l.839.85c2.159-2.116,4.52-4.54,6.952-7.16,2.434-2.618,4.899-5.415,7.237-8.27l.013-.015.013-.018c4.024-5.647,6.17-10.182,7.107-13.897l.023-.096-.007-.098c-.439-5.629-2.517-9.904-4.613-13.973l-.008-.018-.011-.015c-2.25-3.76-4.047-7.478-5.131-11.375-.208-1.19-.314-2.434-.314-3.73,0-.8.04-1.617.12-2.449.393-2.275,1.08-4.686,2.043-7.203,1.43-3.246,3.256-6.409,5.189-9.423,1.927-3.004,3.841-5.821,5.565-8.5l.006-.01.006-.007c1.536-2.6,2.853-5.112,3.819-7.651v-.003c.948-2.527,1.653-5.133,1.934-7.858v-.003c.095-.951.14-1.954.14-2.981-.001-2.099-.206-4.285-.552-6.356-.386-.018-.897-.26-1.286-.501ZM167.543,553.506l-.019-.033-.023-.033c-1.491-1.99-3.376-3.912-5.922-5.617l-.045-.03-.05-.023c-3.221-1.395-7.426-2.563-12.442-3.619-4.537-1.054-8.909-2.119-12.584-3.248-3.15-1.127-5.61-2.411-7.347-3.821-1.889-1.854-3.242-3.753-4.24-5.73-.647-2.219-1.115-4.505-1.374-6.888-.073-1.617-.119-3.279-.119-4.991,0-1.019.016-2.061.05-3.12v-.028c-.035-2.928-.107-5.965-.121-9.133v-.03l-.003-.028c-.339-3.271-.589-6.964-.588-10.199,0-.247.007-.479.011-.721-.352.323-.826.663-1.207.706v.015c0,3.286.251,6.999.591,10.295.014,3.173.084,6.199.12,9.11-.034,1.064-.049,2.108-.049,3.133,0,1.74.044,3.425.12,5.064v.018s.003.02.003.02c.271,2.482.757,4.863,1.433,7.17l.015.05.025.048c1.061,2.116,2.511,4.151,4.515,6.111l.019.02.021.015c1.894,1.541,4.478,2.875,7.73,4.04l.011.005.014.003c3.729,1.15,8.13,2.222,12.683,3.279h.005l.006.002c4.951,1.042,9.08,2.192,12.172,3.526,2.393,1.614,4.156,3.407,5.566,5.286,2.159,3.851,2.899,7.342,3.12,11.029-.126,1.892-.409,3.874-.74,5.978-.494,2.144-1.081,4.424-1.641,6.84l1.165.27c.556-2.409,1.146-4.694,1.647-6.865l.004-.02.004-.02c.335-2.134.628-4.164.757-6.136l.003-.038-.003-.035c-.218-3.829-1.009-7.576-3.294-11.627Z"/>
    <path class="st4" d="M138.885,407.547c-.117-2.096-.831-4.182-1.881-6.237-1.078-2.108-2.573-4.243-3.684-6.414-1.029-2.065-1.807-4.269-2.309-6.615-.211-1.262-.334-2.572-.368-3.918-.035-1.346.02-2.725.168-4.12.241-1.543.62-3.045,1.096-4.538.551-1.528,1.168-3.011,1.81-4.464.446-.991,1.591-3.074,1.002-3.949-.194-.274-.47-.308-.776-.209-.653.21-1.42,1.026-1.846,1.435-1.736,1.666-3.135,3.761-4.248,5.87-.642,1.264-1.197,2.595-1.663,3.972-.47,1.365-.856,2.774-1.135,4.197-.28,1.426-.449,2.863-.507,4.31-.054,1.438.003,2.887.161,4.333.158,1.438.412,2.875.764,4.293.346,1.411.796,2.803,1.354,4.157.386.936.89,2.119,1.498,3.375.854,1.889,1.876,3.95,3.119,5.491,1.235,1.535,2.733,2.546,4.497,2.429,1.458-.083,3.043-2.059,2.948-3.399ZM512.709,359.804c-.353-1.753-1.207-3.426-2.342-5.032-1.163-1.647-2.682-3.267-3.882-4.963-1.119-1.617-2.04-3.382-2.748-5.3-.33-1.038-.593-2.129-.784-3.259-.193-1.131-.311-2.301-.357-3.496.015-1.33.155-2.643.374-3.96.283-1.355.622-2.68.987-3.984.256-.889.971-2.784.366-3.452-.194-.207-.433-.202-.678-.083-.525.257-1.073,1.038-1.382,1.433-1.264,1.615-2.19,3.551-2.874,5.465-.388,1.143-.695,2.333-.922,3.551-.231,1.208-.385,2.443-.449,3.677-.063,1.236-.032,2.47.093,3.697.129,1.219.35,2.435.659,3.635.309,1.193.696,2.375,1.163,3.527.465,1.148,1.011,2.268,1.647,3.343.438.741,1.006,1.678,1.672,2.665.947,1.49,2.059,3.104,3.293,4.254,1.23,1.144,2.614,1.817,4.088,1.504,1.22-.246,2.317-2.104,2.075-3.223ZM474.401,393.278c-.757-1.521-1.33-3.145-1.699-4.872-.156-.929-.247-1.894-.272-2.885-.024-.991.015-2.006.124-3.035.178-1.136.458-2.243.808-3.342.406-1.126.859-2.218,1.332-3.288.33-.73,1.173-2.264.738-2.909-.141-.202-.346-.226-.569-.154-.482.154-1.047.756-1.361,1.056-1.281,1.227-2.309,2.771-3.131,4.324-.472.93-.88,1.911-1.223,2.926-.348,1.005-.631,2.043-.836,3.091-.207,1.05-.332,2.109-.373,3.174-.042,1.06.001,2.127.119,3.192.116,1.059.304,2.117.561,3.161.256,1.039.588,2.065,1,3.062.284.689.655,1.561,1.102,2.486.629,1.392,1.382,2.909,2.298,4.044.909,1.131,2.013,1.875,3.312,1.789,1.074-.061,2.242-1.515,2.173-2.503-.087-1.544-.613-3.08-1.386-4.593-.795-1.554-1.897-3.125-2.715-4.725ZM145.443,454.828c-.221-1.042-.522-2.066-.903-3.064-.378-1.001-.831-1.975-1.343-2.908-.509-.943-1.076-1.841-1.697-2.678-1.072-1.392-2.344-2.741-3.814-3.736-.359-.243-1.018-.742-1.518-.812-.232-.034-.43.024-.536.247-.319.709.769,2.079,1.217,2.744.647.975,1.276,1.976,1.865,3.015.531,1.027.993,2.071,1.358,3.16.28.996.489,1.99.632,2.971.141.981.214,1.947.218,2.89-.072,1.763-.367,3.46-.856,5.09-.538,1.712-1.359,3.445-1.881,5.112-.507,1.622-.769,3.223-.594,4.759.096.986,1.494,2.225,2.563,2.103,1.295-.134,2.257-1.054,2.963-2.32.71-1.274,1.198-2.895,1.585-4.373.285-.986.503-1.909.668-2.636.238-1.052.393-2.119.47-3.188.078-1.072.087-2.146.021-3.211-.062-1.069-.199-2.126-.419-3.165Z"/>
    <path class="st3" d="M117.182,417.821s.771-2.401,1.525-4.791c.753-2.389,1.121-4.512,1.121-4.512,0,0-1.642,1.057-3.769,2.448-2.127,1.392-4.541,2.981-4.541,2.981,0,0-2.136-.886-4.511-1.906-2.185-1.144-4.302-2.523-4.302-2.523,0,0,.762,2.232,1.299,4.551.372,2.421.663,4.622.663,4.622,0,0-.633.472-1.585,1.169-.951.697-2.24,1.627-3.43,2.497-2.381,1.741-3.952,3.039-3.952,3.039,0,0,.624-.037,1.652-.141,1.028-.105,2.459-.279,4.068-.547,1.617-.249,3.19-.452,4.312-.576,1.119-.124,1.84-.199,1.84-.199,0,0,1.198,2.01,2.072,4.472.687,2.724,1.271,5.237,1.271,5.237,0,0,1.075-2.166,2.159-4.711,1.037-2.685,2.032-5.116,2.032-5.116,0,0,.7-.035,1.753-.1,1.053-.064,2.469-.136,3.895-.169,1.43-.023,2.853-.035,3.918-.041,1.064-.006,1.774-.011,1.774-.011,0,0-2.393-1.365-4.787-2.73-2.377-1.376-4.477-2.944-4.477-2.944Z"/>
    <path class="st3" d="M546.902,356.306c1.015-5.86.885-12.331-1.054-18.627-1.293-4.197-3.39-7.926-6.049-11.068-4-4.718-9.038-8.17-14.352-9.998-5.281-1.87-10.877-2.088-16.172-.212-3.532,1.251-6.623,3.346-9.173,6.05-2.552,2.706-4.537,6.001-5.879,9.67-1.339,3.667-1.981,7.676-1.769,11.738.241,4.05,1.446,8.131,3.677,12.08,2.233,3.943,5.204,7.409,8.61,10.345,3.411,2.936,7.136,5.389,10.811,7.285,3.677,1.897,7.309,3.211,10.739,3.79,1.989.34,3.898.407,5.692.181-.119.204-.236.409-.309.641-.328,1.03-.537,2.45-.223,3.534.879,3.015,3.936-1.481,3.83-3.141.32.984,1.083,2.115,1.968,2.684.149.095.42.231.728.357.435.177.945.329,1.341.317.197-.006.368-.047.479-.153.796-.759-.256-3.091-.812-4.141,1.079,1.136,6.735.516,6.969-.744.252-1.346-2.626-2.214-3.502-2.425-.902-.218-1.827-.408-2.753-.591.842-.818,1.604-1.744,2.278-2.779,2.6-3.846,4.252-9.007,4.926-14.793ZM510.634,363.026c-1.474.313-2.859-.36-4.088-1.504-1.233-1.15-2.346-2.764-3.293-4.254-.666-.986-1.235-1.923-1.672-2.665-.636-1.075-1.182-2.195-1.647-3.343-.467-1.153-.854-2.334-1.163-3.527-.309-1.2-.531-2.416-.659-3.635-.125-1.227-.156-2.46-.093-3.697.064-1.233.218-2.469.449-3.677.227-1.218.533-2.409.922-3.551.683-1.914,1.61-3.85,2.874-5.465.309-.395.858-1.177,1.382-1.433.246-.119.484-.125.678.083.605.667-.11,2.563-.366,3.452-.366,1.303-.705,2.629-.987,3.984-.219,1.317-.359,2.629-.374,3.96.045,1.195.164,2.365.357,3.496.192,1.131.454,2.221.784,3.259.708,1.918,1.629,3.682,2.748,5.3,1.199,1.697,2.719,3.316,3.882,4.963,1.135,1.607,1.989,3.279,2.342,5.032.242,1.119-.855,2.977-2.075,3.223ZM166.366,348.118c-1.899,1.143-3.662,2.159-3.662,2.159,0,0,1.881.316,4.051.551,2.265.167,4.328.363,4.328.363,0,0,.187.52.475,1.3.29.781.67,1.833,1.022,2.902.344,1.074.678,2.146.927,2.948.25.803.415,1.337.415,1.337,0,0,.483-2.12.965-4.239.496-2.11,1.198-4.054,1.198-4.054,0,0,1.989.032,3.966.054,1.976.021,3.663-.187,3.663-.187,0,0-1.174-.998-2.713-2.286-1.537-1.286-3.29-2.745-3.29-2.745,0,0,.18-1.816.406-3.843.363-1.911.921-3.825.921-3.825,0,0-1.512,1.086-3.139,2.024-1.743.834-3.338,1.559-3.338,1.559,0,0-.501-.37-1.246-.928-.744-.559-1.74-1.318-2.671-2.018-1.86-1.4-3.198-2.288-3.198-2.288,0,0,.17.463.484,1.215.314.752.773,1.793,1.344,2.945.559,1.164,1.072,2.306,1.422,3.124.349.816.571,1.343.571,1.343,0,0-1.243,1.365-2.902,2.589ZM445.442,535.427s.062-.618.159-1.544c.098-.926.24-2.169.363-3.329.25-2.313.327-3.917.327-3.917,0,0-.31.383-.796,1.037-.484.656-1.144,1.584-1.841,2.666-.714,1.077-1.43,2.101-1.951,2.822-.523.719-.862,1.178-.862,1.178,0,0-1.808-.366-3.71-1.165-1.955-1.044-3.731-2.038-3.731-2.038,0,0,.694,1.778,1.604,3.763,1.016,2.028,1.907,3.902,1.907,3.902,0,0-.351.426-.873,1.075-.522.648-1.231,1.513-1.968,2.363-.747.847-1.496,1.685-2.057,2.305-.561.628-.936,1.042-.936,1.042,0,0,2.068-.671,4.135-1.342,2.066-.656,4.095-1.049,4.095-1.049,0,0,.992,1.723,1.987,3.433.994,1.708,2.039,3.049,2.039,3.049,0,0,.252-1.518.571-3.501.315-1.98.67-4.232.67-4.232,0,0,1.654-.774,3.51-1.619,1.827-.668,3.755-1.173,3.755-1.173,0,0-1.708-.739-3.346-1.657-1.612-1.067-3.051-2.068-3.051-2.068Z"/>
    <path class="st3" d="M175.888,373.498c-3.861-6.15-9.141-10.999-15.008-14.008-5.824-3.052-12.289-4.239-18.755-2.942-4.31.865-8.251,2.784-11.664,5.501-3.416,2.719-6.271,6.216-8.44,10.256-2.168,4.037-3.581,8.588-4.013,13.342-.395,4.747.327,9.689,2.26,14.647,1.938,4.952,4.81,9.474,8.281,13.454,3.47,3.978,7.39,7.45,11.344,10.265,3.956,2.817,7.956,4.948,11.845,6.191,2.247.725,4.448,1.121,6.563,1.159-.168.215-.324.44-.446.693-.552,1.143-1.033,2.758-.846,4.07.517,3.648,4.819-1.065,4.972-3.011.207,1.197.907,2.638,1.84,3.446.171.148.503.38.886.596.416.235.892.45,1.299.522.274.047.516.032.685-.088,1.05-.75.218-3.634-.253-4.947,1.063,1.501,7.739,1.724,8.222.298.514-1.521-2.68-3.009-3.665-3.401-1.011-.403-2.056-.779-3.1-1.144,1.116-.81,2.154-1.76,3.11-2.85,3.66-4.035,6.44-9.756,8.188-16.364,2.154-6.639,3.082-14.181,1.878-21.818-.803-5.092-2.615-9.773-5.184-13.866ZM135.936,410.945c-1.764.117-3.262-.895-4.497-2.429-1.242-1.541-2.265-3.602-3.119-5.491-.608-1.256-1.112-2.439-1.498-3.375-.559-1.354-1.009-2.746-1.354-4.157-.352-1.418-.607-2.854-.764-4.293-.159-1.446-.216-2.895-.161-4.333.058-1.446.227-2.884.507-4.31.279-1.422.665-2.832,1.135-4.197.467-1.378,1.021-2.709,1.663-3.972,1.114-2.109,2.512-4.204,4.248-5.87.426-.408,1.193-1.225,1.846-1.435.305-.098.581-.064.776.209.589.875-.556,2.958-1.002,3.949-.642,1.453-1.259,2.936-1.81,4.464-.475,1.493-.855,2.995-1.096,4.538-.148,1.395-.203,2.774-.168,4.12.034,1.346.158,2.656.368,3.918.502,2.346,1.28,4.55,2.309,6.615,1.111,2.171,2.605,4.305,3.684,6.414,1.05,2.054,1.764,4.14,1.881,6.237.095,1.34-1.491,3.315-2.948,3.399ZM396.108,544.532s-.137-1.685-.267-3.566c.011-1.798.202-3.634.202-3.634,0,0-1.193,1.243-2.518,2.363-1.449,1.052-2.782,1.972-2.782,1.972,0,0-.516-.255-1.288-.636-.771-.388-1.8-.913-2.767-1.397-1.924-.963-3.29-1.551-3.29-1.551,0,0,.233.391.643,1.026.412.633,1.001,1.503,1.709,2.457.704.968,1.362,1.922,1.813,2.608.455.686.744,1.132.744,1.132,0,0-.903,1.443-2.212,2.835-1.54,1.354-2.975,2.57-2.975,2.57,0,0,1.764-.023,3.781-.169,2.087-.222,3.998-.388,3.998-.388,0,0,.256.441.646,1.105.396.663.914,1.559,1.412,2.472.494.926.975,1.841,1.332,2.527.362.694.6,1.15.6,1.15,0,0,.091-2.007.179-4.018.096-2.003.416-3.889.416-3.889,0,0,1.816-.303,3.619-.608,1.802-.308,3.305-.777,3.305-.777,0,0-1.235-.711-2.851-1.632-1.609-.913-3.449-1.952-3.449-1.952ZM444.696,323.143c.839.812,1.629,1.62,2.179,2.208.55.584.903.965.903.965,0,0-.632,1.543-1.658,3.098-1.257,1.562-2.439,2.972-2.439,2.972,0,0,1.695-.318,3.61-.791,1.975-.564,3.786-1.039,3.786-1.039,0,0,.322.384.807.956.491.574,1.139,1.351,1.771,2.148.631.808,1.243,1.612,1.702,2.214.463.607.768,1.008.768,1.008,0,0-.246-1.95-.494-3.899-.237-1.945-.245-3.815-.245-3.815,0,0,1.7-.593,3.384-1.185,1.686-.599,3.054-1.299,3.054-1.299,0,0-1.306-.48-3.014-1.098-1.705-.613-3.647-1.308-3.647-1.308,0,0-.412-1.598-.849-3.389-.288-1.735-.407-3.534-.407-3.534,0,0-.946,1.394-2.035,2.694-1.221,1.252-2.353,2.359-2.353,2.359,0,0-.538-.158-1.344-.399-.805-.244-1.885-.58-2.897-.885-2.013-.611-3.425-.949-3.425-.949,0,0,.29.339.789.883.502.539,1.214,1.283,2.054,2.086ZM190.118,324.277s-.412-1.598-.849-3.39c-.286-1.734-.407-3.533-.407-3.533,0,0-.944,1.394-2.035,2.694-1.221,1.252-2.353,2.359-2.353,2.359,0,0-.537-.158-1.344-.398-.803-.245-1.884-.58-2.897-.885-2.011-.611-3.424-.949-3.424-.949,0,0,.289.339.788.883.502.539,1.216,1.283,2.054,2.085.84.813,1.629,1.62,2.18,2.208.55.584.902.965.902.965,0,0-.63,1.543-1.658,3.099-1.256,1.561-2.438,2.972-2.438,2.972,0,0,1.695-.318,3.61-.791,1.974-.564,3.786-1.039,3.786-1.039,0,0,.32.384.806.956.492.574,1.14,1.35,1.771,2.148.631.808,1.245,1.612,1.704,2.214.463.607.768,1.007.768,1.007,0,0-.247-1.95-.496-3.899-.237-1.946-.243-3.816-.243-3.816,0,0,1.699-.593,3.383-1.185,1.685-.598,3.054-1.299,3.054-1.299,0,0-1.308-.479-3.015-1.098-1.704-.613-3.647-1.308-3.647-1.308Z"/>
    <path class="st3" d="M145.471,443.942c-2.075-2.663-4.583-4.849-7.397-6.401-2.816-1.55-5.913-2.455-9.152-2.549-4.854-.141-9.4,1.52-13.251,4.458-3.888,2.911-7.12,7.085-9.164,12.029-1.358,3.291-2.093,6.916-2.045,10.711.071,5.692,1.678,11.055,4.064,15.607,2.09,4.583,4.816,8.391,7.972,10.868.829.673,1.7,1.236,2.609,1.685-.713.396-1.424.797-2.109,1.216-.665.404-2.802,1.881-2.238,2.923.542.974,5.371-.018,5.937-1.241-.163,1.006-.346,3.213.536,3.642.085.04.184.043.289.03.381-.043.855-.383,1.207-.706.18-.164.332-.323.412-.426.547-.709.846-1.846.845-2.744.362,1.397,3.995,4.497,3.975,1.612-.028-.999-.569-2.126-1.11-2.888-.122-.174-.274-.31-.425-.446,1.536-.29,3.09-.85,4.637-1.659,2.67-1.382,5.309-3.428,7.834-5.962,2.522-2.532,4.938-5.539,6.966-8.858,2.026-3.319,3.552-6.956,4.346-10.792.789-3.841.701-7.518-.173-10.916-.902-3.4-2.492-6.527-4.565-9.191ZM145.841,461.204c-.077,1.069-.232,2.136-.47,3.188-.165.726-.383,1.649-.668,2.636-.387,1.478-.875,3.1-1.585,4.373-.706,1.266-1.668,2.187-2.963,2.32-1.068.121-2.467-1.117-2.563-2.103-.175-1.536.087-3.138.594-4.759.522-1.667,1.343-3.4,1.881-5.112.489-1.629.784-3.327.856-5.09-.004-.943-.077-1.909-.218-2.89-.143-.981-.352-1.975-.632-2.971-.366-1.09-.827-2.134-1.358-3.16-.589-1.039-1.218-2.04-1.865-3.015-.448-.665-1.536-2.035-1.217-2.744.106-.223.304-.281.536-.247.501.07,1.159.569,1.518.812,1.469.994,2.742,2.344,3.814,3.736.622.837,1.188,1.735,1.697,2.678.512.933.965,1.907,1.343,2.908.381.999.682,2.023.903,3.064.219,1.039.357,2.096.419,3.165.066,1.064.057,2.139-.021,3.211ZM515.96,504.536s1.006-1.526,2.15-3.213c1.209-1.523,2.594-2.958,2.594-2.958,0,0-1.844.26-3.72.33-1.932-.071-3.681-.171-3.681-.171,0,0-.27-.56-.671-1.402-.397-.84-.926-1.977-1.425-3.029-.995-2.103-1.766-3.513-1.766-3.513,0,0-.063.489-.138,1.301-.071.812-.149,1.947-.18,3.233-.047,1.291-.124,2.537-.194,3.425-.071.885-.121,1.455-.121,1.455,0,0-1.733.631-3.772.941-2.213.129-4.247.209-4.247.209,0,0,1.52,1.153,3.33,2.371,1.926,1.201,3.662,2.335,3.662,2.335,0,0-.077.547-.184,1.372-.107.827-.261,1.934-.446,3.044-.196,1.112-.397,2.217-.552,3.039-.151.827-.255,1.377-.255,1.377,0,0,1.415-1.649,2.827-3.301,1.42-1.637,2.947-3.032,2.947-3.032,0,0,1.745.953,3.484,1.892,1.74.941,3.332,1.541,3.332,1.541,0,0-.578-1.43-1.338-3.286-.763-1.854-1.637-3.96-1.637-3.96ZM209.343,344.5s.211-1.157.464-2.445c.332-1.207.791-2.407.791-2.407,0,0-1.027.62-2.12,1.134-1.163.445-2.226.824-2.226.824,0,0-.301-.264-.75-.659-.448-.399-1.047-.938-1.608-1.438-1.12-.996-1.931-1.635-1.931-1.635,0,0,.086.304.246.804.163.499.402,1.193.706,1.962.299.777.569,1.535.749,2.078.182.543.295.894.295.894,0,0-.869.809-1.997,1.508-1.28.634-2.465,1.193-2.465,1.193,0,0,1.192.301,2.571.567,1.445.226,2.759.46,2.759.46,0,0,.092.343.236.859.145.517.333,1.213.503,1.917.164.711.323,1.413.439,1.939.119.531.196.881.196.881,0,0,.422-1.334.845-2.67.427-1.328.982-2.539.982-2.539,0,0,1.275.125,2.542.243,1.267.118,2.361.074,2.361.074,0,0-.701-.701-1.62-1.61-.919-.906-1.967-1.935-1.967-1.935ZM181.339,454.666s-.063-.393-.156-.986c-.087-.593-.203-1.392-.315-2.134-.223-1.483-.438-2.492-.438-2.492,0,0-.13.288-.325.774-.194.489-.454,1.175-.713,1.96-.267.79-.545,1.544-.754,2.078-.207.532-.345.875-.345.875,0,0-1.184.066-2.499-.119-1.388-.333-2.657-.661-2.657-.661,0,0,.723.994,1.613,2.081.966,1.097,1.826,2.119,1.826,2.119,0,0-.148.323-.368.81-.218.492-.52,1.145-.839,1.796-.328.653-.656,1.294-.904,1.773-.248.484-.412.802-.412.802,0,0,1.178-.754,2.356-1.511,1.179-.747,2.38-1.324,2.38-1.324,0,0,.9.911,1.798,1.813.899.9,1.768,1.569,1.768,1.569,0,0-.091-.989-.216-2.275-.126-1.284-.274-2.747-.274-2.747,0,0,.902-.754,1.921-1.584,1.026-.714,2.148-1.342,2.148-1.342,0,0-1.185-.182-2.356-.484-1.178-.404-2.237-.792-2.237-.792ZM425.056,551.607s-.01-2.643.02-5.597c.24-2.805.762-5.647.762-5.647,0,0-2.018,1.791-4.223,3.38-2.391,1.463-4.584,2.734-4.584,2.734,0,0-.773-.456-1.931-1.15-1.153-.696-2.699-1.645-4.148-2.517-2.884-1.743-4.943-2.825-4.943-2.825,0,0,.315.64.876,1.682.568,1.037,1.38,2.469,2.366,4.045.982,1.594,1.89,3.16,2.514,4.29.624,1.125,1.019,1.856,1.019,1.856,0,0-1.589,2.146-3.797,4.156-2.568,1.927-4.96,3.65-4.96,3.65,0,0,2.758.177,5.917.199,3.289-.096,6.29-.121,6.29-.121,0,0,.346.726.874,1.806.536,1.084,1.236,2.545,1.902,4.033.659,1.501,1.294,2.996,1.769,4.111.481,1.125.796,1.866.796,1.866,0,0,.387-3.125.769-6.25.402-3.115,1.127-6.02,1.127-6.02,0,0,2.874-.25,5.723-.505,2.853-.262,5.255-.812,5.255-.812,0,0-1.841-1.261-4.247-2.893-2.405-1.624-5.146-3.473-5.146-3.473ZM480.792,347.165s.198-.349.492-.87c.3-.519.705-1.216,1.078-1.868.745-1.299,1.204-2.226,1.204-2.226,0,0-.281.148-.736.407-.455.263-1.086.638-1.776,1.093-.7.451-1.387.872-1.88,1.161-.494.288-.815.472-.815.472,0,0-.97-.683-1.885-1.646-.884-1.122-1.673-2.168-1.673-2.168,0,0-.05,1.227-.028,2.633.074,1.46.115,2.794.115,2.794,0,0-.317.161-.792.407-.475.25-1.119.575-1.772.886-.662.307-1.318.605-1.81.828-.494.225-.821.372-.821.372,0,0,1.392.14,2.784.279,1.387.146,2.687.44,2.687.44,0,0,.14,1.275.283,2.538.145,1.265.412,2.325.412,2.325,0,0,.542-.829,1.245-1.916.697-1.085,1.491-2.322,1.491-2.322,0,0,1.175-.031,2.488-.047,1.25.077,2.517.281,2.517.281,0,0-.817-.878-1.544-1.843-.675-1.047-1.265-2.01-1.265-2.01Z"/>
    <path class="st3" d="M509.575,387.73c-.591-3.75-1.926-7.198-3.818-10.213-2.844-4.529-6.733-8.101-11.055-10.317-4.29-2.249-9.051-3.123-13.814-2.167-3.174.637-6.077,2.05-8.59,4.052-2.516,2.002-4.62,4.578-6.218,7.553-1.595,2.974-2.637,6.326-2.953,9.828-.291,3.496.241,7.135,1.665,10.788,1.426,3.647,3.542,6.978,6.097,9.909,2.557,2.93,5.445,5.487,8.357,7.56,2.914,2.074,5.86,3.645,8.724,4.56,1.661.536,3.285.828,4.849.855-.126.16-.251.32-.343.51-.407.841-.76,2.032-.623,2.997.381,2.688,3.549-.784,3.662-2.218.153.882.668,1.943,1.354,2.538.098.084.27.207.472.332.39.241.9.484,1.286.501.139.006.266-.008.358-.074.773-.552.159-2.677-.188-3.643.782,1.105,5.699,1.269,6.056.219.38-1.12-1.975-2.216-2.699-2.506-.745-.296-1.514-.572-2.284-.842.822-.596,1.588-1.296,2.291-2.1,2.695-2.972,4.743-7.185,6.03-12.053,1.588-4.89,2.27-10.445,1.383-16.07ZM476.33,405.099c-1.299.086-2.402-.658-3.312-1.789-.915-1.136-1.668-2.653-2.298-4.044-.448-.925-.818-1.797-1.102-2.486-.412-.997-.744-2.023-1-3.062-.257-1.044-.445-2.102-.561-3.161-.117-1.065-.16-2.132-.119-3.192.042-1.065.166-2.124.373-3.174.206-1.048.488-2.086.836-3.091.343-1.015.752-1.996,1.223-2.926.822-1.554,1.85-3.097,3.131-4.324.314-.3.879-.902,1.361-1.056.223-.073.428-.048.569.154.435.645-.407,2.179-.738,2.909-.473,1.07-.926,2.162-1.332,3.288-.35,1.1-.63,2.206-.808,3.342-.108,1.028-.148,2.044-.124,3.035.025.991.116,1.956.272,2.885.368,1.728.942,3.351,1.699,4.872.818,1.6,1.921,3.171,2.715,4.725.773,1.513,1.299,3.05,1.386,4.593.069.987-1.098,2.442-2.173,2.503ZM503.263,526.108s-.048-.399-.12-.994c-.065-.595-.153-1.397-.237-2.144-.17-1.488-.347-2.507-.347-2.507,0,0-.14.285-.354.764-.211.482-.496,1.158-.783,1.932-.296.779-.6,1.523-.829,2.048-.227.527-.377.863-.377.863,0,0-1.187.025-2.493-.209-1.377-.381-2.632-.757-2.632-.757,0,0,.686,1.019,1.536,2.139.924,1.132,1.748,2.184,1.748,2.184,0,0-.16.318-.399.797-.236.482-.56,1.125-.903,1.763-.352.638-.702,1.269-.967,1.738-.266.474-.443.787-.443.787,0,0,1.206-.711,2.41-1.425,1.204-.704,2.426-1.236,2.426-1.236,0,0,.866.943,1.731,1.877.864.936,1.71,1.632,1.71,1.632,0,0-.056-.989-.134-2.28-.079-1.289-.174-2.754-.174-2.754,0,0,.929-.721,1.977-1.513,1.053-.676,2.196-1.264,2.196-1.264,0,0-1.178-.224-2.335-.57-1.164-.444-2.208-.87-2.208-.87ZM241.988,561.688s.212-1.158.464-2.446c.333-1.206.792-2.406.792-2.406,0,0-1.026.62-2.12,1.135-1.164.444-2.226.822-2.226.822,0,0-.301-.262-.752-.658-.446-.399-1.045-.938-1.608-1.438-1.119-.996-1.931-1.634-1.931-1.634,0,0,.086.303.246.802.164.502.402,1.193.706,1.962.299.779.569,1.536.75,2.078.18.545.295.895.295.895,0,0-.869.81-1.999,1.508-1.279.633-2.464,1.193-2.464,1.193,0,0,1.19.3,2.571.567,1.444.225,2.758.459,2.758.459,0,0,.093.343.236.86.146.517.333,1.211.504,1.914.164.711.322,1.415.439,1.939.117.532.195.883.195.883,0,0,.423-1.334.844-2.668.427-1.329.982-2.54.982-2.54,0,0,1.276.124,2.542.242,1.267.119,2.362.073,2.362.073,0,0-.701-.699-1.622-1.609-.918-.905-1.967-1.934-1.967-1.934ZM472.94,320.449s-.241.542-.603,1.359c-.354.822-.848,1.92-1.37,3.009-.536,1.092-1.076,2.167-1.479,2.97-.406.812-.676,1.346-.676,1.346,0,0,1.953-1.279,3.907-2.56,1.955-1.265,3.95-2.247,3.95-2.247,0,0,1.517,1.509,3.029,2.998,1.513,1.491,2.974,2.586,2.974,2.586,0,0-.165-1.643-.395-3.791-.233-2.141-.502-4.577-.502-4.577,0,0,1.493-1.272,3.18-2.671,1.704-1.211,3.561-2.277,3.561-2.277,0,0-1.981-.283-3.937-.771-1.974-.653-3.748-1.282-3.748-1.282,0,0-.11-.659-.276-1.646-.154-.988-.36-2.318-.559-3.556-.397-2.467-.773-4.152-.773-4.152,0,0-.211.486-.527,1.301-.317.818-.74,1.966-1.16,3.281-.433,1.319-.883,2.586-1.223,3.479-.338.892-.561,1.467-.561,1.467,0,0-1.976.129-4.173-.159-2.323-.53-4.445-1.057-4.445-1.057,0,0,1.221,1.644,2.725,3.447,1.628,1.815,3.081,3.503,3.081,3.503Z"/>
  </g>
  <g>
    <path class="st3" d="M405.701,484.953c-7.179,3.168-14.692,3.967-22.349,3.458-7.512-.499-14.759-2.254-21.706-5.268,8.812,7.848,19.3,11.829,31.255,13.375-14.146,4.319-40.713,1.882-65.443-17.306,3.699,7.541,18.008,18.37,31.363,23.38,12.726,4.774,25.84,6.591,39.433,4.289-3.526,2.076-7.34,3.369-11.26,4.099-48.764,9.079-97.218-28.029-95.771-80.727.557-20.281,8.809-37.155,24.924-49.836,2.416-1.901,5.189-3.35,8.56-5.493-14.421,17.489-8.745,37.71.956,47.107,10.494,10.164,25.237,10.013,40.63-.929,1.429,9.578,8.536,13.712,16.354,17.084,3.255,1.404,6.646,2.487,9.929,3.829,2.075.848,3.537,2.06,3.815,4.712.372,3.542,2.499,6.373,5.216,8.633,2.638,2.194,5.503,4.065,9.448,5.928-.948-5.128-.887-9.851-3.405-13.888-1.887-3.025-2.692-5.788-.635-8.993,1.251-1.948.539-3.764-1.176-5.604,6.645.753,12.429,2.455,17.366,7.325.347-3.746-.513-6.667-2.42-9.358-9.661-13.634-19.341-27.255-28.933-40.938-2.635-3.759-4.999-7.709-7.478-11.576-1.875-2.925-4.27-4.635-7.911-5.406-14.188-3.003-25.974-10.036-34.61-21.946-1.155-1.592-1.385-2.937-.573-4.85,1.828-4.307,1.593-8.736-.228-13.112.243,5.063-.526,9.963-1.957,14.793-.518,1.749-1.15,3.389-2.493,4.606-3.445,3.123-6.958,6.172-10.134,8.977-.046-1.378-1.298-3.261-1.975-5.824-16.602,14.733-33.063,29.181-41.485,49.912-11.576,28.494-7.024,55.234,11.716,79.275,18.817,24.14,44.378,35.944,74.525,38.47,2.795.234,5.626.031,8.292.031-7.553,4.349-30.12,4.531-45.106.397-15.072-4.158-28.465-11.376-40.047-21.861-11.612-10.513-20.495-23.006-26.643-38.38,2.015,32.182,33.064,73.295,90.713,76.174-25.187,5.505-48.119,1.193-69.72-11.475,16.914,20.098,38.599,30.469,64.863,31.757-4.455,1.277-9.077,1.786-13.705,1.92-42.059,1.216-75.302-15.554-98.267-50.624-24.063-36.748-28.071-76.495-9.524-116.394,17.403-37.438,47.448-59.099,89.723-61.49,2.757-.156,3.946-.84,4.602-3.592,2.385-10.006,8.506-17.508,16.557-23.602.414-.313.806-.681,1.566-.386-.817,5.541-.781,11.143-.012,16.752.322,2.353.701,3.757,3.801,2.904,4.245-1.168,8.691-1.275,13.02-.068,1.483.413,2.167-.081,3.041-1.268,4.129-5.606,8.406-11.103,12.929-17.03,1.805,8.497,1.802,16.478-1.14,24.297-.506,1.344-.753,2.076.601,3.081,2.438,1.808,4.397,4.163,6.254,6.559,4.802,6.198,11.081,8.916,19.647,8.111-6.054,3.32-11.51,2.867-17.011.798-4.172-1.569-7.614-4.296-10.982-7.122-5.006-4.201-10.354-7.779-16.874-9.195-1.826-.396-3.655-.849-5.694-.204,9.972,3.292,16.934,11.008,25.203,16.846-6.848-3.558-13.626-7.222-20.817-10.046,9.916,8.07,19.773,16.342,32.707,19.04,11.402,2.379,21.734.18,30.067-8.677-3.981,14.347-15.199,18.956-28.385,20.945.588,1.461,1.844,1.934,2.794,2.663,2.667,2.046,4.097,4.691,4.239,8.016.078,1.831.619,3.419,1.698,4.93,10.437,14.618,20.78,29.304,31.282,43.875,2.484,3.446,3.092,6.986,1.971,10.938-2.139,7.538-4.676,14.952-7.646,22.194-1.922,4.687-6.67,7.035-11.812,6.233-1.37-.214-2.317-.054-3.66.646-5.342,2.785-12.094,3.735-17.757-.537-4.942-3.728-8.411-8.422-9.49-14.601-.289-1.657-.827-2.496-2.534-2.939-8.553-2.22-16.603-5.54-23.752-10.906-2.559-1.921-5.653-.284-8.494-.426-1.078-.054-.533,1.081-.27,1.707,9.09,21.659,23.853,36.822,47.74,41.332,4.083.771,8.297.862,12.485.483ZM289.552,377.556c-35.693,3.959-68.254,42.608-63.835,78.58.407-2.494.721-5.086,1.263-7.63,3.092-14.528,10.596-26.606,20.668-37.294,9.594-10.18,21.747-16.801,33.29-24.284.67-.434,1.785-.454,1.801-1.759-7.102,1.978-14.021,4.246-20.525,7.691,7.933-6.642,17.262-10.76,27.337-15.305ZM271.788,523.504c-11.04-28.363-13.294-57.473-8.478-87.3-14.534,17.812-14.495,64.379.318,81.356-4.812-13.673-8.44-27.219-7.277-41.596,1.789,16.982,6.197,33.102,15.437,47.539ZM246.383,382.902c18.855-21.022,44.238-28.686,70.524-34.546-10.698-1.294-21.01.455-31.21,3.439,7.516-3.831,15.441-6.467,23.289-9.216-27.873,2.488-48.186,16.826-62.603,40.324ZM231.751,456.188c5.271-15.135,9.839-23.993,14.534-27.882-6.56,11.549-9.345,23.49-9.387,36.121,4.416-21.087,14.133-39.314,29.349-54.659-5.74,2.829-10.762,6.511-15.313,10.876,3.592-5.921,7.852-11.189,13.047-15.677-18.704,9.262-31.83,29.578-32.231,51.22ZM297.853,363.447c-22.379,1.075-39.87,10.888-52.443,29.402,14.717-14.711,33.39-22.355,52.443-29.402ZM335.809,320.986c-5.217,8.47-6.682,25.436-3.215,34.356,2.925-4.574,4.965-9.235,5.025-14.683.071-6.405-1.574-12.607-1.81-19.673ZM414.084,436.89c.996,3.815,1.261,6.96-1.428,9.577-.397.386-1.242.777-.665,1.462.622.739,1.304.182,1.907-.264,3.199-2.362,3.485-6.652.185-10.775Z"/>
    <path class="st3" d="M368.694,380.713c-.842-4.153-3.668-6.585-7.906-8.692,5.048.141,8.714,1.765,10.66,5.4,4.466,8.346,10.132,15.719,16.718,22.493-7.361-4.663-13.599-10.805-21.191-15.164,2.326,4.175,5.332,7.794,8.392,11.522-4.827-3.449-10.294-5.112-15.985-6.263-2.735-.553-4.619-2.447-5.744-4.916-.887-1.946-1.816-2.758-4.207-2.241-3.099.669-6.318.308-9.448-.961,4.482-1.171,8.292-3.778,12.562-5.286,6.221-2.196,11.453-.263,16.151,4.109Z"/>
  </g>
</svg>