<?xml version="1.0" encoding="UTF-8"?>
<svg id="Equine_Therapy_Kings_1" xmlns="http://www.w3.org/2000/svg" version="1.1" viewBox="0 0 640.919 849.332">
  <!-- Generator: Adobe Illustrator 30.3.0, SVG Export Plug-In . SVG Version: 2.1.3 Build 182)  -->
  <defs>
    <style>
      .st0, .st1, .st2 {
        fill: none;
      }

      .st3 {
        fill: #c19558;
      }

      .st1 {
        stroke-width: 8px;
      }

      .st1, .st2 {
        stroke: #c19558;
        stroke-miterlimit: 10;
      }

      .st2 {
        stroke-width: 18px;
      }

      .st4 {
        fill: #11281a;
      }
    </style>
  </defs>
  <path class="st4" d="M528.825,284.648l39.768,24.274s4.064,43.661-1.296,92.305-1.353,102.375-50.061,164.421-152.179,120.176-175.6,127.041-26.561,5.897-49.653-3.881-133.334-50.138-176.4-124.887c-43.067-74.749-45.48-123.524-49.57-170.027s-1.428-84.972-1.428-84.972c0,0,53.112-38.643,140.117-59.571,87.005-20.927,158.711-17.37,228.787,0,70.076,17.37,95.336,35.296,95.336,35.296Z"/>
  <path class="st2" d="M568.593,308.923c0,92.088,4.456,178.73-58.916,267.847-46.068,64.784-118.046,103.475-191.461,122.784-52.621-12.872-136.787-45.054-191.743-119.813-37.191-50.593-66.343-120.308-61.887-270.818,43.568-27.23,122.289-71.789,251.812-71.789,0,0,137.828-7.426,252.195,71.789Z"/>
  <path class="st3" d="M241.814,133.36c-4.294-23.492-11.62-43.953-22.482-58.604,19.198,5.81,16.712,5.125,22.482,7.246,5.77,2.12,5.384,5.012,2.493,10.988-2.892,5.976,0,14.072,10.41,13.687,10.41-.386,15.036-4.626,14.072-16.578-4.626-3.084-8.482-14.299-.578-15.342,7.904-1.043,10.988,7.246,6.747,13.8,3.855,5.783,9.446,9.831,18.892,8.867,9.446-.964,13.879-6.94,13.687-16s-2.699-9.639-13.301-12.53c11.759-13.108,22.747-31.229,22.747-31.229,0,0,14.265,22.747,19.663,31.614-7.711,1.928-13.494,5.205-11.952,13.108,1.542,7.904,7.133,15.229,16.771,15.036,9.639-.193,13.687-2.699,16-8.482-3.663-7.711-2.699-16.385,5.976-15.036,8.675,1.349,8.867,14.843,0,16.193-.964,6.361,4.048,17.542,13.687,17.157s16.964-5.398,12.916-13.687c-4.048-8.289-6.169-9.831,4.048-13.108,10.217-3.277,22.361-6.747,22.361-6.747,0,0-13.494,13.657-24.289,59.648-19.855-7.021-48.193-9.527-75.952-9.527s-49.901,3.055-74.396,9.527Z"/>
  <path class="st1" d="M244.237,143.162c32.964-8.289,86.343-14.995,145.716.62"/>
  <path class="st3" d="M316.398,818.796c-33.681,0-179.694-13.435-256.766-139.296,38.183,37.476,121.972,123.386,256.766,123.386,0,0,140.262,9.192,256.931-123.386-13.081,28.283-105.138,139.296-256.931,139.296Z"/>
  <g>
    <path class="st0" d="M59.632,663.011c38.183,37.476,121.972,123.386,256.766,123.386,0,0,140.262,9.192,256.931-123.386"/>
    <path class="st3" d="M212.92,767.817l-.824,1.746-22.702-10.715.824-1.746,3.929,1.854-1.598-26.699-5.852,2.896-7.831,16.59,4.366,2.061-.824,1.747-21.829-10.304.824-1.746,4.366,2.061,21.431-45.404-4.366-2.061.825-1.746,21.829,10.303-.824,1.747-4.366-2.062-12.158,25.759,32.415-16.197-8.033-3.791.824-1.746,17.812,8.407-.824,1.746-7.422-3.503-16.485,8.234,2.738,40.797,3.754,1.771Z"/>
    <path class="st3" d="M257.408,780.96l-23.481-5.594.448-1.878,4.696,1.118,11.635-48.841-4.696-1.118.447-1.879,23.481,5.594-.447,1.879-4.696-1.119-11.635,48.841,4.696,1.119-.447,1.878Z"/>
    <path class="st3" d="M288.194,783.786l7.721.222-.055,1.931-15.442-.444.056-1.931,5.791.167,1.322-45.94c-1.979-2.89-3.868-4.361-5.668-4.413l.055-1.931,18.048.52,26.196,32.919.869-30.209-7.721-.222.055-1.931,16.407.473-.055,1.93-6.756-.194-1.527,53.083-1.93-.056-36.112-47.501-1.252,43.528Z"/>
    <path class="st3" d="M402.9,770.648c-1.041-.782-2.205-1.024-3.489-.727-1.286.299-2.479,1.139-3.579,2.517-1.101,1.381-2.416,2.826-3.948,4.338-1.532,1.511-3.553,2.56-6.06,3.143-8.528,1.98-15.637,1.32-21.327-1.984-5.691-3.303-9.592-9.501-11.705-18.593-4.414-18.998,2.251-30.558,19.995-34.68,3.198-.743,6.655-.72,10.375.067,3.717.789,5.954,1.095,6.706.92.752-.175,1.288-.711,1.608-1.612.319-.899.392-1.727.217-2.479l1.787-.415,4.436,19.092-1.881.438c-1.107-4.765-3.964-8.596-8.567-11.49-4.605-2.896-9.352-3.775-14.243-2.639-3.762.874-6.146,3.559-7.149,8.055-1.005,4.495-.425,11.398,1.738,20.709,2.164,9.311,4.677,15.65,7.541,19.015,2.863,3.367,6.207,4.604,10.032,3.716,6.019-1.398,7.783-7.458,5.292-18.18l-1.617-6.959-5.925,1.376-.437-1.881,22.572-5.244.437,1.881-4.42,1.027,5.463,23.512-1.787.415c-.335-1.441-1.024-2.553-2.064-3.336Z"/>
    <path class="st3" d="M437.058,762.443l-1.742.833-9.708-20.294,1.742-.834c2.611,5.459,6.793,9.166,12.546,11.124,5.752,1.957,11.445,1.589,17.078-1.106,2.322-1.11,3.868-2.688,4.639-4.734.77-2.044.613-4.199-.47-6.464-1.222-2.555-3.918-3.94-8.09-4.158-2.244-.066-6.053-.047-11.424.061-5.372.107-9.291-.104-11.757-.637-4.935-1.065-8.28-3.995-10.039-8.791-1.758-4.795-1.733-9.179.078-13.149,1.811-3.97,4.618-6.865,8.422-8.685,3.802-1.819,7.473-2.949,11.007-3.393,3.535-.441,5.505-.76,5.912-.955,1.161-.555,1.256-1.849.284-3.882l1.742-.833,7.625,15.939-1.742.833c-2-4.181-5.17-6.854-9.512-8.025-4.342-1.169-8.922-.603-13.741,1.703-2.149,1.028-3.534,2.458-4.156,4.289-.622,1.833-.572,3.504.15,5.013.723,1.511,1.481,2.574,2.276,3.192.795.62,1.861,1.02,3.196,1.2,1.335.183,2.478.296,3.428.341.948.046,2.418.021,4.406-.074,1.988-.096,3.371-.149,4.149-.166,3.887-.075,6.185-.122,6.891-.139.705-.016,1.749.003,3.13.055,1.38.054,2.458.181,3.232.38.774.202,1.763.441,2.967.722,1.204.28,2.183.687,2.937,1.217.753.533,1.556,1.166,2.407,1.899,1.702,1.471,3.034,3.509,3.996,6.115,1.785,4.927,1.745,9.353-.124,13.278s-5.386,7.125-10.554,9.598c-4.646,2.223-9.832,3.24-15.557,3.054-1.957-.062-3.313.087-4.067.447-2.149,1.028-2.667,2.704-1.556,5.026Z"/>
  </g>
  <g>
    <path class="st0" d="M-46.328,413.726c26.662-93.565,110.913-142.179,110.913-142.179,43.568-27.23,122.289-71.789,251.812-71.789,0,0,137.828-7.426,252.195,71.789,0,0,44.12,15.412,84.945,128.494"/>
    <path class="st3" d="M70.88,265.825c6.538-4.059,7.507-9.791,2.908-17.202l1.308-.812,7.711,12.422-30.728,19.075-.812-1.308,3.269-2.029-21.104-33.997-3.269,2.029-.812-1.308,30.074-18.669,6.899,11.114-1.308.812c-2.408-3.879-4.798-6.003-7.17-6.372-2.373-.369-5.281.516-8.724,2.652l-5.884,3.652,9.74,15.691,2.615-1.624c3.138-1.947,4.877-3.57,5.219-4.869.34-1.299-.219-3.125-1.68-5.479l1.308-.812,8.117,13.075-1.308.812c-1.515-2.44-2.917-3.773-4.205-4.001-1.289-.227-3.501.634-6.64,2.581l-2.615,1.624,10.552,16.998,6.538-4.059Z"/>
    <path class="st3" d="M116.424,250.404c4.848-1.154,8.508-2.355,10.981-3.604,2.473-1.248,4.05-2.705,4.732-4.371.681-1.667.618-3.301-.191-4.903l1.374-.693c2.658,5.266,3.942,9.574,3.853,12.924-.091,3.35-2.014,5.974-5.768,7.869-3.16,1.596-6.968,1.794-11.423.595-1.861-.497-3.722-.995-5.581-1.492-4.456-1.198-8.195-1.035-11.217.491-1.923.971-3.511,2.777-4.762,5.421l-1.38-.854c.817-2.022,1.792-3.678,2.923-4.967,1.13-1.29,1.947-2.177,2.45-2.659.663-.737,1.977-1.946,3.944-3.629,6.652-6.289,6.995-15.342,1.03-27.157-3.098-6.136-6.43-10.315-9.994-12.539-3.565-2.222-6.802-2.6-9.709-1.132-2.909,1.469-4.417,4.256-4.527,8.362-.111,4.107,1.256,8.978,4.1,14.61,2.844,5.633,5.79,9.619,8.839,11.959,3.048,2.34,6.039,2.77,8.97,1.29l.694,1.374c-6.183,3.121-11.834,4.05-16.955,2.784-5.121-1.264-9.185-4.874-12.19-10.827-3.005-5.953-3.58-11.812-1.72-17.579,1.858-5.766,5.902-10.221,12.13-13.365,6.228-3.144,12.306-3.799,18.232-1.964,5.926,1.836,10.358,5.662,13.294,11.478,1.711,3.39,2.561,6.81,2.552,10.263-.01,3.453-.8,6.754-2.37,9.902-3.119,6.23-8.179,11.916-15.179,17.06l.139.275c3.639-2.126,7.883-3.765,12.731-4.92Z"/>
    <path class="st3" d="M162.636,203.732c4.619,12.459,1.684,20.632-8.802,24.519-5.821,2.158-10.919,2.353-15.295.582-4.377-1.77-7.679-5.66-9.908-11.674l-8.185-22.079-3.608,1.338-.535-1.443,18.76-6.954.535,1.443-3.607,1.337,8.479,22.872c3.727,10.055,8.957,13.832,15.692,11.336,2.742-1.017,4.728-3.298,5.957-6.845,1.229-3.547.979-7.653-.75-12.319l-8.452-22.801-5.7,2.113-.535-1.443,11.111-4.119.535,1.443-3.608,1.337,7.917,21.357Z"/>
    <path class="st3" d="M194.213,214.424l-18.524,5.19-.415-1.482,3.705-1.038-10.796-38.53-3.705,1.038-.415-1.482,18.524-5.19.416,1.482-3.705,1.038,10.796,38.53,3.705-1.038.416,1.482Z"/>
    <path class="st3" d="M203.425,210.429l6.039-1.193.298,1.51-12.079,2.387-.298-1.51,4.53-.896-7.099-35.934c-2.049-1.896-3.777-2.705-5.186-2.427l-.298-1.51,14.117-2.789,26.179,20.948-4.667-23.629-6.04,1.192-.298-1.51,12.834-2.535.298,1.51-5.284,1.044,8.202,41.521-1.51.299-36.464-30.525,6.726,34.047Z"/>
    <path class="st3" d="M266.172,200.518c7.653-.805,11.024-5.543,10.112-14.217l1.531-.161,1.528,14.541-35.969,3.78-.161-1.53,3.826-.402-4.183-39.795-3.827.402-.161-1.53,35.203-3.701,1.368,13.01-1.53.161c-.478-4.54-1.704-7.493-3.678-8.859-1.975-1.365-4.979-1.837-9.008-1.413l-6.887.724,1.931,18.367,3.061-.321c3.673-.387,5.946-1.09,6.819-2.11.872-1.02,1.165-2.907.875-5.662l1.53-.161,1.609,15.306-1.531.161c-.3-2.857-.981-4.668-2.042-5.434-1.061-.766-3.427-.955-7.101-.569l-3.062.321,2.092,19.898,7.653-.805Z"/>
    <path class="st3" d="M338.057,169.205c-.105-4.564-.933-7.611-2.481-9.142-1.549-1.528-4.4-2.246-8.555-2.15l-2.308.053.92,40.004,5.385-.124.035,1.539-22.31.513-.036-1.538,5.385-.124-.92-40.004-2.308.053c-4.104.095-6.894.941-8.37,2.54-1.478,1.601-2.163,4.682-2.058,9.246l-1.539.035-.301-13.078,40.696-.937.301,13.078-1.539.036Z"/>
    <path class="st3" d="M392.387,162.328l-3.831-.36-3.747,39.839,3.831.36-.144,1.532-19.153-1.802.144-1.532,3.831.36,1.931-20.532-15.093-1.42-1.931,20.532,3.831.36-.144,1.532-19.153-1.802.144-1.532,3.831.36,3.747-39.838-3.831-.36.144-1.532,19.153,1.801-.144,1.532-3.831-.36-1.672,17.774,15.093,1.42,1.672-17.774-3.831-.36.145-1.532,19.153,1.802-.144,1.532Z"/>
    <path class="st3" d="M415.71,207.283c7.562,1.421,12.149-2.153,13.76-10.725l1.513.284-2.7,14.369-35.545-6.68.284-1.513,3.782.711,7.39-39.326-3.781-.711.284-1.513,34.789,6.538-2.416,12.856-1.513-.284c.843-4.487.514-7.668-.986-9.542-1.501-1.874-4.244-3.186-8.226-3.935l-6.806-1.278-3.411,18.15,3.025.568c3.63.682,6.009.659,7.138-.068,1.128-.728,1.949-2.452,2.46-5.175l1.512.284-2.842,15.125-1.512-.284c.53-2.822.396-4.753-.399-5.79-.797-1.037-3.011-1.897-6.641-2.579l-3.025-.568-3.695,19.663,7.563,1.421Z"/>
    <path class="st3" d="M475.77,225.241l-3.254-.934c-6.165-1.769-10.072-4.331-11.724-7.688-1.329-2.623-1.851-5.734-1.564-9.335.115-1.515.168-2.914.164-4.196-.025-2.889-1.246-4.681-3.662-5.374l-3.254-.934-5.137,17.899,3.698,1.062-.424,1.479-18.492-5.307.425-1.479,3.698,1.062,11.037-38.462-3.698-1.062.425-1.479,19.453,5.583c12.574,3.608,17.807,9.086,15.699,16.433-.835,2.91-2.575,4.973-5.218,6.188-2.645,1.216-5.619,1.35-8.921.401l-.148.519c4.93,1.414,7.424,5.652,7.479,12.714-.004,3.734.29,6.475.884,8.219.593,1.745,1.58,2.815,2.961,3.212l-.425,1.479ZM458.376,176.219l-5.477,19.083c4.93,1.415,8.439,1.649,10.527.699,2.086-.948,3.611-3.099,4.574-6.453.962-3.353.807-6.065-.466-8.139-1.274-2.073-4.326-3.804-9.158-5.19Z"/>
    <path class="st3" d="M521.174,241.357l-.586,1.423-18.713-7.707.586-1.423,4.198,1.729-.694-11.854-14.373-5.919-8.2,8.19,5.621,2.314-.586,1.424-12.167-5.012.586-1.423,4.767,1.963,32.412-32.422,1.779.732,1.955,46.577,3.416,1.406ZM492.848,216.376l13.021,5.362-.995-17.387-12.026,12.024Z"/>
    <path class="st3" d="M540.269,252.101l-.748,1.346-16.815-9.346.748-1.345,3.363,1.869,19.438-34.976-3.363-1.869.748-1.346,13.385,7.439c13.532,6.699,17.768,14.6,12.709,23.702-2.243,4.036-5.61,6.186-10.099,6.448-4.491.264-9.899-1.568-16.226-5.496l-6.504,11.703,3.363,1.869ZM556.344,215.257l-12.187,21.928c3.676,2.043,6.63,2.644,8.86,1.799,2.229-.844,4.454-3.261,6.672-7.253,2.218-3.99,3.134-7.223,2.749-9.697-.386-2.473-2.418-4.732-6.094-6.776Z"/>
    <path class="st3" d="M585.258,281.944l-14.636-9.951.866-1.272,2.545,1.73,9.129-13.427,1.979-27.408-3.309-2.25.865-1.272,17.818,12.114-.865,1.273-3.118-2.12-1.994,22.093,19.176-10.411-5.091-3.462.865-1.272,11.136,7.571-.865,1.273-4.455-3.029-21.428,11.672-10.297,15.146,2.545,1.73-.865,1.272Z"/>
  </g>
  <path class="st3" d="M295.231,602.808c-9.497-17.533-20.525-23.953-39.636-37.058-19.111-13.104-33.671-23.843-48.05-54.966,1.274,8.736,6.37,24.935,19.111,40.769,12.74,15.835,12.376,15.107,17.837,20.385-14.561-3.822-36.947-24.207-48.05-42.044-11.102-17.837-20.931-51.69-13.833-85.361,7.098-33.671,20.931-70.255,67.706-89.365-10.738-.546-32.397,6.552-58.06,30.577,10.738-17.473,32.033-41.134,75.715-52.6,43.682-11.466,78.627-5.642,87.181-1.274,8.554,4.368,19.111,10.374,19.111,10.374,0,0-4.914-5.642-12.376-11.466,10.01-10.01,22.751-16.563,37.311-22.387-7.28,12.922-9.1,18.929-14.561,38.039,13.833-22.387,28.575-31.851,43.318-39.313-6.188,9.646-12.194,20.567-15.653,48.596,12.376,6.916,30.759,23.479,24.571,59.698-5.46-16.381-12.376-30.031-24.207-32.761,9.646,14.743,16.451,28.111,16.591,36.503.14,8.392-.42,17.063,2.378,27.832,2.797,10.769,3.776,11.469.28,15.804-3.497,4.336-7.273,7.413-10.35,8.671-3.077,1.259-3.636-1.538-5.455-7.133-1.818-5.594-2.098-7.413-7.832-6.853,1.818,10.769,3.077,29.091,3.636,33.706.559,4.615-2.098,8.392-5.874,5.315-4.196,5.035-4.196,6.853-8.671,6.434-8.811,6.014-28.112,17.343-28.112,17.343,0,0,2.098-13.566-6.573-20.979-8.671-7.413-13.007-9.65-17.203-19.72-4.196-10.07-6.014-13.986-9.231-14.546-3.217-.559-3.776-2.657-3.776-6.294s3.217-5.026,11.189-3.772,17.762.834,17.762-4.2-.227-7.101,1.402-7.834c1.629-.733,1.792-2.851-.244-5.131,1.14-1.71,1.629-3.421.163-8.064,4.48-.489,8.634-1.385,4.968-6.76-3.665-5.376-6.353-8.145-5.05-13.928,8.797-.081,21.91-3.747,22.317-10.507-9.448-.163-19.467-1.466-19.467-1.466,0,0-8.727-32.73-43.059-32.73-17.166,0-42.264,11.964-42.264,40.443,0,12.874,2.731,24.113,3.641,27.987.91,3.874,3.511,7.255,7.022,8.945.39,5.592-.39,15.345-4.812,17.296s-6.112,4.161-12.094,15.865c-5.982,11.704-10.534,22.758-10.534,28.089s.91,24.838,2.601,35.372c9.493,14.305,28.776,40.246,29.213,64.468Z"/>
  <path class="st3" d="M390.327,553.378c15.912-12.928,25.983-23.266,25.983-23.266,0,0-.885-7.083,3.795-11.131,1.012-6.957,1.644-8.222,10.625-14.546,8.981-6.324,9.992-7.463,12.902-10.625,6.957,19.353,7.21,19.985,9.107,24.918s1.771,8.475-1.391,15.431c-3.162,6.957-7.336,14.925-15.684,23.653h-20.744l-9.107-9.107,1.012,7.969s-11.997.491-16.497-3.296Z"/>
</svg>