<?xml version="1.0" encoding="UTF-8"?>
<svg id="Photography_Kings" xmlns="http://www.w3.org/2000/svg" version="1.1" viewBox="0 0 640.919 849.332">
  <!-- Generator: Adobe Illustrator 30.3.0, SVG Export Plug-In . SVG Version: 2.1.3 Build 182)  -->
  <defs>
    <style>
      .st0, .st1, .st2 {
        fill: none;
      }

      .st3 {
        fill: #c19558;
      }

      .st1 {
        stroke-width: 8px;
      }

      .st1, .st2 {
        stroke: #c19558;
        stroke-miterlimit: 10;
      }

      .st2 {
        stroke-width: 18px;
      }

      .st4 {
        fill: #11281a;
      }
    </style>
  </defs>
  <path class="st4" d="M466.608,245.526c27.736,10.233,111.747,52.086,111.747,52.086,0,0,5.026,50.416,0,92.068-5.026,41.652-7.48,111.323-41.991,151.366-34.511,40.043-42.228,89.974-102.252,119.345-60.023,29.371-114.727,41.256-114.727,41.256,0,0-95.99-16.291-166.03-95.593-70.039-79.302-85.899-142.208-91.333-210.982s0-104.756,0-104.756c0,0,64.616-36.714,135.841-55.071,71.225-18.357,193.114-17.623,268.745,10.28Z"/>
  <path class="st2" d="M578.355,297.612c0,95.248,4.609,184.863-60.938,277.038-47.649,67.007-122.097,107.026-198.032,126.997-54.427-13.314-141.481-46.6-198.323-123.925-38.467-52.329-68.619-124.437-64.011-280.111,45.064-28.165,126.485-74.252,260.453-74.252,0,0,142.558-7.681,260.85,74.252Z"/>
  <path class="st3" d="M240.361,116.025c-4.442-24.298-12.019-45.462-23.253-60.615,19.857,6.009,17.285,5.301,23.253,7.495,5.968,2.193,5.569,5.184,2.578,11.365-2.991,6.181,0,14.555,10.767,14.156,10.767-.399,15.552-4.785,14.555-17.147-4.785-3.19-8.773-14.79-.598-15.869,8.175-1.079,11.365,7.495,6.978,14.274,3.988,5.982,9.77,10.169,19.54,9.172,9.77-.997,14.356-7.178,14.156-16.549s-2.791-9.969-13.758-12.96c12.163-13.558,23.527-32.3,23.527-32.3,0,0,14.755,23.527,20.337,32.699-7.975,1.994-13.957,5.383-12.362,13.558,1.595,8.175,7.377,15.751,17.347,15.552,9.969-.199,14.156-2.791,16.549-8.773-3.788-7.975-2.791-16.948,6.181-15.552,8.972,1.396,9.172,15.353,0,16.748-.997,6.58,4.187,18.144,14.156,17.745,9.969-.399,17.546-5.583,13.359-14.156-4.187-8.574-6.38-10.169,4.187-13.558,10.567-3.39,23.129-6.978,23.129-6.978,0,0-13.957,14.126-25.123,61.694-20.537-7.262-49.846-9.854-78.558-9.854s-51.613,3.159-76.949,9.854Z"/>
  <path class="st1" d="M242.868,126.163c34.095-8.574,89.306-15.509,150.717.641"/>
  <path class="st3" d="M317.505,824.982c-34.837,0-185.86-13.896-265.577-144.076,39.493,38.762,126.158,127.62,265.577,127.62,0,0,145.075,9.508,265.748-127.62-13.53,29.254-108.746,144.076-265.748,144.076Z"/>
  <g>
    <path class="st0" d="M51.928,663.851c39.493,38.762,126.158,127.62,265.577,127.62,0,0,145.075,9.508,265.748-127.62"/>
    <path class="st3" d="M210.514,772.267l-.852,1.807-23.482-11.08.852-1.807,4.064,1.918-1.656-27.615-6.052,2.997-8.097,17.16,4.516,2.131-.852,1.807-22.579-10.654.852-1.807,4.516,2.131,22.161-46.965-4.516-2.131.852-1.807,22.579,10.654-.852,1.807-4.516-2.131-12.572,26.644,33.526-16.757-8.309-3.92.852-1.807,18.425,8.693-.852,1.807-7.677-3.622-17.05,8.519,2.837,42.196,3.884,1.832Z"/>
    <path class="st3" d="M256.579,785.864l-24.289-5.778.462-1.943,4.858,1.156,12.02-50.521-4.858-1.155.462-1.943,24.289,5.779-.462,1.942-4.858-1.155-12.02,50.521,4.858,1.155-.462,1.943Z"/>
    <path class="st3" d="M288.458,788.782l7.986.227-.057,1.996-15.972-.453.057-1.996,5.99.17,1.349-47.518c-2.048-2.988-4.003-4.51-5.865-4.562l.057-1.996,18.668.529,27.108,34.038.887-31.245-7.986-.227.057-1.997,16.97.482-.057,1.996-6.988-.198-1.558,54.904-1.997-.057-37.37-49.116-1.278,45.022Z"/>
    <path class="st3" d="M407.248,775.102c-1.078-.808-2.281-1.058-3.61-.747-1.33.31-2.563,1.179-3.699,2.605-1.138,1.429-2.497,2.925-4.08,4.489s-3.673,2.651-6.265,3.256c-8.818,2.057-16.172,1.379-22.06-2.034-5.889-3.41-9.929-9.818-12.122-19.22-4.582-19.646,2.302-31.608,20.651-35.888,3.307-.771,6.883-.75,10.73.062,3.846.812,6.159,1.127,6.937.945s1.331-.736,1.662-1.669c.329-.931.404-1.786.222-2.564l1.848-.431,4.604,19.743-1.945.453c-1.149-4.927-4.107-8.887-8.871-11.877-4.766-2.991-9.676-3.896-14.734-2.717-3.89.907-6.354,3.687-7.388,8.337-1.035,4.65-.429,11.79,1.816,21.419,2.245,9.628,4.851,16.183,7.815,19.66,2.965,3.479,6.424,4.758,10.38,3.835,6.224-1.451,8.044-7.721,5.458-18.809l-1.678-7.196-6.127,1.429-.454-1.945,23.342-5.443.454,1.945-4.571,1.065,5.67,24.314-1.848.432c-.348-1.491-1.061-2.641-2.138-3.45Z"/>
    <path class="st3" d="M442.617,766.567l-1.801.863-10.061-20.981,1.801-.863c2.706,5.644,7.035,9.474,12.987,11.493,5.952,2.019,11.839,1.632,17.663-1.16,2.4-1.151,3.998-2.784,4.793-4.901.794-2.115.63-4.345-.493-6.687-1.266-2.641-4.057-4.071-8.371-4.292-2.322-.066-6.261-.043-11.816.073-5.556.116-9.61-.099-12.161-.647-5.105-1.097-8.568-4.124-10.392-9.083-1.823-4.958-1.802-9.492.068-13.601,1.869-4.107,4.77-7.104,8.702-8.99,3.931-1.886,7.726-3.059,11.381-3.52,3.656-.461,5.693-.792,6.114-.994,1.2-.575,1.298-1.913.29-4.015l1.801-.864,7.902,16.479-1.801.863c-2.073-4.322-5.355-7.085-9.846-8.292-4.492-1.205-9.229-.614-14.211,1.775-2.222,1.065-3.652,2.546-4.294,4.44-.641,1.896-.588,3.624.16,5.185.749,1.562,1.534,2.661,2.358,3.299.823.641,1.926,1.054,3.307,1.238,1.381.188,2.563.305,3.545.35.981.047,2.501.019,4.557-.081,2.056-.101,3.486-.157,4.291-.175,4.021-.082,6.397-.133,7.127-.15.729-.018,1.809,0,3.238.054,1.428.054,2.542.184,3.344.39.801.208,1.824.455,3.07.743,1.246.289,2.259.708,3.039,1.256.78.551,1.61,1.204,2.491,1.962,1.762,1.52,3.141,3.627,4.139,6.322,1.851,5.094,1.813,9.671-.115,13.733s-5.564,7.375-10.907,9.938c-4.804,2.303-10.167,3.36-16.088,3.173-2.024-.062-3.427.093-4.207.467-2.222,1.065-2.756,2.8-1.605,5.2Z"/>
  </g>
  <g>
    <path class="st0" d="M-57.668,417.382c27.576-96.776,114.719-147.058,114.719-147.058,45.064-28.165,126.485-74.252,260.453-74.252,0,0,142.558-7.681,260.85,74.252,0,0,45.634,15.94,87.86,132.903"/>
    <path class="st3" d="M77.76,255.881l.85,1.479-18.484,10.623-.85-1.479,3.697-2.124-22.095-38.447-3.697,2.124-.85-1.479,14.713-8.455c14.095-9.018,24.018-8.524,29.768,1.481,2.549,4.437,2.666,8.861.35,13.273-2.317,4.414-7.148,8.502-14.493,12.264l7.393,12.864,3.697-2.124ZM51.968,219.558l13.852,24.104c4.041-2.322,6.3-4.783,6.773-7.384.474-2.599-.55-6.092-3.072-10.479-2.521-4.387-5.066-7.104-7.636-8.152-2.569-1.047-5.876-.41-9.917,1.912Z"/>
    <path class="st3" d="M127.841,182.435l-3.903,1.716,17.845,40.595,3.903-1.716.686,1.562-19.517,8.579-.686-1.562,3.903-1.716-9.197-20.922-15.379,6.761,9.197,20.922,3.903-1.716.686,1.562-19.517,8.579-.686-1.562,3.903-1.716-17.845-40.595-3.903,1.716-.686-1.562,19.517-8.579.686,1.562-3.903,1.716,7.962,18.111,15.379-6.761-7.962-18.111-3.903,1.716-.686-1.562,19.517-8.579.686,1.562Z"/>
    <path class="st3" d="M189.615,186.837c2.264,7.482,1.802,13.903-1.387,19.264-3.189,5.36-8.321,9.11-15.394,11.251-7.074,2.141-13.393,1.87-18.956-.812-5.564-2.682-9.477-7.764-11.741-15.246-2.264-7.48-1.879-14.057,1.158-19.729,3.036-5.67,8.158-9.596,15.369-11.778,7.209-2.182,13.604-1.756,19.186,1.277,5.58,3.034,9.503,8.292,11.767,15.773ZM168.594,174.933c-3.054-3.321-6.228-4.485-9.52-3.489-3.293.997-5.298,3.742-6.016,8.235-.72,4.495-.016,10.251,2.108,17.271,2.124,7.02,4.673,12.159,7.649,15.415,2.975,3.258,6.177,4.368,9.605,3.33,7.073-2.14,8.38-10.583,3.917-25.33-2.108-6.965-4.689-12.108-7.743-15.432Z"/>
    <path class="st3" d="M234.921,168.268c-.937-4.972-2.391-8.154-4.359-9.549-1.97-1.393-5.216-1.664-9.742-.811l-2.514.474,8.212,43.576,5.866-1.104.316,1.676-24.302,4.579-.316-1.676,5.866-1.105-8.212-43.577-2.514.475c-4.47.842-7.368,2.271-8.695,4.285-1.327,2.015-1.522,5.508-.585,10.479l-1.676.316-2.685-14.247,44.331-8.354,2.685,14.246-1.676.316Z"/>
    <path class="st3" d="M292.249,172.559c.679,7.788-1.093,13.978-5.315,18.568-4.222,4.592-10.016,7.207-17.378,7.849-7.363.642-13.491-.922-18.385-4.689-4.895-3.768-7.68-9.545-8.359-17.333-.679-7.787,1.049-14.144,5.186-19.07,4.136-4.925,9.955-7.716,17.461-8.369,7.504-.654,13.675,1.076,18.514,5.191,4.838,4.115,7.597,10.067,8.276,17.854ZM274.122,156.592c-2.307-3.878-5.174-5.67-8.6-5.371-3.427.299-5.954,2.573-7.58,6.824-1.628,4.25-2.122,10.028-1.485,17.335.637,7.306,2.076,12.859,4.319,16.657,2.242,3.8,5.148,5.544,8.716,5.232,7.362-.642,10.375-8.636,9.038-23.984-.632-7.249-2.101-12.813-4.408-16.693Z"/>
    <path class="st3" d="M338.234,192.245c-.761-.862-1.724-1.279-2.888-1.251-1.166.028-2.347.541-3.545,1.537-1.199.997-2.595,2.012-4.19,3.045-1.595,1.034-3.531,1.58-5.803,1.636-7.73.189-13.761-1.653-18.092-5.528-4.332-3.874-6.598-9.932-6.8-18.173-.422-17.221,7.409-26.028,23.493-26.423,2.899-.07,5.885.567,8.961,1.913,3.075,1.347,4.954,2.012,5.636,1.994.682-.017,1.241-.385,1.679-1.107.437-.721.648-1.423.631-2.104l1.62-.04.424,17.306-1.705.042c-.106-4.318-1.892-8.143-5.357-11.47-3.466-3.327-7.414-4.937-11.847-4.828-3.41.084-5.952,1.98-7.623,5.689-1.672,3.709-2.405,9.783-2.198,18.223.207,8.44,1.248,14.372,3.123,17.794,1.875,3.424,4.546,5.093,8.013,5.008,5.456-.134,8.065-5.061,7.827-14.778l-.155-6.309-5.371.131-.042-1.705,20.46-.501.042,1.705-4.007.098.522,21.313-1.62.039c-.032-1.307-.429-2.391-1.189-3.255Z"/>
    <path class="st3" d="M398.047,201.773l-3.733-.379c-7.071-.718-11.837-2.745-14.297-6.081-1.965-2.599-3.145-5.891-3.54-9.873-.173-1.675-.389-3.211-.646-4.609-.595-3.146-2.279-4.859-5.049-5.141l-3.733-.379-2.085,20.531,4.242.431-.172,1.696-21.21-2.153.172-1.697,4.242.431,4.48-44.116-4.242-.432.172-1.696,22.313,2.266c14.423,1.465,21.206,6.411,20.35,14.838-.339,3.338-1.832,5.93-4.475,7.774-2.645,1.847-5.863,2.576-9.651,2.191l-.06.594c5.655.574,9.208,4.707,10.656,12.396.729,4.075,1.588,7.005,2.579,8.791.989,1.786,2.276,2.76,3.861,2.92l-.172,1.697ZM369.444,151.725l-2.223,21.889c5.655.574,9.528.14,11.619-1.306,2.089-1.445,3.33-4.09,3.72-7.937.391-3.846-.313-6.774-2.108-8.786-1.797-2.011-5.466-3.298-11.008-3.86Z"/>
    <path class="st3" d="M450.828,210.133l-.348,1.67-21.955-4.582.348-1.67,4.925,1.028-3.172-12.771-16.863-3.519-7.263,10.593,6.595,1.376-.348,1.67-14.275-2.979.348-1.669,5.593,1.167,28.698-41.924,2.087.436,11.623,50.338,4.007.836ZM414.881,188.693l15.276,3.188-4.627-18.736-10.649,15.549Z"/>
    <path class="st3" d="M474.045,217.699l-.521,1.623-20.3-6.514.521-1.624,4.06,1.303,13.549-42.223-4.06-1.303.521-1.624,16.158,5.185c16.158,4.35,22.474,12.019,18.948,23.007-1.563,4.872-4.757,7.938-9.578,9.196-4.823,1.26-11.098.439-18.825-2.458l-4.534,14.128,4.06,1.304ZM483.534,174.173l-8.494,26.471c4.438,1.424,7.778,1.437,10.019.035,2.24-1.399,4.134-4.509,5.68-9.327,1.546-4.817,1.841-8.528.886-11.135-.955-2.604-3.653-4.62-8.091-6.044Z"/>
    <path class="st3" d="M562.137,205.904l-3.88-1.77-18.399,40.347,3.88,1.769-.708,1.552-19.397-8.846.708-1.552,3.88,1.77,9.483-20.794-15.285-6.971-9.483,20.794,3.88,1.77-.708,1.552-19.397-8.846.708-1.552,3.879,1.77,18.399-40.347-3.879-1.77.708-1.552,19.397,8.846-.708,1.552-3.88-1.77-8.209,18.001,15.285,6.971,8.209-18.001-3.88-1.769.708-1.552,19.397,8.846-.708,1.552Z"/>
    <path class="st3" d="M574.856,267.746l-16.57-10.494.912-1.44,2.882,1.825,9.627-15.202,1.202-30.429-3.746-2.372.912-1.441,20.173,12.775-.912,1.44-3.53-2.235-1.411,24.543,20.863-12.225-5.764-3.649.912-1.441,12.608,7.984-.912,1.44-5.043-3.193-23.312,13.701-10.858,17.147,2.882,1.824-.912,1.441Z"/>
  </g>
  <g>
    <path class="st3" d="M415.216,328.474s3.419-9.2,6.216-15.229c-9.759,3.294-17.032,5.719-29.339,7.646-5.097-8.329-12.618-11.064-25.112-11.997,12.059,3.543,16.845,14.483,16.845,14.483,0,0-.214.715-2.142,2.322-3.642-5.57-7.605-8.997-17.351-13.281-9.747-4.284-20.243-4.177-40.7-3.32-20.457.857-31.275-2.142-41.129-6.426,12.424,13.281,32.667,13.924,51.197,14.674-3.642,1.821-16.066,2.785-16.066,2.785,0,0-13.495-1.285-23.135-1.499s-16.173,1.499-20.886,5.141c-10.175,0-18.637.643-30.204,6.105-11.567,5.462-18.851,12.103-32.667,23.135-13.817,11.032-27.848,9.425-35.559,7.712,15.959,11.46,36.202,3.32,43.592-2.142,7.39-5.462,15.102-12.424,27.205-20.136,12.103-7.712,26.027-8.783,35.238-7.39-14.781,2.142-27.633,7.926-39.95,18.315-12.317,10.389-18.422,15.102-33.31,20.671-14.888,5.569-24.742,8.783-36.095,19.172-11.353,10.389-17.137,26.777-17.887,37.166,14.352-35.881,34.274-39.629,52.268-45.949,17.994-6.319,20.672-7.497,33.524-16.494-10.068,12.96-28.169,22.171-44.984,32.989-16.816,10.818-25.706,24.099-33.953,47.448-8.247,23.349-10.282,50.019-2.999,70.155,7.283,20.136,19.172,32.56,32.239,42.414-31.062-29.289-30.578-61.507-30.578-61.507-.062-10.381,1.305-22.875,5.719-34.001-.186,18.71,2.921,30.396,9.448,42.393s17.529,22.812,24.739,27.35c-5.346-6.092-11.437-12.556-17.032-23.683-5.595-11.127-8.267-25.672-8.392-34.25-.124-8.578.497-19.58,8.516-36.177,8.018-16.597,16.659-22.75,20.885-26.107-3.605,5.594-6.278,9.137-10.318,20.202-4.04,11.064-6.837,19.891-6.402,38.725.435,18.834,5.843,31.701,12.556,43.947,6.713,12.245,19.145,23.558,35.555,34.125,16.41,10.567,38.041,16.348,59.735,23.061,21.693,6.713,28.718,11.748,40.963,21.01-6.029-9.386-25.237-20.948-36.861-26.977-11.624-6.029-28.531-13.053-40.465-20.637-11.935-7.583-22.564-16.099-30.893-26.791-8.329-10.691-13.488-18.896-17.529-31.577-4.04-12.68-4.413-20.14-4.724-27.785s.435-16.597,4.662-28.457c4.227-11.86,7.521-19.655,16.907-31.589,9.386-11.935,14.483-16.099,28.904-25.734,14.421-9.635,27.35-15.167,43.201-21.507,15.851-6.34,27.972-11.748,32.82-14.732-14.297,3.543-24.553,5.594-43.698,8.64-19.145,3.046-26.294,6.775-38.166,14.234,3.73-5.967,20.264-16.224,29.215-18.088,8.951-1.865,18.461-2.735,33.877-7.708,15.416-4.973,25.921-6.527,36.115-5.159,10.194,1.368,20.761,5.097,24.988,10.318,5.594-6.775,9.821-9.137,16.223-11.997,6.402-2.859,14.856-3.916,24.366-6.962-2.735,10.629-4.04,14.98-7.521,19.394-3.481,4.413-8.08,5.532-11.872,5.532,3.232-1.243,6.651-3.854,9.697-8.951,3.046-5.097,4.848-11.064,4.848-11.064,0,0-6.651.622-11.997,4.662-5.345,4.04-7.21,8.329-8.889,12.618-1.678,4.289-2.051,5.035-4.041,6.527,8.267-1.057,9.697-.186,13.737,3.17s5.159,7.21,6.465,14.359c1.305,7.148,1.803,9.324,4.6,17.156-3.605,9.51-5.346,13.862-5.346,22.067s.808,17.342,2.114,32.261c1.305,14.918,1.367,19.829,4.102,30.023-4.91,4.911-7.335,6.775-9.013,10.878-1.678,4.103-6.527,6.651-9.448,6.962-2.921.311-7.273-1.305-9.635-4.475-2.362-3.17-2.611-8.081-2.611-8.081,0,0,1.616-1.243,1.865-1.678-.311-2.3-3.916-7.086-3.916-7.086,0,0,0,2.673.559,7.21.56,4.538,1.243,8.329,3.543,12.556-4.413-.124-7.273-3.294-8.329-5.408-1.057-2.113-1.119-2.3-2.984-4.04-1.865-1.74-2.549-4.973-1.368-8.391,1.181-3.419,1.492-6.278.124-9.883-1.367-3.605-7.21-13.489-9.821-19.145-2.611-5.656-5.408-8.454-5.408-8.454,0,0,3.108,0,4.103-.559-8.267-3.419-13.116-4.165-19.767-9.697-6.651-5.532-9.448-16.099-9.013-24.18.435-8.081,2.424-12.991,6.34-21.196-4.538,4.103-8.08,8.951-12.556,19.456-10.008,3.854-13.551,5.346-24.553,13.924-11.002,8.578-19.332,19.394-25.734,29.464,2.176,8.081,7.957,17.342,16.721,26.604,8.765,9.262,19.829,16.534,29.339,22.315-3.232-10.256-5.221-18.337-4.351-27.35.87-9.013,3.232-16.348,5.775-20.948,2.542-4.6,8.522-11.251,11.817-16.721,2.3,3.108,4.662,4.911,10.132,7.646,5.47,2.735,5.284,2.362,7.957,4.911,2.673,2.549,11.81,18.337,14.732,24.118,2.921,5.781.932,7.646.062,12.059-.87,4.413,3.357,10.318,7.646,14.856,4.289,4.538,4.724,4.6,10.878,3.667,4.102,1.865,6.216,2.424,10.443,1.865,4.227-.559,10.07-6.589,12.307-12.059,8.143-5.905,8.267-7.956,7.832-11.189-.435-3.232-2.921-9.635-3.108-17.094-.187-7.459-.497-12.432-1.989-31.017-1.492-18.586-.062-21.258,2.673-27.661,2.735-6.402,2.424-7.832.87-14.297-1.554-6.465-1.119-7.646-4.848-20.886,7.521-1.057,13.116-7.708,15.229-12.743,2.113-5.035,7.21-10.194,11.313-14.297-12.059-.684-18.897,1.243-18.897,1.243ZM345.263,317.338c12.857-.115,23.533,2.296,28.354,13.431-3.903-7.576-16.301-10.217-28.354-13.431ZM403.743,349.553c.173-5.462,3.988-17.253,22.628-18.293-5.722,7.889-15.692,22.888-22.628,18.293Z"/>
    <path class="st3" d="M280.451,370.464c-25.651,22.317-47.968,51.816-47.455,81.315s12.313,60.281,42.068,78.494c29.756,18.213,76.698,40.273,89.524,64.385-22.317-18.469-33.972-24.369-70.854-38.99-36.882-14.621-77.668-43.351-76.385-91.832,1.283-48.481,24.112-67.72,63.103-93.371Z"/>
    <path class="st3" d="M266.856,445.11c22.06,26.421,27.191,33.86,55.664,48.738,15.904,14.878,33.347,24.112,33.347,24.112,0,0-20.521,11.03-44.505,11.543-23.984.513-30.91-3.078-39.375-23.343-8.465-20.265-5.643-53.355-5.13-61.051Z"/>
    <path class="st3" d="M307.129,537.712c23.086-3.335,33.09-4.617,59.511-18.982,17.443-.77,25.651-2.309,37.451-8.722-7.439,21.291-21.427,54.591-40.529,62.077-24.625-17.186-31.808-24.369-56.433-34.373Z"/>
    <path class="st3" d="M372.283,574.906c20.008-19.495,34.63-45.147,40.273-73.363,11.8-16.16,15.904-23.856,16.16-33.347,10.261,15.134,21.291,36.682,22.317,75.672-17.956,16.93-56.433,33.86-78.75,31.038Z"/>
    <path class="st3" d="M457.19,534.89c-1.283-22.573-2.019-40.299-27.447-81.059-6.156-19.495-14.686-31.295-14.686-31.295,0,0,50.855,4.874,69.58,27.191,1.026,30.012-5.13,66.181-27.447,85.163Z"/>
    <path class="st3" d="M481.559,437.414c-23.086-14.878-34.246-16.417-66.502-22.317-.192-16.16,1.86-17.956,6.221-32.321-.77-12.569-6.221-23.599-6.221-23.599,0,0,50.855,19.752,66.502,78.237Z"/>
    <path class="st3" d="M376.18,378.895c2.157,8.412,4.418,15.961,16.717,16.178.108-11.001-2.804-13.913-16.717-16.178ZM381.68,384.396c3.65-.699,5.285,2.157,5.177,5.285-3.451-.647-8.827-4.586-5.177-5.285Z"/>
    <path class="st3" d="M378.984,434.762c-.647-7.01-6.902-9.814-12.942-11.109,5.177,3.02,7.01,7.657,12.942,11.109Z"/>
    <path class="st3" d="M392.034,471.108c-3.559.216-4.638-3.128-4.745-8.197s7.55-7.01,11.109-4.745c3.559,2.265,1.51,10.678-2.588,10.03-.108-5.608-2.588-6.579-2.912-3.451s-.647,4.098-.863,6.363Z"/>
  </g>
</svg>