<?xml version="1.0" encoding="UTF-8"?>
<svg id="Dressage_Kings" xmlns="http://www.w3.org/2000/svg" version="1.1" viewBox="0 0 640.919 849.332">
  <!-- Generator: Adobe Illustrator 30.3.0, SVG Export Plug-In . SVG Version: 2.1.3 Build 182)  -->
  <defs>
    <style>
      .st0, .st1 {
        fill: none;
      }

      .st2 {
        fill: #c19558;
      }

      .st1 {
        stroke: #c19558;
        stroke-miterlimit: 10;
        stroke-width: 17px;
      }

      .st3 {
        fill: #11281a;
      }
    </style>
  </defs>
  <path class="st3" d="M259.355,151.522c7.295-16.714,17.206-14.609,36.082-19.066s29.306-5.43,42.815-2.511,42.204,7.04,47.554,16.895-18.968,19.582-18.968,19.582h-74.412l-37.449-4.306,4.377-10.592Z"/>
  <path class="st3" d="M427.348,213.628c47.446,5.625,162.727,42.768,170.508,50.55s5.836,35.504,5.836,50.094-8.268,170.321-16.536,201.642c-8.268,31.321-36.951,97.148-58.843,133.053-21.892,35.905-73.059,86.565-105.108,108.654-32.049,22.089-99.871,67.806-99.871,67.806,0,0-33.792-16.602-75.339-48.635-41.547-32.033-112.483-92.999-145.644-148.39s-41.775-121.915-51.329-182.519c-9.554-60.604-9.324-176.89-9.324-176.89,0,0,86.828-38.86,145.19-52.964s154.576-12.583,240.459-2.401Z"/>
  <path class="st1" d="M328.219,203.413c86.73,0,192.432,28.729,272.658,65.048,0,88.356.951,221.078-34.103,307.251-35.054,86.174-94.207,162.123-243.915,247.567-82.522-43.817-184.762-123.418-230.77-213.243-37.52-73.253-47.469-186.223-50.39-341.043,96.398-38.705,167.001-65.579,286.52-65.579Z"/>
  <path class="st2" d="M327.404,233.781c76.529,0,169.798,25.35,240.587,57.397,0,77.964.839,201.162-30.091,277.199-30.931,76.038-83.126,143.054-215.226,218.448-72.816-38.663-163.03-108.902-203.627-188.161-33.107-64.637-41.885-170.406-44.463-307.017,85.059-34.153,147.359-57.866,252.819-57.866Z"/>
  <path class="st2" d="M434.325,103.108c13.585,26.627-5.162,44.016-19.291,44.016s-28.996-14.401-28.8-30.431c.272-22.28,27.442-23.91,27.442-23.91l-5.706-52.71s-17.661,16.846-38.038,37.767c9.238,6.249,11.14,10.325,11.14,17.389,0,16.302-17.661,29.887-29.887,29.887s-22.008-10.325-22.551-29.344c-.543-19.019,17.117-23.095,17.117-23.095l-22.551-41.027s-9.781,15.759-25.268,41.57c13.042,5.162,16.574,5.977,16.574,25.54s-11.14,26.627-21.736,26.627c-17.117,0-27.714-16.846-27.714-27.985s10.325-19.834,10.325-19.834l-37.767-37.767s-1.902,18.747-5.977,52.71c16.03,1.087,27.442,13.313,27.442,27.442s-14.4,27.17-28.257,27.17-25.812-15.759-25.812-26.899,4.619-16.846,4.619-16.846l-40.755-19.563,45.918,94.009c110.311-19.563,215.731,0,215.731,0l47.276-93.465s-17.389,7.608-43.472,18.747ZM283.953,161.445c-6.343,0-11.484-4.443-11.484-9.923s5.142-9.923,11.484-9.923,11.484,4.443,11.484,9.923-5.142,9.923-11.484,9.923ZM322.866,161.222c-8.498,0-15.387-6.44-15.387-14.383s6.889-14.383,15.387-14.383,15.387,6.44,15.387,14.383-6.889,14.383-15.387,14.383ZM361.5,162.114c-6.004,0-10.871-4.867-10.871-10.871s4.867-10.871,10.871-10.871,10.871,4.867,10.871,10.871-4.867,10.871-10.871,10.871Z"/>
  <g>
    <path class="st3" d="M467.8,574.158c-1.367-4.024-11.466-30.144-17.16-41.686-5.695-11.541-7.365-14.427-18.679-20.425-11.314-5.999-16.553-8.428-24.45-15.034,4.708-8.125,6.378-14.882,5.087-23.69-1.291-8.808-.683-14.731,2.202-21.336-15.186-5.467-21.336-9.264-30.904-16.021-9.567-6.758-12.073-10.934-12.073-10.934l-1.139,2.126s-3.265.304-5.239.228c8.125,15.186,8.808,23.387,7.669,33.713-1.139,10.327-13.668,15.262-13.668,15.262,0,0-5.163,13.516-7.745,15.718,1.822-9.795,5.011-20.273,5.011-20.273,0,0,.759-.607,5.619-8.428,4.859-7.821,4.404-13.516,1.822-24.222-2.582-10.706-5.999-18.147-13.364-17.768-7.365.38-7.137,6.834-4.176,10.934,2.961,4.1,7.289,10.099,10.63,16.173,3.341,6.074,2.506,9.719.531,9.871s-2.809-2.885-4.708-7.669c-1.898-4.784-5.315-3.797-8.049-.152-2.734,3.645-4.328,5.467-6.758,4.86-1.593-.398-4.132-2.754-5.692-4.33,1.409,1.635,3.647,4.666,5.464,9.114,2.885,7.062.987,10.782.38,18.527-.607,7.745,0,21.868,0,21.868,0,0-2.809-13.212-4.024-20.349-25.664,1.063-32.574-12.149-34.245-20.881-1.671-8.732-.911-20.501-.911-20.501,0,0-15.718-4.176-26.272-4.328-10.554-.152-22.02,3.645-34.624,11.541-17.236-6.378-28.246-3.872-35.839,3.113-7.593,6.986-5.619,15.566-.152,26.728,5.467,11.162,11.769,17.616,12.604,25.664.835,8.049-10.402,15.338-16.629,15.945-6.226.607-10.478-1.367-10.478-1.367,0,0,2.278,2.961,5.315,4.328-12.301-.683-17.616-6.226-22.399-10.706,5.847,20.198,23.159,25.285,33.182,25.589-4.1,5.619-3.721,6.302-6.074,12.225-2.354,5.923-8.183,16.687-13.276,27.218-5.093,10.531-5.352,14.674-2.503,20.371-.061,4.764-1.306,6.17-3.204,9.207-1.898,3.037,1.367,6.15,4.632,6.074,3.265-.076,9.567,0,9.567,0,0,0,.38-3.113-2.126-7.593-2.506-4.48-1.594-6.53-.076-12.756,1.519-6.226,7.897-19.362,17.008-32.878,9.112-13.516,12.377-14.958,20.881-22.096,8.504-7.137,18.451-13.895,24.07-19.286s10.251-12.529,18.451-18.527c8.201-5.999,17.388-5.239,23.083-3.417-14.806-.304-21.336,6.454-22.096,8.808,13.667,2.202,23.235,8.428,34.472,11.921,11.238,3.493,18.983,4.024,33.789,2.809,14.806-1.215,21.488-2.809,30.144-4.024-7.441-8.125-8.049-14.427-7.669-20.122,2.278,5.163,3.265,6.302,10.099,15.718,6.834,9.415,15.11,13.516,26.652,14.579,11.541,1.063,24.905.987,29.537,1.67,4.632.683,8.884,6.074,14.351,16.097,5.467,10.023,4.708,10.327,5.391,14.351.683,4.024.911,5.239,5.467,7.517,4.556,2.278,1.595,5.163-.835,6.91-2.43,1.746,4.86,7.745,9.719,9.415,4.859,1.67,5.771-1.367,4.404-5.391ZM205.837,458.291c-.769-2.307-.32-5.702,1.217-8.201-2.178.705-6.087,5.638-6.087,10.956s1.538,11.981,1.538,11.981c0,0-4.037-6.792-3.78-12.494.256-5.702,3.972-11.789,10.508-14.288,6.535-2.499,17.694-3.208,24.347-.192-14.672-1.025-24.796-.128-27.743,12.238ZM239.795,502.116c-.384-10.508.769-12.75-7.368-24.475-8.137-11.725-9.226-12.558-9.739-16.594-.513-4.036,3.78-8.073,9.098-7.881-5.318,3.396-9.162,5.702-5.062,11.725,4.101,6.023,9.867,11.469,12.75,20.311,2.883,8.842,3.011,13.647.32,16.915ZM297.139,444.452s-6.856-3.011-18.517-3.908c-11.661-.897-14.608-.256-22.553,2.499-7.945,2.755-17.235,6.599-17.235,6.599,0,0,5.895-4.805,15.697-8.265,9.803-3.46,12.174-3.972,22.169-3.652,9.995.32,16.274,2.371,20.439,3.78v2.947Z"/>
    <path class="st3" d="M258.064,515.913l11.918-9.974,19.921,6.64s-5.619,10.726-11.578,19.495c-5.959,8.768-7.151,11.322-7.406,14.898s4.852,8.598,16.175,18.644c11.322,10.045,15.749,17.537,16.09,24.007.341,6.47-.596,10.982-.596,10.982,0,0-5.704-2.213-9.535-5.619-3.831-3.405-2.043-4.682-1.277-7.236s.766-2.809-2.213-4.171-4.427-5.023-12.855-13.451c-8.428-8.428-17.282-16.771-21.538-20.176-4.257-3.405-4.852-6.3-.851-13.025,4.001-6.725,5.023-7.293,3.746-21.013Z"/>
    <path class="st3" d="M361.157,519.049l11.663-.596,9.449,5.959s-17.026,22.9-26.986,37.713c-9.96,14.813-11.918,16.175-13.11,21.283-1.192,5.108-1.107,7.832,2.894,10.556,4.001,2.724,8.428,10.982,8.428,10.982,0,0-2.554,1.447-8.854,1.022-6.3-.426-7.066-.681-6.64-3.916.426-3.235,1.107-5.619-2.98-9.279s-4.682-6.64-1.532-13.451c3.15-6.81,22.985-48.083,27.667-60.272Z"/>
    <path class="st3" d="M373.107,422.801c.314-.865,3.577-1.022,3.577-1.022,0,0-1.14-4.009,4.992-5.188.747-4.441,1.336-4.363,5.11-4.756.747-4.206,1.572-4.52,6.446-4.441,1.218-3.616,2.594-4.166,7.075-3.93.55-2.712,2.712-2.633,6.682-2.476,1.336-2.712,2.162-2.712,6.996-2.358.314-1.887,3.93-1.611,7.193-1.376,3.184-2.162,4.638-2.987,8.961-.904,3.38-2.005,5.267-.55,7.743.904,4.323-1.297,10.573-.275,13.599,3.93-3.026,3.97-5.542,7.271-4.756,13.874.786,6.603.314,11.202-.747,20.438-1.061,9.236-1.494,16.233-1.494,16.233h-8.765s.275-4.206-4.363-11.005c-4.638-6.8-7.232-14.621-.079-23.347-3.577.472-9.001,7.153-7.782,13.245,1.218,6.092,1.336,6.289-1.494,10.14-2.83,3.852-4.559,5.896-5.62,8.568-9.001-3.695-17.333-6.682-26.845-12.499-9.512-5.817-14.543-9.905-16.429-14.032Z"/>
    <path class="st3" d="M376.919,424.924c4.206-5.149,13.756-13.521,25.312-18.512,11.555-4.992,18.669-6.957,28.26-6.918,9.59.039,14.267,1.795,16.547,3.223-12.341-1.218-21.892-1.769-32.976,1.415-11.084,3.184-18.866,8.608-24.644,13.324s-10.769,9.905-10.769,9.905c0,0-1.494-1.415-1.729-2.437Z"/>
    <path class="st3" d="M463.721,423.437c-5.714.065-10.199-1.165-12.948-3.769s-2.387-14.395,9.91-23.292c-.145,1.447-.579,9.114-1.374,13.888,2.387-4.629,2.604-5.931,10.85-9.259-2.242,4.195-4.774,9.186-5.57,13.02s-.94,9.346-.868,9.411Z"/>
    <path class="st3" d="M449.833,422.923c5.28,2.893,7.016,3.327,13.092,3.761-1.664,6.582-4.774,15.407-6.148,25.679h-9.114s2.17-21.483,2.17-29.44Z"/>
    <path class="st3" d="M436.668,454.592h19.964v14.842l-9.982,3.689s-4.195-2.966-9.982-5.931v-12.599Z"/>
    <path class="st3" d="M344.161,414.898c-4.974.072-10.452.649-10.741,9.371-.288,8.722-.865,18.021-6.704,24.004-5.839,5.983-10.236,7.28-15.426,7.136-5.19-.144-7.713-1.442-7.857-4.181-.144-2.739.577-23.355,4.613-33.591,4.037-10.236,6.92-15.426,4.469-20.688-2.451-5.262-4.974-12.326-2.883-21.841,2.09-9.515,4.685-13.624,4.685-13.624,0,0,8.938.865,13.696,5.55-1.658-3.82-5.19-6.343-13.768-7.208-.144-2.379.433-3.028,3.1-2.955-1.73-5.406-3.532-8.362-.144-10.741-.505-1.442-4.758-.937-4.758-.937,0,0,.288-1.73,4.83-2.523-.216-7.713-.288-9.083,1.586-9.155s9.083,1.081,19.391,0c-.072,3.244,0,8.578,0,8.578,0,0,5.623,1.37,4.685,3.028-2.09,0-11.029.216-11.029.216,0,0-1.081,4.541-2.307,3.965s-1.658-1.874-4.109-3.244c-2.451-1.37-4.109,2.235-2.667,4.325,1.442,2.09.937,2.739-.793,4.181s-.937,4.037-.937,4.037c0,0,5.046.36,11.029,8.578,5.983,8.218,6.992,14.705,6.848,20.184-.144,5.478,1.153,9.486,6.127,12.132,4.974,2.646,11.389,4.592,13.984,6.394s2.955,3.82,0,5.046-3.172,2.955-3.748,4.902-1.514.878-8.578-2.408c-7.064-3.287-12.687-5.593-15.786-9.918-3.1-4.325-9.299-15.138-12.11-17.805,3.028,7.569,7.064,16.075,9.443,19.246,2.379,3.172,5.046,5.046,15.858,9.948Z"/>
  </g>
  <g>
    <path class="st0" d="M328.415,303.171c63.585,0,141.08,21.063,199.897,47.689,0,64.778.697,162.082-25.002,225.259-25.699,63.178-69.067,118.859-178.825,181.502-60.501-32.124-135.457-90.483-169.187-156.338-27.507-53.705-34.801-136.528-36.943-250.033,70.673-28.376,122.436-48.079,210.06-48.079Z"/>
    <path class="st3" d="M184.937,326.11l-16.617,5.49-.438-1.329,3.323-1.098-11.42-34.562-3.323,1.098-.439-1.329,16.616-5.49c3.279-1.083,6.416-1.518,9.411-1.303s5.605.938,7.831,2.167c4.538,2.581,7.576,6.196,9.113,10.849,2.079,6.293,1.973,11.55-.318,15.771s-6.871,7.468-13.738,9.736ZM181.174,325.88c4.785-1.582,7.813-4.02,9.084-7.314s.936-7.877-1.004-13.749c-1.94-5.871-4.568-9.955-7.882-12.251-3.314-2.296-7.188-2.712-11.618-1.248l11.42,34.562Z"/>
    <path class="st3" d="M248.225,309.897l-2.999.698c-5.683,1.321-9.923,1.015-12.72-.922-2.217-1.497-4.009-3.739-5.374-6.728-.58-1.255-1.156-2.391-1.728-3.407-1.298-2.285-3.062-3.169-5.288-2.651l-3,.698,3.839,16.499,3.408-.793.317,1.364-17.045,3.965-.317-1.364,3.409-.793-8.247-35.453-3.409.793-.317-1.363,17.932-4.171c11.591-2.696,18.174-.658,19.749,6.114.624,2.683.153,5.092-1.409,7.227-1.563,2.138-3.868,3.56-6.913,4.268l.111.478c4.544-1.058,8.402,1.208,11.57,6.795,1.648,2.971,3.096,5.019,4.339,6.142,1.243,1.125,2.502,1.538,3.775,1.242l.316,1.363ZM212.708,278.632l4.092,17.591c4.545-1.058,7.438-2.425,8.677-4.103,1.238-1.678,1.499-4.062.779-7.153-.719-3.09-2.043-5.178-3.972-6.263-1.93-1.084-5.122-1.108-9.576-.072Z"/>
    <path class="st3" d="M271.147,304.94c6.941-.902,9.9-5.287,8.877-13.154l1.389-.181,1.715,13.188-32.625,4.243-.181-1.388,3.471-.452-4.694-36.096-3.471.451-.181-1.388,31.932-4.153,1.534,11.801-1.388.181c-.536-4.118-1.718-6.776-3.543-7.975-1.827-1.197-4.568-1.559-8.224-1.084l-6.247.812,2.166,16.66,2.776-.361c3.332-.434,5.384-1.123,6.154-2.071.771-.947.994-2.67.669-5.169l1.389-.181,1.806,13.883-1.389.181c-.337-2.591-.997-4.223-1.978-4.896-.982-.672-3.139-.792-6.471-.358l-2.776.361,2.348,18.048,6.941-.903Z"/>
    <path class="st3" d="M290.249,304.333l-1.398.063-.737-16.294,1.399-.062c.197,4.382,1.939,8.04,5.226,10.975s7.189,4.3,11.712,4.095c1.864-.084,3.343-.699,4.437-1.847,1.092-1.146,1.598-2.63,1.516-4.448-.093-2.051-1.501-3.739-4.224-5.064-1.479-.68-4.027-1.745-7.642-3.193-3.616-1.447-6.173-2.698-7.668-3.752-2.992-2.107-4.396-5.01-4.213-8.709.184-3.697,1.44-6.616,3.773-8.754,2.332-2.138,5.025-3.275,8.079-3.414,3.053-.138,5.823.146,8.308.851,2.484.706,3.889,1.051,4.216,1.036.932-.042,1.361-.879,1.288-2.511l1.398-.063.578,12.797-1.398.063c-.151-3.356-1.511-6.039-4.077-8.049-2.568-2.01-5.785-2.927-9.654-2.752-1.726.078-3.055.641-3.988,1.687-.934,1.048-1.373,2.177-1.318,3.389.055,1.213.26,2.137.616,2.774.355.639.953,1.208,1.794,1.706.84.5,1.57.899,2.191,1.197.62.299,1.608.698,2.962,1.197,1.354.499,2.292.854,2.816,1.063,2.615,1.051,4.162,1.669,4.639,1.857.475.189,1.166.497,2.073.923.906.426,1.59.815,2.05,1.168.46.354,1.052.794,1.776,1.321.725.528,1.264,1.076,1.616,1.644.353.569.709,1.219,1.069,1.949.72,1.463,1.031,3.2.937,5.213-.203,3.793-1.482,6.735-3.84,8.827-2.358,2.092-5.612,3.232-9.761,3.42-3.73.168-7.479-.62-11.248-2.364-1.289-.596-2.236-.88-2.842-.853-1.726.078-2.545,1.05-2.461,2.914Z"/>
    <path class="st3" d="M328.321,302.865l-1.398-.063.73-16.293,1.398.062c-.196,4.383,1.21,8.182,4.219,11.4,3.01,3.218,6.774,4.928,11.297,5.13,1.864.084,3.393-.396,4.584-1.441,1.191-1.044,1.828-2.476,1.909-4.294.092-2.051-1.158-3.858-3.751-5.423-1.412-.811-3.854-2.1-7.324-3.866-3.472-1.768-5.905-3.243-7.3-4.427-2.791-2.367-3.928-5.384-3.413-9.052.515-3.666,2.029-6.46,4.544-8.38,2.515-1.919,5.3-2.811,8.354-2.674,3.053.137,5.786.669,8.196,1.593,2.411.926,3.779,1.396,4.106,1.41.932.042,1.435-.752,1.508-2.385l1.399.062-.573,12.798-1.399-.062c.15-3.357-.963-6.15-3.338-8.383-2.377-2.231-5.499-3.435-9.368-3.608-1.726-.077-3.099.364-4.123,1.322-1.024.959-1.563,2.044-1.617,3.256-.055,1.213.066,2.152.364,2.819.297.668.841,1.288,1.633,1.859.792.573,1.483,1.037,2.075,1.39.591.354,1.539.84,2.843,1.459,1.304.618,2.206,1.057,2.709,1.312,2.512,1.28,3.996,2.035,4.453,2.266.456.231,1.117.6,1.982,1.105.864.506,1.51.955,1.937,1.348.426.394.977.885,1.651,1.476.674.591,1.16,1.185,1.461,1.782.3.598.597,1.276.891,2.036.585,1.522.739,3.281.464,5.276-.542,3.76-2.081,6.575-4.617,8.447-2.536,1.871-5.88,2.715-10.028,2.528-3.73-.167-7.394-1.289-10.99-3.364-1.229-.709-2.148-1.077-2.754-1.104-1.725-.077-2.629.817-2.713,2.682Z"/>
    <path class="st3" d="M404.673,309.419l-.208,1.384-18.206-2.738.209-1.384,4.084.614-3.191-10.319-13.982-2.104-5.462,9.019,5.469.822-.209,1.385-11.836-1.78.208-1.385,4.638.697,21.578-35.688,1.73.26,11.855,40.717,3.323.5ZM374.22,293.513l12.667,1.905-4.659-15.142-8.008,13.236Z"/>
    <path class="st3" d="M439.526,316.464c-.424-.844-1.101-1.377-2.03-1.599-.932-.221-1.977-.062-3.136.478-1.16.541-2.481,1.054-3.964,1.54s-3.133.515-4.948.083c-6.175-1.468-10.576-4.193-13.202-8.176-2.627-3.981-3.157-9.265-1.592-15.848,3.271-13.757,11.33-19.107,24.179-16.053,2.315.551,4.552,1.683,6.712,3.395,2.158,1.713,3.511,2.634,4.056,2.763.545.13,1.065-.045,1.564-.527.498-.48.812-.994.941-1.539l1.294.308-3.287,13.825-1.362-.324c.82-3.449.203-6.858-1.85-10.225-2.054-3.367-4.852-5.471-8.393-6.312-2.724-.648-5.139.325-7.241,2.919-2.104,2.594-3.957,7.262-5.561,14.004-1.603,6.741-2.019,11.668-1.247,14.777s2.542,4.993,5.312,5.651c4.358,1.036,7.46-2.327,9.307-10.091l1.197-5.039-4.29-1.021.324-1.362,16.344,3.887-.323,1.361-3.201-.761-4.048,17.025-1.294-.308c.248-1.044.16-1.988-.262-2.832Z"/>
    <path class="st3" d="M468.056,326.307c6.685,2.077,11.204-.672,13.559-8.249l1.337.416-3.947,12.701-31.418-9.763.416-1.337,3.342,1.038,10.801-34.761-3.342-1.038.415-1.337,30.75,9.555-3.531,11.364-1.337-.416c1.232-3.966,1.268-6.874.109-8.726-1.16-1.851-3.501-3.323-7.021-4.417l-6.017-1.869-4.985,16.043,2.675.831c3.208.997,5.36,1.226,6.456.687s2.019-2.012,2.766-4.418l1.337.415-4.154,13.37-1.336-.416c.775-2.495.856-4.253.246-5.274-.612-1.021-2.521-2.029-5.73-3.026l-2.674-.831-5.4,17.381,6.685,2.077Z"/>
  </g>
  <g>
    <path class="st3" d="M256.558,676.973v1.757h-22.836v-1.757h3.952l-11.682-21.343-3.689,4.655v16.688h4.393v1.757h-21.959v-1.757h4.393v-45.673h-4.393v-1.756h21.959v1.756h-4.393v25.911l20.377-25.911h-8.08v-1.756h17.918v1.756h-7.466l-10.364,13.175,18.094,32.498h3.776Z"/>
    <path class="st3" d="M282.908,678.729h-21.958v-1.757h4.392v-45.673h-4.392v-1.756h21.958v1.756h-4.392v45.673h4.392v1.757Z"/>
    <path class="st3" d="M295.204,676.973h7.025v1.757h-14.053v-1.757h5.27v-41.808c-1.874-2.576-3.631-3.865-5.27-3.865v-1.756h16.426l24.68,29.248v-27.492h-7.027v-1.756h14.932v1.756h-6.148v48.308h-1.756l-34.078-42.247v39.612Z"/>
    <path class="st3" d="M383.649,675.348c-.762-.907-1.742-1.361-2.943-1.361s-2.43.498-3.688,1.493c-1.26.996-2.723,2.007-4.393,3.03-1.668,1.024-3.674,1.537-6.016,1.537-7.965,0-14.127-2.049-18.488-6.148-4.363-4.098-6.545-10.393-6.545-18.884,0-17.742,8.285-26.613,24.857-26.613,2.986,0,6.045.733,9.178,2.196,3.133,1.464,5.051,2.195,5.754,2.195s1.287-.364,1.756-1.098c.469-.731.703-1.449.703-2.151h1.668v17.829h-1.756c0-4.449-1.742-8.432-5.227-11.944-3.484-3.514-7.51-5.271-12.076-5.271-3.514,0-6.18,1.889-7.992,5.665-1.816,3.777-2.723,10.014-2.723,18.709s.922,14.829,2.766,18.4c1.844,3.572,4.553,5.357,8.125,5.357,5.621,0,8.432-5.006,8.432-15.019v-6.5h-5.533v-1.757h21.08v1.757h-4.129v21.958h-1.668c0-1.347-.383-2.473-1.143-3.382Z"/>
    <path class="st3" d="M399.37,678.729h-1.756v-20.465h1.756c0,5.505,1.977,10.188,5.93,14.053,3.951,3.865,8.768,5.797,14.447,5.797,2.342,0,4.23-.688,5.666-2.063,1.434-1.375,2.152-3.206,2.152-5.489,0-2.576-1.67-4.772-5.008-6.588-1.814-.936-4.947-2.415-9.396-4.436-4.451-2.02-7.584-3.732-9.398-5.138-3.631-2.811-5.227-6.528-4.787-11.155.439-4.625,2.182-8.212,5.227-10.759,3.043-2.548,6.484-3.821,10.32-3.821s7.289.514,10.363,1.537c3.074,1.025,4.816,1.537,5.227,1.537,1.17,0,1.756-1.023,1.756-3.074h1.758v16.073h-1.758c0-4.216-1.551-7.655-4.654-10.32-3.105-2.663-7.086-3.996-11.945-3.996-2.168,0-3.865.63-5.094,1.889-1.23,1.26-1.846,2.649-1.846,4.172s.205,2.694.615,3.513c.408.821,1.127,1.567,2.152,2.24,1.023.674,1.916,1.216,2.678,1.625.762.41,1.977.966,3.646,1.669,1.668.702,2.824,1.2,3.469,1.493,3.219,1.464,5.123,2.327,5.709,2.591.584.264,1.434.688,2.547,1.273,1.111.586,1.947,1.113,2.504,1.581.555.47,1.273,1.054,2.152,1.757.877.702,1.521,1.42,1.932,2.151.408.733.818,1.567,1.229,2.504.82,1.874,1.113,4.07.879,6.587-.469,4.743-2.24,8.359-5.312,10.848-3.074,2.487-7.219,3.732-12.43,3.732-4.686,0-9.34-1.201-13.965-3.601-1.58-.819-2.752-1.23-3.514-1.23-2.166,0-3.25,1.173-3.25,3.514Z"/>
  </g>
</svg>