<?xml version="1.0" encoding="UTF-8"?>
<svg id="Kings_Equestrian_Foundation" xmlns="http://www.w3.org/2000/svg" version="1.1" viewBox="0 0 640.919 849.332">
  <!-- Generator: Adobe Illustrator 30.3.0, SVG Export Plug-In . SVG Version: 2.1.3 Build 182)  -->
  <defs>
    <style>
      .st0, .st1, .st2 {
        fill: none;
      }

      .st3 {
        fill: #c19558;
      }

      .st1 {
        stroke-width: 8px;
      }

      .st1, .st2 {
        stroke: #c19558;
        stroke-miterlimit: 10;
      }

      .st2 {
        stroke-width: 18px;
      }

      .st4 {
        fill: #11281a;
      }
    </style>
  </defs>
  <path class="st4" d="M415.683,232.592c43.769,9.119,142.449,54.233,156.399,63.045s6.356,9.396,6.356,24.586,5.842,95.008-14.605,167.266c-20.447,72.258-40.743,102.851-76.747,132.831s-112.661,72.863-142.977,82.384-45.107,9.173-52.901,0-121.965-37.571-167.408-114.508c-45.443-76.937-54.435-127.535-65.128-189.283-10.693-61.748-17.349-86.284,0-102.642s45.821-30.475,113.374-47.953c67.553-17.478,167.929-31.499,243.637-15.725Z"/>
  <path class="st2" d="M581.955,302.235c0,95.996,4.645,186.315-61.417,279.215-48.023,67.533-123.056,107.867-199.587,127.995-54.854-13.419-142.593-46.966-199.881-124.898-38.769-52.74-69.159-125.414-64.514-282.311,45.418-28.386,127.479-74.836,262.499-74.836,0,0,143.678-7.742,262.899,74.836Z"/>
  <path class="st3" d="M241.307,119.222c-4.477-24.489-12.113-45.819-23.436-61.092,20.013,6.056,17.421,5.343,23.436,7.553,6.015,2.21,5.613,5.225,2.599,11.454-3.014,6.23,0,14.669,10.851,14.268,10.851-.402,15.674-4.823,14.669-17.282-4.823-3.215-8.842-14.906-.603-15.993,8.239-1.087,11.454,7.553,7.033,14.386,4.019,6.029,9.847,10.249,19.693,9.244,9.847-1.005,14.469-7.234,14.268-16.679s-2.813-10.048-13.866-13.062c12.258-13.665,23.712-32.554,23.712-32.554,0,0,14.87,23.712,20.497,32.956-8.038,2.01-14.067,5.426-12.459,13.665,1.608,8.239,7.435,15.875,17.483,15.674s14.268-2.813,16.679-8.842c-3.818-8.038-2.813-17.081,6.23-15.674,9.043,1.407,9.244,15.473,0,16.88-1.005,6.631,4.22,18.287,14.268,17.885,10.048-.402,17.684-5.627,13.464-14.268-4.22-8.641-6.43-10.249,4.22-13.665s23.31-7.033,23.31-7.033c0,0-14.067,14.237-25.32,62.179-20.698-7.319-50.238-9.932-79.175-9.932s-52.019,3.184-77.554,9.932Z"/>
  <path class="st1" d="M243.833,129.439c34.363-8.641,90.008-15.631,151.901.646"/>
  <path class="st3" d="M319.057,833.747c-35.11,0-187.32-14.005-267.664-145.208,39.803,39.066,127.149,128.623,267.664,128.623,0,0,146.215,9.582,267.836-128.623-13.636,29.484-109.6,145.208-267.836,145.208Z"/>
  <g>
    <path class="st0" d="M-53.545,459.643c20.776,107.659,92.742,182.135,107.23,196.811,39.182,39.689,127.149,128.623,267.664,128.623,0,0,146.215,9.582,267.836-128.623,16.121-19.771,81.034-121.596,81.034-220.753"/>
    <path class="st3" d="M159.691,693.145l-7.526,10.184-1.198-.886c2.627-3.554,3.68-6.464,3.164-8.729-.518-2.266-2.354-4.565-5.508-6.896l-5.391-3.984-11.599,15.694,2.396,1.771c2.875,2.126,4.958,3.108,6.248,2.951,1.289-.158,2.732-1.315,4.326-3.472l1.198.885-8.854,11.98-1.198-.885c1.653-2.236,2.35-3.975,2.094-5.214-.258-1.24-1.823-2.923-4.698-5.048l-2.396-1.771-10.537,14.257,3.594,2.656-.885,1.198-15.574-11.512.885-1.197,2.995,2.213,23.022-31.148-2.995-2.214.885-1.198,27.555,20.365Z"/>
    <path class="st3" d="M188.645,734.512c-3.376,5.936-7.721,9.506-13.034,10.711-5.313,1.206-10.776.212-16.387-2.979-5.612-3.192-9.242-7.356-10.89-12.493-1.649-5.137-.785-10.672,2.591-16.607,3.376-5.935,7.771-9.646,13.19-11.136,5.417-1.489,10.985-.607,16.705,2.646,5.719,3.253,9.296,7.559,10.733,12.918,1.436,5.358.466,11.006-2.909,16.94ZM183.537,714.039c.266-3.933-.907-6.643-3.518-8.128-2.612-1.485-5.557-1.104-8.835,1.145-3.279,2.248-6.501,6.157-9.669,11.725-3.167,5.568-4.888,10.274-5.16,14.118-.273,3.845.951,6.54,3.67,8.086,5.611,3.191,11.744-1.061,18.397-12.758,3.142-5.524,4.847-10.254,5.113-14.188Z"/>
    <path class="st3" d="M228.133,752.798c-4.677,11.981-12.057,16.003-22.141,12.067-5.598-2.186-9.41-5.325-11.435-9.421-2.027-4.096-1.911-9.034.346-14.817l8.288-21.233-3.469-1.354.542-1.388,18.041,7.041-.542,1.388-3.469-1.354-8.586,21.996c-3.774,9.669-2.423,15.766,4.054,18.294,2.637,1.029,5.541.657,8.712-1.117,3.171-1.773,5.632-4.904,7.384-9.393l8.558-21.927-5.482-2.14.542-1.388,10.686,4.171-.542,1.388-3.469-1.354-8.017,20.539Z"/>
    <path class="st3" d="M237.683,772.856l5.817,1.291-.323,1.454-11.635-2.582.323-1.454,4.363.969,7.681-34.614c-1.079-2.477-2.296-3.866-3.653-4.168l.323-1.454,13.598,3.018,15.06,28.75,5.051-22.761-5.817-1.291.323-1.454,12.362,2.743-.323,1.454-5.09-1.13-8.875,39.995-1.454-.322-20.453-41.239-7.278,32.796Z"/>
    <path class="st3" d="M299.79,784.372l-18.586-1.15.092-1.486,3.717.229,2.392-38.659-3.717-.229.092-1.487,18.586,1.15c3.667.227,6.938,1.039,9.812,2.436,2.873,1.397,5.166,3.144,6.878,5.239,3.463,4.344,5.033,9.117,4.711,14.321-.436,7.038-2.62,12.189-6.553,15.453-3.933,3.265-9.742,4.659-17.424,4.184ZM296.164,782.655c5.353.331,9.308-.88,11.867-3.632s4.041-7.411,4.447-13.979-.574-11.641-2.939-15.22c-2.366-3.58-6.028-5.522-10.983-5.829l-2.392,38.659Z"/>
    <path class="st3" d="M375.849,779.871l.156,1.481-19.483,2.047-.156-1.481,4.371-.46-6.045-9.775-14.964,1.572-3.215,10.748,5.852-.614.156,1.481-12.667,1.33-.156-1.481,4.963-.521,12.684-42.525,1.852-.194,23.096,38.767,3.556-.373ZM340.231,771.629l13.557-1.424-8.847-14.35-4.709,15.773Z"/>
    <path class="st3" d="M411.929,742.067c-1.12-4.275-2.581-6.959-4.382-8.054-1.801-1.094-4.647-1.131-8.538-.111l-2.162.566,9.817,37.468,5.044-1.321.378,1.441-20.896,5.475-.378-1.441,5.044-1.321-9.817-37.469-2.162.566c-3.844,1.007-6.282,2.43-7.314,4.265-1.033,1.838-.99,4.893.13,9.168l-1.441.378-3.209-12.25,38.117-9.986,3.209,12.249-1.441.378Z"/>
    <path class="st3" d="M445.187,760.431l-17.431,6.553-.524-1.395,3.486-1.311-13.631-36.255-3.486,1.311-.524-1.395,17.431-6.554.524,1.395-3.486,1.311,13.631,36.256,3.486-1.311.524,1.395Z"/>
    <path class="st3" d="M481.939,720.139c3.071,6.1,3.636,11.694,1.695,16.785-1.94,5.091-5.794,9.088-11.559,11.99-5.766,2.903-11.244,3.618-16.433,2.145-5.19-1.474-9.319-5.26-12.39-11.358-3.07-6.098-3.725-11.814-1.963-17.15,1.762-5.334,5.581-9.48,11.458-12.44,5.876-2.958,11.443-3.551,16.701-1.778,5.257,1.773,9.421,5.71,12.491,11.808ZM462.066,713.049c-3.126-2.4-6.032-2.926-8.715-1.575-2.684,1.352-3.998,4.015-3.942,7.989.055,3.976,1.524,8.823,4.404,14.545s5.845,9.762,8.894,12.117c3.049,2.357,5.971,2.832,8.765,1.425,5.765-2.902,5.623-10.363-.428-22.384-2.858-5.677-5.851-9.716-8.978-12.117Z"/>
    <path class="st3" d="M501.202,730.272l4.92-3.363.841,1.23-9.839,6.725-.841-1.229,3.69-2.522-20.007-29.271c-2.545-.906-4.392-.968-5.539-.184l-.841-1.229,11.5-7.86,31.277,8.667-13.156-19.248-4.92,3.362-.841-1.229,10.454-7.146.841,1.229-4.305,2.942,23.117,33.822-1.23.841-44.077-13.271,18.956,27.734Z"/>
  </g>
  <g>
    <path class="st0" d="M8.062,554.429s2.851-104.299.107-181.421c-2.745-77.122,48.389-108.59,48.389-108.59,45.418-28.386,127.479-74.836,262.499-74.836,0,0,143.678-7.742,262.899,74.836,0,0,78.083,55.364,87.689,145.927"/>
    <path class="st3" d="M81.148,247.702l.718,1.173-15.245,9.336-.718-1.172,2.639-1.616-16.524-9.473-.559,4.616,6.823,11.141,2.932-1.796.718,1.173-14.659,8.978-.718-1.173,2.932-1.795-18.673-30.49-2.932,1.796-.718-1.173,14.659-8.978.718,1.173-2.932,1.795,10.593,17.298,3.01-25.629-5.394,3.304-.718-1.173,11.961-7.325.718,1.173-4.984,3.052-1.532,13.033,25.365,14.297,2.521-1.544Z"/>
    <path class="st3" d="M99.63,239.697l-15.171,8.082-.647-1.214,3.034-1.616-16.81-31.556-3.034,1.616-.647-1.213,15.171-8.082.647,1.214-3.034,1.616,16.81,31.555,3.034-1.616.647,1.214Z"/>
    <path class="st3" d="M106.971,234.362l5.019-2.251.563,1.254-10.037,4.504-.563-1.255,3.764-1.688-13.397-29.861c-2.164-1.239-3.832-1.597-5.002-1.071l-.563-1.255,11.731-5.263,27,12.981-8.809-19.636-5.019,2.252-.563-1.255,10.665-4.785.563,1.255-4.391,1.971,15.48,34.503-1.255.562-37.878-19.254,12.693,28.292Z"/>
    <path class="st3" d="M170.143,208.079c-.794-.479-1.636-.566-2.524-.262-.889.305-1.673.985-2.353,2.042-.68,1.058-1.507,2.177-2.483,3.358-.976,1.182-2.332,2.071-4.065,2.665-5.898,2.021-10.982,2.068-15.252.14-4.271-1.927-7.484-6.035-9.639-12.323-4.503-13.139-.619-21.811,11.653-26.017,2.211-.758,4.663-.992,7.354-.703,2.691.289,4.297.344,4.818.165.52-.178.861-.597,1.022-1.259.161-.66.153-1.251-.026-1.771l1.236-.424,4.525,13.204-1.301.445c-1.129-3.294-3.431-5.802-6.902-7.52-3.472-1.717-6.899-1.996-10.281-.837-2.602.892-4.096,2.967-4.481,6.224-.386,3.258.525,8.106,2.732,14.546,2.207,6.438,4.447,10.748,6.719,12.924,2.273,2.178,4.731,2.812,7.376,1.905,4.163-1.427,4.973-5.847,2.432-13.262l-1.65-4.813-4.098,1.404-.446-1.301,15.61-5.351.446,1.302-3.057,1.047,5.573,16.261-1.236.424c-.342-.997-.91-1.734-1.704-2.214Z"/>
    <path class="st3" d="M181.916,207.393l-1.335.331-3.86-15.548,1.335-.332c1.038,4.183,3.423,7.368,7.155,9.559,3.732,2.191,7.755,2.751,12.071,1.68,1.779-.442,3.084-1.32,3.915-2.637.83-1.315,1.03-2.842.599-4.577-.486-1.957-2.168-3.311-5.046-4.061-1.556-.368-4.216-.901-7.977-1.597-3.762-.695-6.466-1.406-8.109-2.132-3.289-1.45-5.202-3.974-5.741-7.571-.539-3.597.108-6.651,1.941-9.161,1.832-2.509,4.206-4.125,7.12-4.849,2.913-.724,5.635-.985,8.164-.787,2.529.198,3.949.259,4.26.182.889-.221,1.142-1.109.755-2.667l1.335-.331,3.032,12.212-1.335.331c-.795-3.203-2.623-5.523-5.483-6.963-2.861-1.438-6.137-1.7-9.829-.783-1.646.409-2.817,1.208-3.514,2.396-.697,1.189-.901,2.361-.614,3.518.287,1.157.664,2.009,1.13,2.554.466.546,1.152.979,2.057,1.296.905.318,1.686.562,2.342.729.655.169,1.684.361,3.084.581,1.4.219,2.372.379,2.918.479,2.722.506,4.331.803,4.826.892.494.09,1.22.253,2.175.487.955.235,1.688.479,2.2.729.511.252,1.166.561,1.966.929s1.424.792,1.874,1.271c.449.479.918,1.036,1.406,1.67.976,1.27,1.612,2.883,1.91,4.839.538,3.692-.125,6.773-1.991,9.243-1.866,2.471-4.779,4.198-8.738,5.181-3.56.884-7.323.85-11.289-.102-1.356-.324-2.324-.415-2.901-.271-1.646.408-2.248,1.503-1.806,3.282Z"/>
    <path class="st3" d="M250.21,192.438c6.812-.931,9.691-5.256,8.637-12.977l1.363-.187,1.768,12.943-32.018,4.374-.186-1.362,3.406-.466-4.839-35.425-3.406.466-.186-1.362,31.337-4.281,1.582,11.581-1.363.187c-.552-4.042-1.729-6.645-3.53-7.811-1.802-1.165-4.497-1.502-8.084-1.013l-6.131.838,2.233,16.35,2.725-.372c3.27-.446,5.28-1.138,6.032-2.073.751-.935.959-2.629.624-5.081l1.362-.187,1.861,13.625-1.362.186c-.347-2.543-1.006-4.141-1.974-4.796-.969-.653-3.088-.758-6.358-.312l-2.725.372,2.419,17.713,6.812-.931Z"/>
    <path class="st3" d="M293.134,196.364c4.383.784,7.81,1.106,10.282.967s4.283-.771,5.437-1.892c1.152-1.122,1.684-2.483,1.594-4.085l1.373-.078c.298,5.263-.188,9.25-1.457,11.963-1.27,2.711-3.781,4.174-7.533,4.387-3.158.179-6.348-1.018-9.569-3.59-1.347-1.072-2.693-2.145-4.039-3.215-3.222-2.572-6.343-3.772-9.363-3.602-1.922.109-3.868,1.021-5.836,2.741l-.825-1.193c1.391-1.364,2.781-2.373,4.167-3.024,1.385-.653,2.371-1.088,2.956-1.305.806-.367,2.314-.889,4.525-1.564,7.694-2.777,11.206-10.07,10.537-21.877-.347-6.132-1.585-10.745-3.711-13.839-2.127-3.093-4.643-4.558-7.549-4.393-2.907.164-5.138,1.909-6.693,5.234-1.557,3.324-2.175,7.802-1.856,13.431s1.309,9.946,2.972,12.951c1.662,3.005,3.958,4.424,6.887,4.258l.078,1.373c-6.178.351-11.139-.906-14.882-3.771-3.743-2.863-5.784-7.271-6.121-13.221-.337-5.948,1.284-10.953,4.865-15.013,3.58-4.06,8.483-6.266,14.707-6.618,6.223-.353,11.436,1.28,15.635,4.898,4.199,3.619,6.464,8.335,6.793,14.146.192,3.387-.333,6.492-1.573,9.317-1.241,2.825-3.066,5.247-5.476,7.266-4.779,3.989-10.953,6.842-18.523,8.557l.016.274c3.739-.442,7.801-.271,12.184.515Z"/>
    <path class="st3" d="M347.732,172.707c-.064,11.872-5.093,17.781-15.085,17.728-5.547-.03-9.871-1.474-12.972-4.333-3.102-2.858-4.637-7.152-4.606-12.883l.113-21.039-3.438-.019.007-1.375,17.877.097-.007,1.375-3.438-.019-.117,21.796c-.052,9.58,3.131,14.387,9.549,14.421,2.613.015,4.992-1.268,7.137-3.846,2.145-2.578,3.23-6.091,3.254-10.537l.117-21.727-5.432-.029.007-1.375,10.588.057-.007,1.375-3.438-.019-.109,20.352Z"/>
    <path class="st3" d="M374.234,190.421c6.847.632,10.628-2.932,11.344-10.691l1.369.126-1.2,13.009-32.179-2.969.126-1.369,3.423.315,3.285-35.603-3.423-.315.126-1.37,31.495,2.906-1.074,11.639-1.369-.126c.375-4.062-.185-6.863-1.676-8.406-1.492-1.541-4.042-2.479-7.647-2.812l-6.162-.568-1.516,16.432,2.739.253c3.286.304,5.401.084,6.344-.657.942-.742,1.528-2.345,1.756-4.81l1.369.126-1.263,13.693-1.369-.126c.236-2.556-.045-4.262-.84-5.118-.796-.855-2.837-1.436-6.123-1.739l-2.739-.252-1.642,17.801,6.847.632Z"/>
    <path class="st3" d="M392.822,193.878l-1.357-.226,2.625-15.804,1.357.226c-.706,4.251.219,8.121,2.776,11.612,2.557,3.491,6.028,5.602,10.414,6.33,1.808.3,3.354.012,4.64-.867,1.284-.878,2.073-2.2,2.366-3.964.33-1.989-.677-3.898-3.021-5.729-1.282-.956-3.512-2.5-6.689-4.631-3.178-2.131-5.378-3.855-6.599-5.174-2.444-2.636-3.198-5.712-2.266-9.228.932-3.516,2.737-6.062,5.416-7.639,2.677-1.577,5.498-2.119,8.46-1.627,2.961.491,5.564,1.331,7.807,2.516,2.242,1.187,3.522,1.805,3.839,1.857.904.15,1.488-.565,1.751-2.148l1.357.226-2.061,12.412-1.357-.226c.541-3.255-.217-6.11-2.271-8.566-2.056-2.455-4.959-3.995-8.712-4.618-1.673-.278-3.065-.009-4.176.805-1.111.815-1.764,1.811-1.959,2.985-.195,1.177-.188,2.106.024,2.792.211.687.669,1.354,1.375,2.006.704.651,1.325,1.185,1.86,1.599.535.414,1.402.999,2.601,1.756s2.027,1.29,2.488,1.598c2.299,1.544,3.658,2.455,4.077,2.733.418.278,1.019.716,1.804,1.311.783.595,1.36,1.109,1.73,1.542.369.434.848.978,1.436,1.633.588.655.993,1.292,1.216,1.909.222.618.432,1.315.629,2.091.392,1.553.336,3.286-.167,5.199-.971,3.603-2.802,6.169-5.495,7.695-2.693,1.527-6.052,1.957-10.076,1.289-3.618-.601-7.059-2.125-10.323-4.572-1.116-.835-1.968-1.303-2.555-1.4-1.673-.277-2.66.488-2.96,2.297Z"/>
    <path class="st3" d="M466.173,181.679c.97-3.963.964-6.783-.017-8.464-.981-1.679-3.275-2.96-6.881-3.843l-2.004-.49-8.5,34.729,4.675,1.144-.327,1.336-19.368-4.74.327-1.336,4.675,1.145,8.5-34.729-2.004-.49c-3.563-.872-6.167-.79-7.812.247-1.646,1.036-2.954,3.536-3.924,7.498l-1.336-.327,2.779-11.354,35.33,8.647-2.779,11.354-1.336-.326Z"/>
    <path class="st3" d="M501.985,222.376l-2.866-.969c-5.429-1.834-8.811-4.283-10.146-7.348-1.077-2.396-1.414-5.194-1.009-8.396.165-1.347.271-2.594.32-3.738.097-2.58-.918-4.229-3.045-4.948l-2.866-.969-5.327,15.764,3.257,1.101-.44,1.303-16.285-5.503.44-1.303,3.257,1.101,11.446-33.872-3.257-1.101.44-1.303,17.131,5.789c11.074,3.741,15.517,8.848,13.331,15.318-.866,2.562-2.505,4.331-4.914,5.307-2.411.977-5.071.972-7.98-.011l-.154.456c4.342,1.467,6.392,5.354,6.149,11.657-.159,3.334-.01,5.792.448,7.373.457,1.582,1.294,2.578,2.51,2.989l-.44,1.303ZM488.491,177.899l-5.679,16.806c4.342,1.467,7.464,1.821,9.367,1.061,1.901-.761,3.352-2.616,4.35-5.57.998-2.952.971-5.38-.079-7.284-1.051-1.903-3.704-3.574-7.959-5.012Z"/>
    <path class="st3" d="M520.352,229.776l-15.832-6.693.536-1.267,3.166,1.339,13.924-32.932-3.167-1.339.536-1.267,15.832,6.694-.536,1.267-3.167-1.339-13.924,32.932,3.167,1.338-.536,1.267Z"/>
    <path class="st3" d="M561.537,248.975l-.635,1.219-16.036-8.356.636-1.22,3.597,1.875.332-10.604-12.317-6.419-7.953,6.632,4.817,2.511-.635,1.22-10.427-5.435.635-1.219,4.085,2.129,31.44-26.259,1.524.795-1.99,41.606,2.927,1.525ZM538.33,224.475l11.158,5.814.507-15.553-11.665,9.738Z"/>
    <path class="st3" d="M566.983,252.669l4.568,3.065-.766,1.142-9.135-6.13.766-1.143,3.426,2.299,18.237-27.176c-.095-2.492-.675-4.097-1.74-4.812l.766-1.142,10.677,7.165,3.285,29.777,11.992-17.87-4.568-3.064.766-1.143,9.706,6.514-.766,1.142-3.996-2.682-21.072,31.401-1.142-.767-3.724-42.327-17.279,25.749Z"/>
  </g>
  <g>
    <path class="st3" d="M344.109,600.404c-4.743-10.384-11.537-20.767-32.433-36.791-20.895-16.024-36.535-27.69-48.713-39.996-12.178-12.306-25.51-33.458-24.613-60.892,1.923,9.871,7.179,27.049,21.024,42.945s22.562,24.228,43.586,41.278c21.024,17.05,37.817,32.176,41.15,53.456Z"/>
    <path class="st3" d="M348.083,577.714c-10.768-15.64-14.87-19.485-40.509-41.406-25.639-21.921-42.432-34.997-52.046-55.379-9.614-20.383-12.306-36.919-6.666-58.969,5.64-22.049,13.973-35.766,31.023-54.866,17.05-19.101,52.303-35.253,84.607-28.843-14.101,0-24.998.513-39.612,7.435s-25.126,16.921-34.099,30.125c-8.973,13.204-13.588,29.741-14.229,46.534s3.846,35.766,11.537,52.815c7.692,17.05,17.562,34.356,34.868,57.815s21.28,27.561,25.126,44.739Z"/>
    <path class="st3" d="M372.568,592.457c1.154-8.845,3.718-20.895-4.487-38.33-8.204-17.434-11.537-22.306-19.613-33.971-8.076-11.666-20.126-27.946-27.69-47.431-7.563-19.485-8.845-42.047-2.564-62.686,6.281-20.639,16.024-37.048,34.227-50.636-8.076,9.871-13.204,16.921-17.691,31.023-4.487,14.101-2.179,31.535,9.358,38.201,11.537,6.666,18.973,9.999,40.381,8.076-2.82,2.82-6.009,4.044-3.368,9.547,2.641,5.503,12.987,26.525,17.28,33.899,6.384,3.522,7.484,6.824,8.475,13.428.991,6.604,3.192,10.676,7.924,11.556,4.733.88,6.494.77,10.016-3.522,3.522-4.292,7.264-5.723,11.887-10.126,4.623-4.402,3.962-7.484,1.101-14.858-2.862-7.374-5.393-15.299-8.365-34.89-2.972-19.591-6.714-28.286-7.374-33.899s.11-16.839-.44-19.261c-.55-2.421-12.657-28.506-15.189-36.761,2.752-8.035,5.503-12.767,6.824-19.151,8.255-2.752,16.839-6.053,29.166-17.06-.44,8.585-1.321,25.644-17.28,35.99,7.264,12.657,13.758,34.229,13.758,34.229,0,0-12.767-13.317-20.692-14.638,7.484,6.053,15.739,14.528,13.097,24.434s-3.522,11.556-.991,24.104c2.531,12.547,3.192,24.479,5.283,34.307,2.091,9.828,2.972,14.231,5.833,22.045,2.862,7.814,3.302,12.437-.991,16.399-4.292,3.962-9.575,8.695-14.528,13.868-4.953,5.173-11.336,7.594-15.629,4.513-4.292-3.082-4.072-2.862-9.025-3.962-4.953-1.101-10.236-6.494-11.226-12.437-.991-5.943,1.541-12.657,1.541-12.657,0,0-15.299-16.399-23.553-23.993-8.255-7.594-17.06-14.198-29.387-16.509-5.613,5.173-8.255,8.941-8.585,15.972-.33,7.031,2.201,19.798,16.95,40.16,14.748,20.361,24.104,31.037,30.817,43.695,6.714,12.657,13.159,32.228-5.252,51.334Z"/>
    <path class="st3" d="M251.639,524.615c-19.641-11.16-29.164-22.617-35.859-33.33-6.696-10.713-7.02-21.227-7.02-29.854s7.105-20.239,15.731-30.228c8.627-9.989,16.239-18.87,20.933-27.623-2.791,8.246-7.231,21.44-10.403,40.597-3.172,19.157-3.045,35.776.507,49.224,3.552,13.448,7.609,21.323,16.11,31.214Z"/>
    <path class="st3" d="M199.879,479.446c-5.202-8.119-10.276-26.135-9.515-46.433.761-20.299,3.425-47.829,41.993-62.672-9.134,1.269-24.105,5.202-38.567,18.649,3.806-14.59,9.642-28.038,25.754-40.344,16.112-12.306,37.426-23.343,80.434-18.776-7.993-5.202-24.993-13.955-58.486-2.664,12.814-6.978,25.241-11.899,39.93-14.329,14.689-2.43,36.226-.773,51.798,3.976-6.516-5.633-23.525-17.781-56.989-10.161,10.713-5.964,24.031-10.934,40.676-10.824,16.645.11,41.936,5.412,57.178,27.28-2.54-9.167-9.83-26.175-37.993-33.244,14.799.221,40.975,2.098,62.401,31.808,7.51-6.074,12.37-9.83,15.241-13.474-.11,14.026.331,45.282-28.053,48.816,4.749-2.982,8.615-5.743,11.265-13.695,2.651-7.952,9.277-26.175,9.277-26.175,0,0-20.543,15.573-23.745,16.787-3.203,1.215-3.534,1.657-11.486-1.215-7.952-2.872-24.077-7.842-42.19-4.086-18.113,3.755-25.071,7.289-42.521,19.107-17.45,11.817-31.643,22.972-40.34,29.157-8.697,6.185-15.434,10.161-26.478,16.898,13.585-2.982,28.495-10.271,42.19-19.549-12.038,14.358-14.026,19.549-20.653,30.814-6.627,11.265-9.94,14.799-21.868,27.28-11.928,12.48-21.054,24.778-19.252,47.068Z"/>
    <path class="st3" d="M416.645,497.854c-1.465-7.602-1.649-17.311,2.29-19.509s9.984-1.649,11.266,3.481c1.282,5.129-.778,7.694-7.259,13.098,1.946-7.053,2.404-10.442,1.763-13.556-3.481,5.77-4.946,7.969-8.06,16.487Z"/>
    <path class="st3" d="M407.834,422.681c-2.927-7.368-5.551-12.919-14.634-19.479-9.083-6.56-10.9-12.414-15.139-30.379,4.643,9.487,6.257,13.726,12.818,15.543,6.56,1.817,9.386,2.725,12.414,5.854,0-2.019-3.734-5.652-3.734-5.652,0,0,4.845,1.514,7.469,9.184,2.624,7.67,6.706,27.25,6.706,27.25l-5.899-12.01s.018,6.661,0,9.689Z"/>
  </g>
</svg>