<?xml version="1.0" encoding="UTF-8"?>
<svg id="Safari_Kings_1" xmlns="http://www.w3.org/2000/svg" version="1.1" viewBox="0 0 640.919 849.332">
  <!-- Generator: Adobe Illustrator 30.3.0, SVG Export Plug-In . SVG Version: 2.1.3 Build 182)  -->
  <defs>
    <style>
      .st0, .st1, .st2 {
        fill: none;
      }

      .st3 {
        fill: #c19558;
      }

      .st1 {
        stroke-width: 8px;
      }

      .st1, .st2 {
        stroke: #c19558;
        stroke-miterlimit: 10;
      }

      .st2 {
        stroke-width: 18px;
      }

      .st4 {
        fill: #11281a;
      }
    </style>
  </defs>
  <path class="st4" d="M352.525,230.85c41.791.721,106.196,25.082,155.184,34.974,48.988,9.892,65.398,35.936,65.398,35.936,0,0,6.946,66.76-2.456,108.464-9.402,41.704-23.57,116.296-56.8,160.929-33.23,44.633-78.096,70.974-108.006,86.739-29.911,15.764-84.56,36.754-84.56,36.754,0,0-90.792-13.684-149.743-74.232-58.95-60.548-77.018-109.081-95.294-167.718s-10.058-150.935-10.058-150.935c0,0,53.371-36.729,122.061-55.12s126.561-16.44,164.274-15.79Z"/>
  <path class="st2" d="M573.107,301.76c0,92.619,4.482,179.761-59.257,269.393-46.334,65.157-118.728,104.072-192.567,123.493-52.925-12.947-137.577-45.314-192.85-120.505-37.405-50.885-66.726-121.003-62.244-272.381,43.82-27.387,122.995-72.203,253.266-72.203,0,0,138.624-7.469,253.651,72.203Z"/>
  <path class="st3" d="M244.441,125.184c-4.319-23.628-11.687-44.207-22.612-58.943,19.309,5.843,16.808,5.155,22.612,7.288,5.803,2.133,5.415,5.041,2.507,11.051-2.908,6.01,0,14.153,10.47,13.766s15.123-4.653,14.153-16.674c-4.653-3.102-8.531-14.382-.582-15.431,7.949-1.049,11.051,7.288,6.786,13.88,3.878,5.816,9.5,9.888,19.001,8.919,9.5-.969,13.96-6.98,13.766-16.092s-2.714-9.694-13.378-12.602c11.827-13.184,22.878-31.409,22.878-31.409,0,0,14.347,22.878,19.776,31.797-7.755,1.939-13.572,5.235-12.021,13.184,1.551,7.949,7.174,15.317,16.868,15.123,9.694-.194,13.766-2.714,16.092-8.531-3.684-7.755-2.714-16.48,6.01-15.123,8.725,1.357,8.919,14.929,0,16.286-.969,6.398,4.072,17.643,13.766,17.256s17.062-5.429,12.99-13.766-6.204-9.888,4.072-13.184,22.49-6.786,22.49-6.786c0,0-13.572,13.736-24.429,59.992-19.97-7.062-48.471-9.582-76.39-9.582s-50.189,3.072-74.826,9.582Z"/>
  <path class="st1" d="M246.878,135.043c33.154-8.337,86.841-15.081,146.558.623"/>
  <path class="st3" d="M319.456,814.576c-33.875,0-180.731-13.512-258.248-140.1,38.403,37.692,122.676,124.099,258.248,124.099,0,0,141.072,9.245,258.414-124.099-13.157,28.447-105.745,140.1-258.414,140.1Z"/>
  <g>
    <path class="st0" d="M61.207,657.892c38.403,37.692,122.676,124.099,258.248,124.099,0,0,141.072,9.245,258.414-124.099"/>
    <path class="st3" d="M215.417,763.317l-.829,1.756-22.834-10.774.829-1.757,3.952,1.865-1.611-26.853-5.885,2.914-7.874,16.687,4.392,2.072-.829,1.756-21.956-10.36.829-1.756,4.392,2.072,21.549-45.669-4.392-2.072.829-1.757,21.956,10.36-.829,1.757-4.391-2.072-12.226,25.908,32.601-16.294-8.08-3.812.829-1.757,17.916,8.454-.828,1.757-7.466-3.522-16.579,8.283,2.759,41.032,3.776,1.782Z"/>
    <path class="st3" d="M260.254,776.547l-23.619-5.616.449-1.89,4.724,1.123,11.681-49.128-4.724-1.123.449-1.89,23.619,5.616-.449,1.89-4.724-1.123-11.681,49.128,4.724,1.123-.449,1.89Z"/>
    <path class="st3" d="M291.258,779.38l7.766.219-.055,1.941-15.531-.438.055-1.941,5.824.164,1.305-46.206c-1.991-2.905-3.893-4.384-5.704-4.436l.055-1.941,18.152.513,26.365,33.095.857-30.384-7.766-.219.055-1.941,16.502.466-.055,1.941-6.795-.192-1.507,53.39-1.941-.055-36.346-47.755-1.236,43.78Z"/>
    <path class="st3" d="M406.787,766.052c-1.048-.785-2.219-1.027-3.51-.727-1.293.302-2.492,1.147-3.597,2.535-1.106,1.39-2.428,2.845-3.967,4.366-1.54,1.521-3.571,2.579-6.092,3.167-8.574,2.002-15.726,1.345-21.452-1.973-5.727-3.316-9.657-9.546-11.791-18.688-4.459-19.104,2.231-30.737,20.074-34.901,3.216-.751,6.693-.73,10.435.057,3.74.79,5.989,1.096,6.746.919s1.294-.717,1.615-1.624c.32-.905.393-1.736.216-2.493l1.797-.42,4.481,19.198-1.892.441c-1.118-4.791-3.996-8.641-8.629-11.548-4.635-2.907-9.41-3.787-14.328-2.64-3.782.884-6.178,3.586-7.182,8.108-1.006,4.523-.415,11.466,1.771,20.828,2.185,9.362,4.72,15.735,7.604,19.116,2.884,3.383,6.247,4.625,10.094,3.727,6.053-1.412,7.82-7.509,5.304-18.29l-1.634-6.998-5.957,1.391-.441-1.892,22.696-5.298.441,1.892-4.445,1.038,5.519,23.642-1.796.42c-.339-1.45-1.033-2.567-2.08-3.354Z"/>
    <path class="st3" d="M441.2,757.737l-1.751.841-9.789-20.4,1.751-.84c2.634,5.487,6.844,9.211,12.632,11.173,5.789,1.962,11.514,1.584,17.176-1.133,2.334-1.12,3.887-2.709,4.66-4.768.771-2.057.611-4.225-.481-6.501-1.231-2.567-3.945-3.958-8.142-4.172-2.257-.064-6.088-.04-11.489.074-5.402.115-9.345-.094-11.826-.627-4.964-1.064-8.332-4.008-10.106-8.829-1.775-4.82-1.755-9.229.062-13.226,1.815-3.994,4.636-6.91,8.46-8.744,3.822-1.835,7.512-2.976,11.066-3.426,3.555-.448,5.535-.771,5.944-.968,1.167-.56,1.262-1.86.28-3.904l1.752-.84,7.688,16.021-1.751.841c-2.017-4.203-5.209-6.889-9.576-8.062-4.369-1.17-8.975-.594-13.819,1.73-2.16,1.036-3.551,2.477-4.175,4.319-.623,1.844-.57,3.523.157,5.041.729,1.519,1.492,2.587,2.293,3.208.801.622,1.873,1.023,3.217,1.203,1.343.182,2.493.295,3.447.338.954.046,2.433.019,4.432-.08,2-.098,3.39-.153,4.173-.171,3.91-.08,6.22-.13,6.931-.147.708-.018,1.759,0,3.147.051,1.389.053,2.473.179,3.252.379.778.202,1.773.441,2.985.722s2.196.688,2.955,1.221c.759.535,1.566,1.17,2.423,1.907,1.714,1.477,3.056,3.525,4.027,6.146,1.801,4.952,1.766,9.403-.108,13.354-1.875,3.95-5.409,7.173-10.604,9.665-4.671,2.241-9.885,3.271-15.644,3.091-1.968-.061-3.332.091-4.09.454-2.16,1.037-2.679,2.724-1.56,5.057Z"/>
  </g>
  <g>
    <path class="st0" d="M19.4,558.351s2.751-100.63.103-175.04c-2.648-74.409,46.686-104.77,46.686-104.77,43.82-27.387,122.995-72.203,253.266-72.203,0,0,138.624-7.469,253.651,72.203,0,0,75.336,53.417,84.605,140.794"/>
    <path class="st3" d="M193.742,221.635l-1.574.355-4.134-18.346,1.574-.354c1.112,4.935,3.83,8.734,8.153,11.4,4.324,2.666,9.031,3.426,14.124,2.278,2.099-.473,3.652-1.471,4.661-2.995,1.008-1.522,1.281-3.309.82-5.356-.521-2.309-2.46-3.94-5.818-4.894-1.817-.472-4.925-1.166-9.321-2.078-4.397-.912-7.553-1.814-9.463-2.708-3.823-1.786-6.003-4.797-6.544-9.033-.541-4.235.296-7.803,2.512-10.701,2.214-2.898,5.041-4.735,8.479-5.51,3.438-.774,6.639-1.012,9.602-.715,2.963.298,4.628.405,4.995.322,1.05-.237,1.368-1.273.954-3.111l1.575-.355,3.246,14.409-1.574.355c-.852-3.78-2.938-6.549-6.258-8.312-3.321-1.761-7.159-2.151-11.516-1.17-1.943.438-3.338,1.346-4.186,2.722-.848,1.377-1.118,2.748-.811,4.112.308,1.366.728,2.374,1.261,3.025.532.653,1.326,1.178,2.381,1.573,1.055.397,1.965.703,2.73.916.764.214,1.967.467,3.604.76s2.774.506,3.412.638c3.182.663,5.062,1.052,5.641,1.169.577.118,1.425.328,2.541.627,1.115.301,1.969.604,2.563.912.593.309,1.354.688,2.283,1.14.93.453,1.651.966,2.167,1.539.515.575,1.052,1.24,1.608,1.996,1.113,1.515,1.818,3.425,2.118,5.728.537,4.347-.319,7.946-2.573,10.797-2.253,2.852-5.716,4.804-10.387,5.857-4.2.946-8.616.81-13.247-.407-1.583-.415-2.716-.546-3.397-.393-1.943.438-2.677,1.707-2.204,3.806Z"/>
    <path class="st3" d="M280.669,205.457l.194,1.603-21.071,2.562-.195-1.602,4.728-.575-6.723-10.484-16.185,1.968-3.293,11.702,6.33-.77.194,1.602-13.701,1.666-.194-1.602,5.368-.653,12.989-46.298,2.003-.243,25.71,41.592,3.846-.468ZM241.933,197.159l14.662-1.783-9.84-15.39-4.822,17.173Z"/>
    <path class="st3" d="M319.464,160.839l.433,13.714-1.613.051c-.151-4.786-1.208-7.969-3.168-9.55-1.962-1.58-5.066-2.303-9.314-2.169l-7.261.229.667,21.136,3.227-.102c3.872-.122,6.304-.683,7.295-1.684s1.441-2.953,1.35-5.857l1.613-.051.51,16.134-1.614.051c-.095-3.012-.668-4.958-1.718-5.841-1.052-.882-3.513-1.262-7.385-1.14l-3.227.102.605,19.2,4.84-.152.051,1.613-20.975.662-.051-1.614,4.034-.127-1.323-41.949-4.034.127-.051-1.613,37.109-1.17Z"/>
    <path class="st3" d="M374.077,206.34l-.081,1.612-21.2-1.075.082-1.612,4.756.241-4.833-11.478-16.283-.826-5.243,10.967,6.368.323-.082,1.612-13.784-.699.082-1.612,5.401.274,20.707-43.398,2.015.102,18.227,45.373,3.869.196ZM337.329,191.546l14.751.748-7.065-16.845-7.686,16.097Z"/>
    <path class="st3" d="M423.087,216.467l-3.509-.547c-6.646-1.036-11.049-3.192-13.205-6.469-1.726-2.556-2.676-5.727-2.848-9.511-.079-1.591-.205-3.055-.378-4.388-.403-3.004-1.908-4.708-4.513-5.114l-3.509-.547-3.008,19.299,3.987.621-.248,1.595-19.938-3.107.248-1.595,3.988.622,6.462-41.47-3.987-.622.249-1.595,20.974,3.269c13.558,2.113,19.719,7.13,18.484,15.052-.489,3.138-2.03,5.511-4.622,7.122-2.594,1.611-5.671,2.139-9.232,1.583l-.087.558c5.315.829,8.465,4.914,9.444,12.254.483,3.888,1.147,6.701,1.993,8.438.845,1.739,2.013,2.724,3.501,2.956l-.248,1.595ZM398.581,167.721l-3.207,20.575c5.316.829,8.999.614,11.047-.647,2.048-1.26,3.354-3.697,3.917-7.313.563-3.615.047-6.418-1.548-8.41-1.597-1.991-4.999-3.393-10.209-4.205Z"/>
    <path class="st3" d="M445.762,221.457l-19.636-4.646.372-1.571,3.927.929,9.664-40.842-3.927-.929.371-1.571,19.636,4.646-.371,1.571-3.928-.929-9.664,40.843,3.928.929-.372,1.571Z"/>
  </g>
  <g>
    <path class="st3" d="M234.846,427.063c-3.927,4.084-10.368,15.237-12.017,25.133-1.649,9.896-1.1,17.829.943,31.024,2.042,13.195,2.121,22.699,2.121,22.699,0,0-10.76,8.797-26.783,8.797s-23.484-4.791-27.568-10.21c6.676,1.964,17.593,2.278,25.133-1.728-7.54.393-12.724-1.178-17.201-4.241,10.289-.079,19.478-2.513,29.218-7.383,9.739-4.87,13.116-14.216,9.818-24.898-3.299-10.682-6.066-25.26-1.492-35.265,5.027-10.996,13.823-18.3,30.239-16.965,0,0,17.672-15.708,51.995-7.147-8.247,8.64-15.237,18.143-19.086,27.49-3.849,9.346-3.159,20.061,2.356,24.741,5.184,4.398,11.624,7.147,26.861,4.084,0,0,.157-20.892,7.069-36.051-11.703,7.304-17.75,11.074-22.62,10.603-4.87-.471-5.891-5.498,1.492-14.452,7.383-8.954,11.938-15.63,7.933-20.892-4.006-5.262-7.069-8.954-6.362-14.295.707-5.341,7.226-7.226,15.63-4.791v-4.791s6.676,5.027,17.436,6.048c-9.504-3.77-17.986-6.912-22.856-17.672-4.87-10.76-4.163-30.396-3.22-34.166.943-3.77,2.356-5.105,6.912-7.383,4.555-2.278,7.304-4.477,9.739-7.226,8.404,7.776,20.421,18.536,20.421,18.536v-12.645s4.477,1.492,8.718,5.262,5.576,7.383,6.126,15.237c.55,7.854,4.32,16.886,8.09,22.306s4.398,6.362,6.519,8.483c-1.1,3.299-2.67,4.555-7.304,2.199-4.634-2.356-10.996-6.833-12.724-24.819-1.021,5.812-1.492,14.059,1.728,22.227-7.383-3.377-12.095-5.812-17.436-8.561-5.341-2.749-11.781-8.168-11.938-18.143-1.571,2.67-2.828,13.431,5.419,18.3,8.247,4.87,12.567,9.268,10.682,19.164,2.435,3.691,5.184,7.619,9.032,5.341,3.849-2.278,7.383.471,7.776,4.634.393,4.163-.864,5.027-6.44,7.383s-11.31,6.519-12.017,13.391-.943,13.941-6.44,21.717-6.598,9.739-9.268,17.279c-2.67,7.54-5.419,15.944-4.87,20.028,5.027-10.053,7.776-15.237,7.776-15.237,0,0,9.739,1.885,15.001-3.456,5.262-5.341,8.561-14.687,11.86-30.553,3.299-15.865,4.398-25.29,4.398-25.29l8.718-9.032s21.049,12.724,52.152,24.544c-1.728,2.081-3.142,4.752-4.163,8.6-14.295-8.64-43.905-26.311-43.905-26.311,0,0,19.243,14.766,42.962,28.668-.236,5.341-.785,6.676.393,18.614,1.178,11.938,1.964,23.248-1.728,33.616-3.691,10.368-6.44,12.959-9.504,15.001-4.163-2.749-12.41-12.095-15.63-33.459-.471,8.09-.707,22.934,5.734,31.888,6.44,8.954,10.446,10.603,19.95,16.494,9.504,5.891,11.624,9.111,11.624,14.138s1.492,14.687,5.655,22.699c4.163,8.011,5.576,12.331,6.598,17.986,1.021,5.655,2.199,6.755,5.262,10.682,3.063,3.927,4.398,6.44,4.398,9.975s-2.121,5.027-9.268,3.927c-7.147-1.1-9.582-4.084-8.875-10.603.707-6.519,1.257-7.697-2.121-12.331-3.377-4.634-4.791-7.461-5.341-14.53-.55-7.069-1.257-10.289-6.598-17.829-5.341-7.54-8.561-11.31-15.237-13.745-6.676-2.435-16.337-5.498-28.432-11.31-12.095-5.812-17.122-10.132-20.971-13.823-3.849-3.691-5.027-8.875-5.498-12.645-1.728,3.456-.314,15.159,7.54,20.499-11.389-.079-27.647-.785-45.79-4.634-18.143-3.849-25.762-7.461-34.166-13.98,2.828-4.084,8.64-15.001,5.969-27.49-2.513,11.467-4.163,17.279-11.467,26.626-7.304,9.346-14.687,17.122-18.771,25.448s-4.163,9.032-6.205,15.08c-2.042,6.048-4.87,11.31-11.703,20.578-3.613,12.488-6.519,24.584-7.226,29.846-.707,5.262.864,7.854,1.964,12.724,1.1,4.87,1.257,8.64-1.649,8.954-2.906.314-9.818,1.021-12.881,0-3.063-1.021-2.985-3.534-1.178-8.797,1.806-5.262,1.806-7.147,1.885-11.938.079-4.791.471-7.54,4.398-17.201,3.927-9.661,4.713-13.509,5.341-21.128.628-7.619,1.1-9.346,4.791-14.923,3.691-5.576,7.697-11.703,7.147-16.808-.55-5.105-3.377-21.52-3.534-33.223-.157-11.703-.157-19.871,3.063-29.453,3.22-9.582,3.063-9.739,5.498-15.237Z"/>
    <path class="st3" d="M228.719,466.491c-.471-8.875,1.631-24.646,7.461-34.522,7.069-11.975,11.153-15.273,21.52-20.222,0,0,21.285-8.325,35.344-2.985-13.98-.628-22.62-.471-34.244,5.105,0,0-11.467,5.734-16.572,13.509-5.105,7.776-9.564,14.972-13.509,39.114Z"/>
    <path class="st3" d="M284.523,496.28c7.328,2.858,17.441,5.203,27.261,6.595-8.427,6.815-15.975,11.066-23.597,15.902-7.621,4.837-11.945,9.673-7.401,14.656,4.543,4.983,12.144,14.363,14.499,19.859,2.356,5.496,1.696,7.401.377,11.359-1.319,3.957.293,9.82.44,16.049.147,6.229-.953,11.359-4.397,11.139-3.444-.22-11.768-5.496-12.772-8.867-1.005-3.371-.199-5.716,3.026-9.38,3.224-3.664,6.962-10.186,3.224-15.609-3.737-5.423-19.493-25.356-21.398-28.214-1.905-2.858-3.664-7.621,2.711-12.238,6.376-4.617,15.389-11.432,18.027-21.252Z"/>
    <path class="st3" d="M367.478,512.622l17.661,7.182s-8.94,12.898-17.661,27.114c-8.721,14.217-11.872,19.566-13.557,24.696-1.685,5.13-2.198,9.966,3.884,15.682,6.082,5.716,6.082,9.744,6.082,9.744h-19.127s2.638-8.791-.66-14.434c-3.298-5.643-3.884-7.401-.366-14.876,3.518-7.475,10.479-22.791,15.609-35.835,5.13-13.044,6.147-15.294,8.134-19.273Z"/>
    <path class="st3" d="M416.92,414.151c-13.05-5.22-37.352-13.867-52.041-22.85,2.243-2.676,5.424-6.771,11.19-12.234-3.399-1.821-3.625-3.594-2.053-5.51,1.572-1.916,4.078-.54,4.078-.54,0,0-1.327-2.85.344-4.766s4.176-.59,4.176-.59c0,0-.688-2.604.835-4.275,1.523-1.671,4.176-.737,4.176-.737,0,0-1.228-2.801,1.081-4.422s4.717.197,4.717.197c0,0-1.818-2.997.835-4.324s4.52.737,4.52.737c0,0-.934-3.341,2.162-4.422s4.52,1.769,4.52,1.769c0,0-.934-3.144,1.621-4.275,2.555-1.13,4.127,1.818,4.127,1.818,0,0-.934-2.653,1.769-4.029s3.685,1.769,3.685,1.769c0,0-.393-2.064,2.064-2.85,2.457-.786,3.095,1.72,3.095,1.72,0,0-.147-1.239,2.506-1.872s2.113,4.231,2.113,4.231l3.292.393s-2.211,5.601-1.425,13.118c1.72-5.454,4.471-17.884,8.991-21.766.59,10.613,1.867,25.451,1.867,25.451,0,0,1.277-3.39,2.506-12.627,5.798.639,10.269,5.11,10.269,5.11,0,0,10.318-5.896,15.428-11.35.098,1.671-4.029,12.234-10.072,19.997,2.604,12.578,2.751,16.705.639,19.407-2.113,2.702-6.879,5.405-12.971-1.13-6.092-6.535-9.483-11.006-13.364-11.546-3.881-.54-8.549-.59-14.445,2.85-5.896,3.439-8.353,8.5-8.795,13.511-.442,5.012,1.299,16.48,8.56,24.036Z"/>
    <path class="st3" d="M422.51,415.958v-2.457s-4.962-4.913-7.566-11.644c-2.604-6.731-3.046-18.13-.295-20.832,2.751-2.702,8.254-4.766,13.855-4.569s8.844,3.685,11.792,8.598,8.647,10.957,18.474,5.601c-.197,2.064-2.113,4.618-4.373,7.616-2.26,2.997-3.144,6.535-3.636,10.809-.491,4.275-.934,9.188-.934,9.188,0,0-1.818-1.769-8.696-2.948-6.879-1.179-18.67.54-18.621.639Z"/>
    <path class="st3" d="M423.1,419.447c4.668-.983,18.916-1.769,26.335,2.604-.54,9.09-.344,15.231-.59,18.376-.246,3.144-2.064,4.913-9.335,4.618-4.864,1.72-8.844,2.408-12.185-1.523s-5.11-7.04-5.749-11.553c-.639-4.513,1.72-6.675,1.72-6.675,0,0-.197-2.653-.197-5.847Z"/>
    <path class="st3" d="M372.22,392.388l-2.909-1.633s7.503-9.749,15.262-17.303,23.914-23.242,41.242-21.591c-6.942,1.327-13.628,2.96-24.653,10.566-11.025,7.605-23.122,20.57-28.941,29.962Z"/>
    <path class="st3" d="M335.473,319.809c-3.166-.535-9.899-5.93-12.351-8.249-2.452-2.319-3.879-5.618-3.968-8.383-2.72-.892-3.879-3.523-2.987-8.873.892-5.351,5.395-12.084,13.332-12.039,7.937.045,12.039,3.924,15.249,8.606s2.675,8.294,1.784,8.829c-.892.535-3.433.089-3.433.089,0,0,.847,10.345-2.096,10.791v-4.86h-1.784s-2.229,4.37-4.281-1.784c-3.478-1.07-6.153-3.701-6.153-3.701h-3.166s-.357,6.019.223,7.625c.58,1.605,4.281,7.714,8.918,8.784,1.293-1.159,3.032-1.427,2.898-.223-.134,1.204-.803,3.656-2.185,3.389Z"/>
  </g>
</svg>