<?xml version="1.0" encoding="UTF-8"?>
<svg id="Show_Jumping_Kings" xmlns="http://www.w3.org/2000/svg" version="1.1" viewBox="0 0 640.919 849.332">
  <!-- Generator: Adobe Illustrator 30.3.0, SVG Export Plug-In . SVG Version: 2.1.3 Build 182)  -->
  <defs>
    <style>
      .st0, .st1 {
        fill: none;
      }

      .st2 {
        fill: #c19558;
      }

      .st1 {
        stroke: #c19558;
        stroke-miterlimit: 10;
        stroke-width: 17px;
      }

      .st3 {
        fill: #11281a;
      }
    </style>
  </defs>
  <path class="st3" d="M262.335,135.759c3.077-11.54,33.006-20.717,33.006-20.717l35.69-2.458s44.367,4.916,56.306,11.587,10.534,20.27-4.565,22.6-7.985,4.788-36.823,3.032-67.111.596-67.111.596c0,0-17.908-9.374-16.503-14.641Z"/>
  <path class="st3" d="M348.026,188.252c29.246.354,108.92,15.866,151.189,25.226s109.362,37.45,109.362,37.45c0,0,4.094,68.486,0,113.766s-11.228,134.253-26.169,173.518c-14.941,39.266-31.325,80.416-63.512,119.006s-83.085,82.565-118.909,107.453-69.43,43.264-69.43,43.264c0,0-91.753-54.795-139.679-98.911s-95.515-122.234-114.382-176.751c-18.867-54.517-22.955-165.112-24.598-196.368s0-83.261,0-83.261c0,0,54.706-28.052,124.672-46.662s127.932-18.259,171.457-17.732Z"/>
  <path class="st1" d="M335.916,188.071c86.73,0,192.432,28.729,272.658,65.048,0,88.356.951,221.078-34.103,307.251-35.054,86.174-94.207,162.123-243.915,247.567-82.522-43.817-184.762-123.418-230.77-213.243-37.52-73.253-47.469-186.223-50.39-341.043,96.398-38.705,167.001-65.579,286.52-65.579Z"/>
  <path class="st2" d="M335.101,218.438c76.529,0,169.798,25.35,240.587,57.397,0,77.964.839,201.162-30.091,277.199-30.931,76.038-83.126,143.054-215.226,218.448-72.816-38.663-163.03-108.902-203.627-188.161-33.107-64.637-41.885-170.406-44.463-307.017,85.059-34.153,147.359-57.866,252.819-57.866Z"/>
  <path class="st2" d="M442.022,87.766c13.585,26.627-5.162,44.016-19.291,44.016s-28.996-14.401-28.8-30.431c.272-22.28,27.442-23.91,27.442-23.91l-5.706-52.71s-17.661,16.846-38.038,37.767c9.238,6.249,11.14,10.325,11.14,17.389,0,16.302-17.661,29.887-29.887,29.887s-22.008-10.325-22.551-29.344c-.543-19.019,17.117-23.095,17.117-23.095l-22.551-41.027s-9.781,15.759-25.268,41.57c13.042,5.162,16.574,5.977,16.574,25.54s-11.14,26.627-21.736,26.627c-17.117,0-27.714-16.846-27.714-27.985s10.325-19.834,10.325-19.834l-37.767-37.767s-1.902,18.747-5.977,52.71c16.03,1.087,27.442,13.313,27.442,27.442s-14.4,27.17-28.257,27.17-25.812-15.759-25.812-26.899,4.619-16.846,4.619-16.846l-40.755-19.563,45.918,94.009c110.311-19.563,215.731,0,215.731,0l47.276-93.465s-17.389,7.608-43.472,18.747ZM291.65,146.103c-6.343,0-11.484-4.443-11.484-9.923s5.142-9.923,11.484-9.923,11.484,4.443,11.484,9.923-5.142,9.923-11.484,9.923ZM330.563,145.88c-8.498,0-15.387-6.44-15.387-14.383s6.889-14.383,15.387-14.383,15.387,6.44,15.387,14.383-6.889,14.383-15.387,14.383ZM369.197,146.772c-6.004,0-10.871-4.867-10.871-10.871s4.867-10.871,10.871-10.871,10.871,4.867,10.871,10.871-4.867,10.871-10.871,10.871Z"/>
  <g>
    <path class="st3" d="M233.693,392.844c-.459.253-1.203,1.789-1.203,1.789,0,0,.111-1.63,1.203-1.789Z"/>
    <path class="st3" d="M237.571,392.084s6.11.222,10.637,1.472,5.777,1.472,5.777,1.472c0,0-.079-1.33,2.263-1.171-.475.665-.886,1.314-.981,3.213-1.852.839-2.331.878-3.684,2.722s-1.797,4.41-1.307,6.884c.49,2.474,1.19,4.154,1.19,4.154l-.957,3.057s-.607-2.824-2.334-6.044c-1.727-3.22-7.138-11.425-10.605-15.758Z"/>
    <path class="st3" d="M256.086,399.582c-2.404.817-3.897,2.824-3.944,5.017-.047,2.193,1.587,4.597,1.587,4.597l2.894-1.517-.91-.42,1.867-1.867s.327-4.06-1.493-5.81Z"/>
    <path class="st3" d="M258.676,406.886c-1.19,1.027-1.983,2.754-2.964,4.014s-1.26,1.657-2.94,2.217c-.49,2.52-1.727,4.06-1.727,4.06,0,0,1.447-5.997,2.45-6.277s1.304-.35,2.752-2.123c1.448-1.773,1.611-1.867,2.428-1.89Z"/>
    <path class="st3" d="M273.472,465.465c-1.12.929-3.86,2.24-3.86,2.24l1.93,3.478s2.263-1.31,3.884-1.93c-.667-1.191-1.549-2.287-1.954-3.788Z"/>
    <path class="st3" d="M276.903,472.136c-1.858.905-3.216,1.263-4.384,1.596,1.167,1.763,2.025,3.645,2.025,3.645,0,0,2.668-1.287,4.432-2.383-.858-1.12-1.501-2.097-2.073-2.859Z"/>
    <path class="st3" d="M276.664,464.417c.691.095,1.12,2.12.262,2.073s-1.263-1.525-.262-2.073Z"/>
    <path class="st3" d="M279.261,469.444c.905-.071,1.239,1.93.405,2.025s-1.574-1.556-.405-2.025Z"/>
    <path class="st3" d="M297.726,462.868c-1.596.453-2.645.667-4.289.619.572,1.739,1.096,3.145,1.239,4.003,1.31-.905,2.549-1.12,3.86-1.215-.453-1.644-.477-2.311-.81-3.407Z"/>
    <path class="st3" d="M299.37,468.991c-1.596.524-2.668,1.072-4.146,1.001.619,1.978.834,2.668.953,3.741,2.025-.5,3.55-.572,4.932-.762-1.024-1.334-1.525-2.216-1.739-3.979Z"/>
    <ellipse class="st3" cx="300.394" cy="463.297" rx=".715" ry="1.024" transform="translate(-133.097 121.294) rotate(-18.77)"/>
    <ellipse class="st3" cx="302.253" cy="468.872" rx=".548" ry="1.12" transform="translate(-156.072 150.854) rotate(-22.437)"/>
    <path class="st3" d="M426.27,520.71c2.27,2.149,4.66,3.722,8.11,6.022-4.661-5.145-5.629-6.718-7.959-10.955s-3.269-10.471-3.42-15.857c-.151-5.387.666-9.896,1.513-16.704.848-6.809-.151-12.649-.877-17.219-.726-4.57-2.451-7.989-2.451-7.989,0,0,2.421,1.785,2.845,1.695-2.209-3.299-2.693-3.964-5.266-8.14-2.572-4.176-3.692-5.477-7.111-9.048-3.42-3.571-7.989-4.721-7.989-4.721,0,0-2.179-3.238-5.205-7.051s-7.354-7.323-14.072-10.682c-6.718-3.359-10.259-4.237-10.259-4.237,0,0-2.179-1.634-3.389-3.117,2.027-3.662-2.663-5.023-2.663-5.023,0,0,1.997-.061,3.177-.666s1.15-1.574-.726-2.663-7.747-.938-7.747-.938l-3.419-8.08s2.663-6.204,4.479-10.168c1.816-3.964,1.907-8.594.938-12.407-.968-3.813-3.268-7.323-3.268-7.323,0,0,2.542-2.209,4.328-3.601,1.785-1.392.454-2.088-1.876-2.905s-14.011-5.266-14.011-5.266l-3.389-5.901s-1.907-7.989-2.512-9.29c-.605-1.301-3.692-3.359-9.2-6.537s-7.989-4.085-10.924-5.508c1.422-.424,1.574-1.634,1.392-4.57-.182-2.935-.878-5.931-2.754-8.625-1.876-2.693-5.689-5.447-11.409-5.296-5.72.151-9.714,3.783-11.288,6.748-1.574,2.966-2.028,8.625-2.028,8.625,0,0-2.996,2.179-2.965,2.814s1.604.968,5.205,1.059c.03,2.36,1.15,4.237,1.15,4.237,0,0-2.361,1.392-4.358,2.239-1.997.847-2.058.726-3.359,3.662-1.301,2.935-2.058,8.746-2.058,8.746l-2.996-.121s1.997-1.241,2.451-1.997c-2.3.242-6.052,1.12-6.052,1.12,0,0,3.843-3.934,5.75-5.75-1.786.605-6.809,3.026-6.809,3.026,0,0,3.026-4.267,3.904-5.447-5.447,2.845-9.956,2.754-9.956,2.754,0,0,1.998-1.574,2.693-2.27-3.692.635-6.506,1.059-11.469,1.816.999-1.029,2.058-1.755,4.721-2.512-3.026-.212-5.145.242-8.473,1.695.847-.968,1.725-2.058,3.329-3.177-3.147.484-5.326,2.149-8.08,4.63-.726-2.845-2.179-4.993-4.509-7.868-2.33-2.875-4.933-3.692-4.933-3.692,0,0,.03,2.935-.508,5.871-.538,2.935,0,6.627,0,6.627,0,0-1.58-.817-2.851-1.422-1.271-.605-1.241-1.483-1.392-3.177-.938.757-1.059,1.634-1.089,3.813-1.15-.635-1.634-2.088-1.634-2.088,0,0-.121,1.816-.242,4.479-4.448-2.179-7.444-5.326-9.018-7.172-1.574-1.846-2.814-3.48-4.267-4.206.303,4.146,1.513,9.623,2.905,11.953,1.392,2.33,3.268,6.113,5.326,9.926-2.239,1.967-1.876,3.783-1.029,5.326-.726,3.117-2.572,5.962-4.448,8.413-1.876,2.451-1.695,4.327-.605,5.841.484,2.028.787,3.147,1.483,5.871.696,2.724.545,8.322-.182,10.924-3.48,1.725-2.603,4.055-1.997,7.202-.424,2.693.061,3.329.605,4.327-1.241,4.57-1.967,6.748-3.541,9.593s-.756,4.358.666,7.596c1.422,3.238,2.481,5.084,3.783,8.201s3.692,3.087,5.568,2.572c1.665.182,3.692.666,5.145-.454,1.846-.121,2.663-.303,4.358-1.816,1.694-1.513,2.542-3.087,2.451-5.659-.091-2.572-2.603-8.292-5.205-13.073-2.603-4.781-5.659-9.321-9.048-13.224-1.422,6.597-3.329,9.563-3.329,9.563l.696-7.656-1.815,2.845s.242-2.542-.061-4.267c-.303-1.725-.545-2.482.272-3.843.817-1.362,2.996-1.937,2.996-1.937,0,0,1.15-7.747,1.997-12.831.848-5.084,0-7.021-1.543-8.443,1.483-1.755,3.329-3.783,3.692-5.719.363-1.937,2.421-3.571,2.421-3.571,0,0,1.15.303,2.36.787.272,1.755.605,2.028,1.906,4.025,0,1.604,2.028,2.784,2.028,2.784,0,0-.847,1.816-1.786,4.388-2.148.242-3.147,1.301-4.297,3.995-1.15,2.693-2.784,7.929-3.571,13.951,3.329,0,5.72.454,10.198,1.695,4.479,1.241,5.417,1.271,6.779.968,1.362-.303,2.663-3.874,4.025-8.806s2.603-12.468,2.996-17.945c.575-1.029.696-2.935.423-6.506-4.963-4.297-12.014-4.388-17.37-4.085-5.356.303-6.718,1.604-7.777,3.843-1.15-2.36.847-4.509,2.966-5.568,2.118-1.059,7.263-1.513,12.861-.484,5.599,1.029,9.381,3.571,9.381,3.571,0,0-.394-3.51-1.453-7.414,2.3,1.695,2.603,3.571,3.117,6.325.514,2.754.605,3.177,1.785,4.63.878,3.783,1.513,5.81,4.963,11.772,3.45,5.962,3.874,6.9,4.055,10.561.182,3.662-1.271,5.901-2.693,6.96.545-1.785.999-2.966.908-6.052-.091-3.087-.878-4.418-3.874-10.198-2.996-5.78-4.055-10.955-4.055-10.955l-.847-.575-.121,4.933s.151.363.968,1.15c-.242,3.389-.484,9.26-.484,9.26,0,0-1.15.575-1.725,3.692-.575,3.117-2.936,11.59-4.57,14.223,1.241,3.056,1.15,4.206.817,5.598-.333,1.392-.878,2.724-.727,3.904,2.33-4.751,5.145-7.142,6.143-8.171.999-1.029,2.845-1.15,4.207-2.058,1.362-.908,2.845-2.724,3.874-3.268s4.569,2.391,4.569,2.391l-18.944,12.044.091.605s15.131-9.714,20.366-13.043,13.225-8.473,18.127-11.953,7.323-6.385,7.656-9.623c.333-3.238-.454-7.626-.454-7.626l-1.12.061.847,4.57s-2.3-2.33-3.934-3.722c.908-1.574,2.693-1.876,5.719-1.906-.756-.938-3.057-1.392-7.505-1.029.726-1.513,1.997-2.391,4.388-2.845-1.786-1.12-7.112-.363-7.112-.363,0,0-.454-.999.545-1.725.999-.726,2.723-1.785,5.81-2.058,2.239,1.664,2.481,1.967,5.054,3.299.333,1.634.333,1.816,2.088,1.937,2.119,3.208,4.358,4.933,9.684,7.959.091,3.238-.272,5.084-.787,6.839-.968-.847-2.965-1.906-5.689-2.088-2.724-.182-5.266-2.421-5.266-2.421,0,0-.515,3.722-2.239,6.204-1.725,2.481-3.692,4.448-8.655,8.201-4.963,3.752-12.529,8.322-16.583,10.803,1.846,3.813.575,5.205-1.21,8.443-1.786,3.238-3.269,6.083-5.205,11.742-1.937,5.659-.696,7.989.756,13.164s1.029,8.261,1.029,8.261c0,0-3.147.696-7.051.878s-3.934.272-6.749,1.937c-2.814,1.664-3.48,2.36-3.571,4.025-.091,1.664-.121,5.235,0,7.293s.938,3.359,3.026,5.689c2.088,2.33,4.206,5.629,4.206,5.629,0,0-.635,1.453.333,3.056.968,1.604,1.967,3.722,3.964,7.263,1.997,3.541,2.421,4.842,2.693,7.444.272,2.602.575,4.267,2.3,6.325s3.238,2.935,4.479,3.026c1.241.091,2.149-.605,3.087-.272s4.388,2.3,9.109,4.509c1.12,1.997,1.997,2.481,4.69,3.238,2.693.757,4.388,1.271,8.11,1.392,3.722.121,3.541-6.052,3.541-6.052,0,0,1.695,1.664,3.843,2.3s2.3.968,5.81,2.663c3.511,1.695,6.022-1.059,6.779-3.299s.545-5.81-.726-9.2c-1.271-3.389-3.874-4.812-7.082-5.659-1.029-3.752-3.934-2.935-5.356-1.967-1.422.968-1.967,1.483-2.784,1.453.272-3.692-2.209-6.688-2.209-6.688l-3.117-9.805s1.271,1.059,2.845,2.391c0,3.722.847,5.387,2.723,7.172,1.876,1.785,6.234,4.297,12.135,7.505,5.901,3.208,8.382,4.812,12.407,5.719,4.025.908,8.503-.696,8.503-.696,0,0,.515,3.056,1.543,5.931,1.029,2.875,3.995,6.052,6.537,9.26s5.447,9.169,7.535,12.619c2.088,3.45,7.081,7.505,10.833,9.593,3.753,2.088,4.6,2.633,6.87,5.992s3.45,9.079,3.571,12.619c.121,3.541-.817,17.007-.787,20.245.03,3.238,1.815,4.993,4.025,7.323,2.209,2.33,1.785,5.447,1.937,7.717.151,2.27,3.087,6.597,5.205,9.321,2.118,2.724,2.875,3.299,5.478,3.299s4.6-1.634,5.598-4.6c.999-2.966.908-6.658-.908-10.803-1.816-4.146-4.358-4.691-7.051-5.447-2.693-.757-1.786-2.602-1.271-4.63.515-2.028.212-4.176-1.513-6.627-1.725-2.451-2.239-4.721-2.33-8.383s-.061-8.14.726-10.773c.787-2.633,1.271-4.055,1.059-6.294s-.515-4.116.242-7.959c.756-3.843,1.029-5.659-2.724-7.959-3.752-2.3-4.902-3.389-7.475-6.567s-3.662-8.171-2.936-10.017c.727-1.846,6.991-7.898,6.991-7.898,0,0,3.874,7.989,6.869,11.681,2.996,3.692,4.842,6.294,6.355,9.502,1.513,3.208,2.966,5.931,5.114,8.806,2.149,2.875,2.119,3.601,2.875,7.081.757,3.48,1.604,5.719,2.633,8.685,1.029,2.966.545,10.894.091,15.857s-.515,7.202-1.059,9.654c-.545,2.451-.333,3.51.756,6.839s.999,3.873.696,6.294c-.303,2.421-.878,4.691-.484,7.959s1.453,7.021,3.692,9.23,5.719,2.512,8.625.757,3.783-5.145,4.055-8.019c.272-2.875-.817-5.326-2.875-8.201-.091-2.36-1.12-2.814-3.208-4.025-2.088-1.211-1.362-4.6-.272-7.444s.182-3.601-1.271-6.748-1.513-7.414-1.271-12.195c.242-4.781.272-5.659,1.786-9.29s1.21-10.35,1.21-10.35c0,0,1.059,2.603,1.513,7.656.454,5.054.363,7.535-.666,14.253,3.631-5.81,3.298-14.889,3.298-14.889,0,0,.999,2.33,1.634,6.264.636,3.934.666,6.99.212,12.074,3.359-5.598,2.36-14.98,1.876-19.156,3.964,8.171,6.99,13.194,6.99,13.194,0,0,.212-3.42-.817-8.473-1.029-5.054-2.814-10.289-4.207-15.222ZM319.649,325.204c.533-.95,2.734-2.387,3.244-1.066.51,1.321.695,3.754-.208,5.562s-2.132,3.152-3.036,3.43c-.463-1.808-.255-6.419,0-7.925ZM320.46,334.173c-.44,3.546-1.715,7.392-3.036,9.663-1.321,2.271-3.268,3.638-4.311,4.055-2.039-1.483-3.198-2.85-4.194-4.264,2.085-.093,3.128-.093,5.771-2.062,2.642-1.97,3.476-2.503,3.638-4.959,1.205-1.135,1.274-1.182,2.132-2.433ZM304.4,341.287c-.765-1.599-2.572-5.214-2.734-10.451-.718-1.275-1.066-1.877-.997-3.661,4.681.046,6.466.093,10.011-1.298,3.545-1.39,4.542-1.576,5.956-1.645.649,1.483,1.692,4.241,1.692,4.241,0,0-.672,2.595-1.205,5.724-.533,3.128-1.043,4.658-3.754,6.373-2.711,1.715-3.383,2.41-5.724,2.294-2.341-.116-2.48.023-3.245-1.576ZM317.123,354.45c-.255,3.314,0,7.671,0,7.671,0,0-4.496-3.893-5.678-6.211-1.182-2.317-3.476-9.664-3.453-12.468,2.248,2.897,4.356,4.542,5.167,5.168,2.225-1.321,3.754-1.808,6.28-7.392-1.112,5.539-2.062,9.918-2.317,13.232ZM280.31,487.408c-3.646.977-4.646-1.263-5.432-3.359s-.973-5.051-.973-5.051c0,0-.885-.286-1.219-1.072-.333-.786-.453-1.263-1.501-3.574-1.048-2.311-3.383-6.6-5.003-9.28s-1.12-3.371-.667-3.824,2.74,3.824,2.74,3.824c0,0,2.097-1.156,3.979-2.085-1.334-3.764.071-5.837,1.453-5.98,1.311,1.715,6.123,10.983,9.054,16.13-.739,1.096-2.025,2.192-2.025,2.192,0,0,.357.715,2.492,2.883s2.511,2.43,2.773,5.051-2.025,3.169-5.67,4.146ZM289.873,479.184h-2.398c-.166-2.894-4.01-5.436-4.01-5.436,0,0-2.398-4.506-4.527-8.557s-3.679-6.924-4.795-8.35-1.22-1.488-1.716-2.749c1.55.041,3.845,1.054,8.165,4.134,4.32,3.08,7.027,5.147,10.996,7.276,1.323,3.865,2.397,11.161,2.397,11.161-3.803-.083-4.113,2.522-4.113,2.522ZM303.629,466.691c1.125,3.226,1.625,4.952,1.05,5.527-.575.575-1.125,1.776-.275,3.751.85,1.976,1.575,3.351.825,5.177-.75,1.826-2.101,3.076-4.077,3.051-1.976-.025-5.677-1.1-6.402-5.877-.726-4.777-1.226-7.728-2.326-11.68-1.1-3.952-3.176-8.904-2.776-10.604,1.425,2.051,2.251,3.576,2.626,5.352,1-.875,2.876-1.225,4.927-1.451.325-3.501.9-6.678,2.576-6.653,1.25,4.302,2.726,10.179,3.852,13.405ZM367.813,455.528c-1.38.849-2.255,1.379-3.9,1.247-1.645-.133-1.883-1.061-2.042-2.361,2.573-1.618,12.733-7.242,12.733-7.242l-.133-.477-9.868,5.465s-.478-3.13.159-5.226c.637-2.096,5.279-5.359,8.303-2.626-.849-2.228-3.209-6.234-5.995-6.314-2.785-.08-4.642,1.035-4.801,2.573-.159,1.539.345,7.375,1.698,11.831-.557.531-2.202,1.3-2.202,1.3,0,0-.928-5.17-1.193-8.302-.266-3.132.822-6.182.822-6.182l-2.361-5.04-4.165-.982s-1.883,4.748-4.562,11.009c-2.68,6.26-5.226,11.539-6.526,15.015-1.3,3.475-1.963,7.481.08,11.115s2.679,5.014,2.573,6.738c-.106,1.724-2.096,4.483-6.552,5.597-4.457,1.114-7.693,1.061-12.627-1.432-4.934-2.494-11.672-6.154-15.2-8.462-3.528-2.308-6.605-4.642-6.181-8.781,4.775,4.032,7.109,5.65,11.566,5.438,4.457-.212,8.807-1.83,12.601-4.961,3.793-3.13,5.703-6.048,7.852-10.478,2.148-4.43,5.146-11.911,6.924-16.951,1.777-5.04,2.573-7.64,2.573-7.64,0,0-2.652-2.334-4.536-6.128-1.883-3.793-3.528-7.64-5.73-14.351s-3.661-12.919-3.661-12.919c0,0-5.067-.027-10.24.292-5.173.318-10.452,2.812-14.961,4.775-4.51,1.963-10.664,6.393-12.866,10.107-2.202,3.714-4.297,9.311-4.297,9.311l-.902.08s.902,5.942,2.494,11.46c-1.353.027-3.82,2.759-3.82,2.759l-.266-13.768-.61.027s-7.189-9.447-8.781-11.846-2.52-3.805-.106-6.803c.026,1.777-.266,2.441,2.387,6.128,2.653,3.687,4.669,6.314,5.916,8.038.716-.849,1.353-1.061,2.467-.186,1.114-2.865,2.971-6.977,6.287-10.054s7.613-6.287,13.768-8.807c6.155-2.52,13.715-4.51,23.159-3.953-.371-5.544-.663-6.977-1.724-8.489s-3.793-3.953-3.793-3.953c0,0,5.04,1.565,8.993,2.679,3.953,1.114,6.181.769,7.534-.982,1.353-1.751,1.989-4.244,2.573-7.56,4.085-1.857,8.224-3.767,11.142-4.404,2.016-2.945,3.448-4.881,3.448-4.881,0,0,2.55,3.479,3.263,8.834.713,5.355,0,7.534-1.725,11.46-1.724,3.926-4.032,9.205-4.032,9.205l2.069,4.563s-2.281-.292-3.024,2.785c-.743,3.077-.664,5.067-7.481,8.144-1.379-6.605-1.963-9.736-5.995-15.864.663-4.908.875-7.003-.451-7.056-1.326-.053-2.467,1.671-3.077,3.714-2.308-2.175-6.393-5.438-6.393-5.438,0,0,.663,3.077,2.122,5.942s3.926,6.711,6.791,11.831c2.865,5.12,5.2,9.311,6.234,11.911,1.035,2.6,1.167,3.289.743,5.306,1.141.424,3.13,2.122,4.907,3.979-.345-1.937-.981-2.679-2.414-4.987-1.433-2.308-1.91-4.695-1.698-5.73,2.229,2.998,5.253,8.064,7.481,12.76,2.229,4.695,4.297,9.47,4.297,9.47l.531-.133s.186-.928-.743-2.308c.689-.982,1.875-1.22,2.131-.133.256,1.088.495,1.273.495,1.273,0,0,2.388-.398,4.536,1.592,2.149,1.99,5.704,6.128,8.224,12.203-3.528,1.671-8.86,5.385-10.239,6.234ZM384.021,431.833c-.128,1.378-1.341,3.729-4.097,3.601-2.756-.129-7.808-.312-7.808-.312l-1.599-5.199,2.076-.992-.128-.974-2.113.661s-.331-3.968-1.764-9.388c-1.433-5.42-2.37-8.525-4.005-11.685,1.855-.037,3.546.533,4.722,1.323s2.205,2.884.569,3.711c.809.845,2.425,2.315,4.851,4.575,2.425,2.26,5.199,4.997,7.275,8.616,2.076,3.619,2.149,4.685,2.021,6.063Z"/>
  </g>
  <g>
    <path class="st0" d="M336.112,287.828c63.585,0,141.08,21.063,199.897,47.689,0,64.778.697,162.082-25.002,225.259-25.699,63.178-69.067,118.859-178.825,181.502-60.501-32.124-135.457-90.483-169.187-156.338-27.507-53.705-34.801-136.528-36.943-250.033,70.673-28.376,122.436-48.079,210.06-48.079Z"/>
    <path class="st3" d="M133.268,332.983l-1.135.448-5.219-13.221,1.135-.447c1.403,3.556,3.875,6.077,7.413,7.565,3.539,1.489,7.143,1.509,10.812.061,1.512-.597,2.557-1.522,3.133-2.778.576-1.254.572-2.619-.01-4.095-.657-1.664-2.295-2.657-4.914-2.979-1.411-.142-3.812-.299-7.202-.469-3.391-.17-5.851-.478-7.381-.923-3.063-.89-5.041-2.884-5.938-5.984-.896-3.1-.686-5.861.632-8.283s3.215-4.122,5.692-5.101c2.478-.978,4.841-1.527,7.088-1.65,2.247-.121,3.502-.234,3.768-.34.756-.298.873-1.109.351-2.434l1.135-.448,4.1,10.384-1.135.448c-1.075-2.724-2.955-4.55-5.64-5.48-2.685-.929-5.597-.774-8.735.465-1.4.553-2.336,1.393-2.81,2.52-.473,1.127-.516,2.182-.127,3.165.388.984.818,1.688,1.293,2.113.474.426,1.127.725,1.961.897.833.175,1.549.297,2.145.367.597.07,1.523.12,2.78.148,1.258.028,2.131.055,2.622.079,2.453.125,3.903.197,4.35.218.444.021,1.102.08,1.97.174.867.095,1.541.223,2.021.383.479.161,1.091.355,1.838.586.746.229,1.346.529,1.797.897.451.369.929.803,1.433,1.303,1.008,1.003,1.757,2.347,2.247,4.032.907,3.184.686,5.971-.666,8.362-1.352,2.391-3.71,4.252-7.076,5.58-3.027,1.195-6.34,1.606-9.94,1.235-1.229-.126-2.092-.092-2.583.102-1.399.553-1.8,1.586-1.203,3.099Z"/>
    <path class="st3" d="M184.963,278.369l-2.872,1.026,10.672,29.87,2.872-1.026.411,1.149-14.361,5.131-.41-1.149,2.872-1.025-5.501-15.396-11.316,4.043,5.501,15.396,2.872-1.026.41,1.148-14.36,5.132-.411-1.149,2.872-1.026-10.672-29.87-2.872,1.025-.41-1.148,14.36-5.131.411,1.148-2.873,1.026,4.762,13.327,11.316-4.043-4.762-13.327-2.872,1.026-.41-1.149,14.361-5.131.41,1.149Z"/>
    <path class="st3" d="M227.926,282.755c1.519,5.382,1.102,9.968-1.252,13.759-2.353,3.791-6.074,6.403-11.162,7.839s-9.604,1.157-13.546-.837c-3.943-1.993-6.673-5.68-8.191-11.062-1.519-5.381-1.154-10.079,1.094-14.095,2.248-4.014,5.964-6.753,11.15-8.216,5.186-1.464,9.754-1.072,13.704,1.172,3.95,2.245,6.686,6.059,8.203,11.439ZM213.053,273.958c-2.14-2.417-4.394-3.292-6.762-2.624s-3.839,2.604-4.414,5.809c-.575,3.205-.149,7.331,1.275,12.38,1.424,5.049,3.178,8.76,5.263,11.128,2.084,2.371,4.358,3.207,6.824,2.512,5.088-1.436,6.136-7.456,3.144-18.063-1.413-5.01-3.189-8.723-5.33-11.141Z"/>
    <path class="st3" d="M227.755,265.682l-.2-1.203,17.632-2.927.2,1.204-2.949.489,11.331,17.226,2.264-10.207-5.53-8.357-2.287.38-.199-1.204,16.488-2.736.199,1.203-2.828.47,11.11,17.016,3.332-19.413-4.814.799-.199-1.203,10.351-1.718.199,1.203-4.092.68-5.859,34.363-1.444.239.131-.702-.19.712-13.305-20.176-5.109,23.232-1.444.24-19.896-30.089-2.889.479Z"/>
    <path class="st3" d="M311.069,288.381c-3.21.124-5.809-.508-7.795-1.896-1.987-1.389-3.034-3.463-3.142-6.228-.058-1.503.368-2.831,1.28-3.986.911-1.154,2.038-1.758,3.379-1.81,1.341-.053,2.424.323,3.249,1.125.824.803,1.261,1.834,1.31,3.093.077,1.992-.929,3.354-3.016,4.085-.241.092-.572.196-.995.313-.423.118-.734.222-.935.311-.523.143-.772.54-.747,1.189.025.65.587,1.239,1.686,1.766,1.099.528,2.319.765,3.66.713,4.836-.188,7.116-3.816,6.843-10.887l-.811-20.907-3.048.118-.047-1.22,15.238-.591.048,1.22-3.048.118.789,20.358c.152,3.942-.928,7.066-3.239,9.374-2.312,2.309-5.865,3.555-10.66,3.74Z"/>
    <path class="st3" d="M363.409,273.769c-.411,10.524-5.046,15.613-13.904,15.269-4.917-.192-8.708-1.602-11.373-4.229-2.665-2.627-3.898-6.479-3.699-11.56l.728-18.651-3.048-.119.048-1.22,15.848.619-.048,1.219-3.048-.119-.753,19.322c-.332,8.494,2.346,12.851,8.036,13.072,2.315.091,4.464-.975,6.442-3.197,1.979-2.222,3.046-5.304,3.2-9.246l.751-19.262-4.815-.188.048-1.219,9.387.366-.047,1.219-3.049-.119-.703,18.043Z"/>
    <path class="st3" d="M415.808,262.627l-3.018-.443-4.617,31.382,3.018.444-.178,1.207-15.088-2.22.178-1.207,3.018.443,4.288-29.149-16.504,29.202-1.388-.204-8.719-33.776-4.413,29.994,4.828.711-.178,1.207-9.656-1.421.178-1.207,3.621.532,4.617-31.382-3.682-.542.178-1.207,13.458,1.98,6.085,24.017,12.081-21.344,12.07,1.775-.178,1.207Z"/>
    <path class="st3" d="M429.526,298.439l-.273,1.188-14.861-3.421.273-1.188,2.973.685,7.114-30.912-2.972-.685.273-1.188,11.829,2.723c11.779,2.127,16.743,7.213,14.892,15.258-.821,3.566-2.912,5.944-6.273,7.132-3.362,1.188-7.884.981-13.566-.619l-2.381,10.344,2.973.685ZM433.669,266.843l-4.461,19.38c3.25.748,5.631.556,7.145-.578,1.512-1.133,2.675-3.463,3.486-6.99s.799-6.19-.039-7.99c-.838-1.799-2.882-3.073-6.131-3.821Z"/>
    <path class="st3" d="M462.042,308.192l-14.686-4.112.329-1.175,2.938.822,8.553-30.545-2.937-.822.328-1.175,14.686,4.111-.329,1.175-2.937-.822-8.554,30.545,2.938.823-.329,1.175Z"/>
    <path class="st3" d="M470.214,309.304l4.633,1.534-.384,1.158-9.266-3.067.384-1.158,3.475,1.15,9.126-27.564c-.674-2.108-1.551-3.341-2.631-3.698l.384-1.158,10.829,3.585,9.888,24.671,6.001-18.125-4.633-1.534.384-1.158,9.844,3.26-.383,1.158-4.054-1.343-10.545,31.851-1.158-.384-13.246-35.293-8.647,26.116Z"/>
    <path class="st3" d="M527.806,329.18c-.256-.782-.771-1.329-1.544-1.64s-1.695-.308-2.764.008c-1.07.315-2.274.588-3.615.815-1.34.228-2.766.039-4.275-.567-5.132-2.062-8.573-4.979-10.322-8.749-1.751-3.771-1.526-8.393.672-13.864,4.595-11.434,12.23-15.005,22.91-10.715,1.924.773,3.706,2.038,5.346,3.792,1.64,1.755,2.687,2.723,3.139,2.904.453.183.925.099,1.417-.252.491-.351.828-.752,1.01-1.205l1.075.432-4.616,11.49-1.132-.454c1.151-2.867,1.06-5.886-.275-9.052-1.336-3.166-3.475-5.34-6.418-6.522-2.265-.91-4.471-.383-6.618,1.581s-4.347,5.748-6.599,11.352c-2.251,5.604-3.245,9.796-2.981,12.574.264,2.779,1.547,4.632,3.849,5.557,3.623,1.455,6.73-1.043,9.323-7.496l1.683-4.188-3.566-1.433.455-1.132,13.585,5.458-.455,1.132-2.66-1.069-5.686,14.151-1.075-.433c.349-.867.395-1.692.14-2.475Z"/>
  </g>
  <g>
    <path class="st3" d="M264.255,661.63v1.757h-22.836v-1.757h3.952l-11.682-21.343-3.688,4.655v16.688h4.392v1.757h-21.958v-1.757h4.392v-45.673h-4.392v-1.756h21.958v1.756h-4.392v25.911l20.377-25.911h-8.081v-1.756h17.918v1.756h-7.466l-10.364,13.175,18.094,32.498h3.776Z"/>
    <path class="st3" d="M290.604,663.387h-21.958v-1.757h4.392v-45.673h-4.392v-1.756h21.958v1.756h-4.392v45.673h4.392v1.757Z"/>
    <path class="st3" d="M302.9,661.63h7.026v1.757h-14.053v-1.757h5.27v-41.808c-1.875-2.576-3.632-3.865-5.27-3.865v-1.756h16.425l24.681,29.248v-27.492h-7.027v-1.756h14.932v1.756h-6.148v48.308h-1.756l-34.079-42.247v39.612Z"/>
    <path class="st3" d="M391.345,660.005c-.762-.907-1.742-1.361-2.942-1.361s-2.43.498-3.688,1.493c-1.26.996-2.723,2.007-4.392,3.03-1.669,1.024-3.675,1.537-6.017,1.537-7.964,0-14.127-2.049-18.488-6.148-4.363-4.098-6.544-10.393-6.544-18.884,0-17.742,8.285-26.613,24.856-26.613,2.986,0,6.046.733,9.179,2.196,3.132,1.464,5.05,2.195,5.753,2.195s1.287-.364,1.757-1.098c.468-.731.702-1.449.702-2.151h1.669v17.829h-1.757c0-4.449-1.742-8.432-5.226-11.944-3.484-3.514-7.51-5.271-12.077-5.271-3.513,0-6.179,1.889-7.992,5.665-1.816,3.777-2.723,10.014-2.723,18.709s.922,14.829,2.767,18.4c1.844,3.572,4.552,5.357,8.124,5.357,5.621,0,8.432-5.006,8.432-15.019v-6.5h-5.533v-1.757h21.08v1.757h-4.129v21.958h-1.668c0-1.347-.382-2.473-1.143-3.382Z"/>
    <path class="st3" d="M407.067,663.387h-1.757v-20.465h1.757c0,5.505,1.977,10.188,5.929,14.053,3.952,3.865,8.769,5.797,14.448,5.797,2.342,0,4.229-.688,5.665-2.063,1.435-1.375,2.152-3.206,2.152-5.489,0-2.576-1.669-4.772-5.007-6.588-1.815-.936-4.948-2.415-9.397-4.436-4.451-2.02-7.584-3.732-9.398-5.138-3.631-2.811-5.226-6.528-4.787-11.155.439-4.625,2.182-8.212,5.227-10.759,3.044-2.548,6.484-3.821,10.32-3.821s7.29.514,10.364,1.537c3.074,1.025,4.815,1.537,5.226,1.537,1.171,0,1.757-1.023,1.757-3.074h1.757v16.073h-1.757c0-4.216-1.552-7.655-4.655-10.32-3.104-2.663-7.085-3.996-11.945-3.996-2.167,0-3.864.63-5.094,1.889-1.229,1.26-1.845,2.649-1.845,4.172s.204,2.694.615,3.513c.408.821,1.126,1.567,2.151,2.24,1.024.674,1.917,1.216,2.679,1.625.761.41,1.977.966,3.646,1.669,1.669.702,2.824,1.2,3.469,1.493,3.22,1.464,5.123,2.327,5.71,2.591.584.264,1.434.688,2.547,1.273,1.111.586,1.946,1.113,2.503,1.581.556.47,1.273,1.054,2.152,1.757.878.702,1.521,1.42,1.932,2.151.409.733.819,1.567,1.229,2.504.819,1.874,1.112,4.07.879,6.587-.47,4.743-2.24,8.359-5.313,10.848-3.074,2.487-7.218,3.732-12.429,3.732-4.686,0-9.341-1.201-13.965-3.601-1.581-.819-2.753-1.23-3.514-1.23-2.167,0-3.25,1.173-3.25,3.514Z"/>
  </g>
</svg>